<svg width="395" height="17" viewBox="0 0 395 17" fill="none" xmlns="http://www.w3.org/2000/svg">
<path d="M383.955 9.21524C383.443 9.03793 383.443 8.36074 383.411 7.88917C383.283 6.20941 383.923 3.64498 383.155 2.55469C382.611 1.9058 379.987 1.96522 378.387 2.05388C377.939 2.1133 377.395 2.20101 377.011 2.37832C376.627 2.55564 376.243 2.8499 376.243 3.11492C376.243 3.49784 377.204 3.43937 377.555 3.94018C377.939 4.47118 377.939 5.61994 377.939 6.56309C377.939 7.65338 377.746 9.09829 377.267 9.15676C376.531 9.186 376.115 8.50787 375.731 8.00706C374.963 7.03467 374.195 5.82555 373.619 4.64661C373.331 4.0279 373.17 3.34977 372.754 3.08474C372.114 2.67164 370.962 2.64241 369.842 2.67164C368.818 2.70088 367.346 2.58299 367.058 3.14322C366.834 3.76193 367.314 4.3514 367.57 4.85316C368.882 7.47607 370.29 9.77547 372.018 11.956C373.619 13.9895 375.122 15.6108 378.066 16.4653C378.898 16.701 382.546 17.3792 383.282 16.4653C383.538 16.1116 383.475 15.3156 383.603 14.7261C383.731 14.1366 383.89 13.5471 384.499 13.5179C385.011 13.4887 385.298 13.9008 385.619 14.196C385.971 14.5205 386.259 14.7855 386.515 15.0807C387.123 15.6409 387.763 16.4068 388.531 16.702C389.587 17.1151 391.219 16.9972 392.755 16.9378C394.003 16.9085 394.899 16.6728 394.995 15.9946C395.06 15.4636 394.419 14.6978 394.035 14.2555C393.074 13.1652 392.627 12.8407 391.538 11.8381C391.058 11.3958 390.45 10.9242 390.45 10.3942C390.418 10.0697 390.706 9.77547 390.962 9.45103C392.082 7.9184 393.202 6.82812 394.226 5.23608C394.514 4.7645 395.187 3.67422 394.931 3.14322C394.643 2.55375 393.043 2.73012 392.05 2.73012C390.771 2.73012 389.107 2.64146 388.786 2.87725C388.178 3.26017 387.922 3.87982 387.634 4.46929C386.994 5.82555 386.13 7.2101 385.234 8.24191C384.913 8.59559 384.306 9.33219 383.954 9.2143L383.955 9.21524Z" fill="#091946"/>
<path d="M1.23295 14V3.81818H4.6733C5.47206 3.81818 6.125 3.96236 6.6321 4.25071C7.14252 4.53575 7.52036 4.92188 7.76562 5.40909C8.01089 5.89631 8.13352 6.43987 8.13352 7.03977C8.13352 7.63968 8.01089 8.1849 7.76562 8.67543C7.52367 9.16596 7.14915 9.55705 6.64205 9.84872C6.13494 10.1371 5.48532 10.2812 4.69318 10.2812H2.22727V9.1875H4.65341C5.20028 9.1875 5.63944 9.09304 5.97088 8.90412C6.30232 8.7152 6.54261 8.45999 6.69176 8.13849C6.84422 7.81368 6.92045 7.44744 6.92045 7.03977C6.92045 6.6321 6.84422 6.26752 6.69176 5.94602C6.54261 5.62453 6.30066 5.37263 5.96591 5.19034C5.63116 5.00473 5.18703 4.91193 4.63352 4.91193H2.46591V14H1.23295ZM9.96058 14V6.36364H11.0941V7.51705H11.1737C11.3129 7.1392 11.5647 6.83262 11.9293 6.5973C12.2939 6.36198 12.7049 6.24432 13.1623 6.24432C13.2485 6.24432 13.3562 6.24597 13.4854 6.24929C13.6147 6.2526 13.7125 6.25758 13.7788 6.2642V7.45739C13.739 7.44744 13.6478 7.43253 13.5053 7.41264C13.3661 7.38944 13.2186 7.37784 13.0629 7.37784C12.6916 7.37784 12.3602 7.45573 12.0685 7.61151C11.7802 7.76397 11.5515 7.97609 11.3825 8.24787C11.2167 8.51634 11.1339 8.82292 11.1339 9.16761V14H9.96058ZM15.1696 14V6.36364H16.3429V14H15.1696ZM15.7662 5.09091C15.5375 5.09091 15.3403 5.01302 15.1745 4.85724C15.0121 4.70147 14.9309 4.5142 14.9309 4.29545C14.9309 4.0767 15.0121 3.88944 15.1745 3.73366C15.3403 3.57789 15.5375 3.5 15.7662 3.5C15.9949 3.5 16.1904 3.57789 16.3528 3.73366C16.5185 3.88944 16.6014 4.0767 16.6014 4.29545C16.6014 4.5142 16.5185 4.70147 16.3528 4.85724C16.1904 5.01302 15.9949 5.09091 15.7662 5.09091ZM24.7362 6.36364L21.9123 14H20.7191L17.8952 6.36364H19.168L21.2759 12.4489H21.3555L23.4634 6.36364H24.7362ZM28.2995 14.179C27.8156 14.179 27.3765 14.0878 26.9821 13.9055C26.5877 13.7199 26.2744 13.4531 26.0424 13.1051C25.8104 12.7538 25.6944 12.3295 25.6944 11.8324C25.6944 11.3949 25.7806 11.0402 25.9529 10.7685C26.1253 10.4934 26.3556 10.2779 26.644 10.1222C26.9324 9.96638 27.2505 9.85038 27.5985 9.77415C27.9499 9.6946 28.3029 9.63163 28.6575 9.58523C29.1215 9.52557 29.4977 9.48082 29.786 9.45099C30.0777 9.41785 30.2898 9.36316 30.4224 9.28693C30.5583 9.2107 30.6262 9.07812 30.6262 8.8892V8.84943C30.6262 8.3589 30.492 7.97775 30.2235 7.70597C29.9584 7.43419 29.5557 7.2983 29.0154 7.2983C28.4553 7.2983 28.0162 7.42093 27.698 7.66619C27.3798 7.91146 27.1561 8.1733 27.0268 8.4517L25.9132 8.05398C26.112 7.58996 26.3772 7.22869 26.7086 6.97017C27.0434 6.70833 27.408 6.52604 27.8024 6.4233C28.2001 6.31723 28.5912 6.2642 28.9757 6.2642C29.2209 6.2642 29.5027 6.29403 29.8208 6.35369C30.1423 6.41004 30.4522 6.5277 30.7505 6.70668C31.0521 6.88565 31.3024 7.15578 31.5012 7.51705C31.7001 7.87831 31.7995 8.36222 31.7995 8.96875V14H30.6262V12.9659H30.5666C30.487 13.1316 30.3545 13.3089 30.1689 13.4979C29.9833 13.6868 29.7363 13.8475 29.4281 13.9801C29.1199 14.1127 28.7437 14.179 28.2995 14.179ZM28.4785 13.125C28.9425 13.125 29.3336 13.0339 29.6518 12.8516C29.9733 12.6693 30.2153 12.4339 30.3777 12.1456C30.5434 11.8572 30.6262 11.554 30.6262 11.2358V10.1619C30.5765 10.2216 30.4672 10.2763 30.2981 10.326C30.1324 10.3724 29.9402 10.4138 29.7214 10.4503C29.506 10.4834 29.2955 10.5133 29.09 10.5398C28.8878 10.563 28.7238 10.5829 28.5978 10.5994C28.2929 10.6392 28.0079 10.7038 27.7427 10.7933C27.4809 10.8795 27.2688 11.0104 27.1064 11.1861C26.9473 11.3584 26.8677 11.5937 26.8677 11.892C26.8677 12.2997 27.0185 12.608 27.3201 12.8168C27.6251 13.0223 28.0112 13.125 28.4785 13.125ZM37.0433 14.1591C36.3274 14.1591 35.7109 13.9901 35.1939 13.652C34.6768 13.3139 34.2791 12.8482 34.0007 12.255C33.7223 11.6617 33.5831 10.9839 33.5831 10.2216C33.5831 9.44602 33.7256 8.7616 34.0107 8.16832C34.299 7.57173 34.7 7.10606 35.2138 6.77131C35.7308 6.43324 36.334 6.2642 37.0234 6.2642C37.5604 6.2642 38.0443 6.36364 38.4751 6.5625C38.906 6.76136 39.259 7.03977 39.5341 7.39773C39.8092 7.75568 39.9799 8.1733 40.0462 8.65057H38.8729C38.7834 8.30256 38.5845 7.99432 38.2763 7.72585C37.9714 7.45407 37.5604 7.31818 37.0433 7.31818C36.5859 7.31818 36.1849 7.4375 35.8402 7.67614C35.4988 7.91146 35.232 8.24455 35.0398 8.67543C34.8509 9.10298 34.7564 9.60511 34.7564 10.1818C34.7564 10.7718 34.8492 11.2855 35.0348 11.723C35.2237 12.1605 35.4889 12.5002 35.8303 12.7422C36.175 12.9841 36.5793 13.1051 37.0433 13.1051C37.3482 13.1051 37.625 13.0521 37.8736 12.946C38.1222 12.84 38.3326 12.6875 38.505 12.4886C38.6773 12.2898 38.8 12.0511 38.8729 11.7727H40.0462C39.9799 12.2235 39.8158 12.6295 39.554 12.9908C39.2955 13.3487 38.9524 13.6338 38.5249 13.8459C38.1006 14.0547 37.6068 14.1591 37.0433 14.1591ZM42.517 16.8636C42.3182 16.8636 42.1409 16.8471 41.9851 16.8139C41.8293 16.7841 41.7216 16.7543 41.6619 16.7244L41.9602 15.6903C42.2453 15.7633 42.4972 15.7898 42.7159 15.7699C42.9347 15.75 43.1286 15.6522 43.2976 15.4766C43.4699 15.3042 43.6274 15.0241 43.7699 14.6364L43.9886 14.0398L41.1648 6.36364H42.4375L44.5455 12.4489H44.625L46.733 6.36364H48.0057L44.7642 15.1136C44.6184 15.508 44.4377 15.8345 44.2223 16.093C44.0069 16.3549 43.7566 16.5488 43.4716 16.6747C43.1899 16.8007 42.8717 16.8636 42.517 16.8636ZM53.4918 16.8636V6.36364H54.6254V7.5767H54.7646C54.8507 7.44413 54.9701 7.27509 55.1225 7.0696C55.2783 6.8608 55.5004 6.67519 55.7887 6.51278C56.0804 6.34706 56.4748 6.2642 56.9719 6.2642C57.6149 6.2642 58.1817 6.42495 58.6722 6.74645C59.1628 7.06794 59.5456 7.52367 59.8207 8.11364C60.0958 8.7036 60.2333 9.39962 60.2333 10.2017C60.2333 11.0104 60.0958 11.7114 59.8207 12.3047C59.5456 12.8946 59.1644 13.352 58.6772 13.6768C58.19 13.9983 57.6282 14.1591 56.9918 14.1591C56.5013 14.1591 56.1085 14.0779 55.8136 13.9155C55.5186 13.7498 55.2915 13.5625 55.1325 13.3537C54.9734 13.1416 54.8507 12.9659 54.7646 12.8267H54.6651V16.8636H53.4918ZM54.6452 10.1818C54.6452 10.7585 54.7298 11.2673 54.8988 11.7081C55.0678 12.1456 55.3147 12.4886 55.6396 12.7372C55.9644 12.9825 56.3621 13.1051 56.8327 13.1051C57.3233 13.1051 57.7326 12.9759 58.0607 12.7173C58.3922 12.4555 58.6407 12.1042 58.8065 11.6634C58.9755 11.2192 59.06 10.7254 59.06 10.1818C59.06 9.64489 58.9772 9.16098 58.8114 8.73011C58.649 8.29593 58.4021 7.95289 58.0707 7.70099C57.7425 7.44579 57.3299 7.31818 56.8327 7.31818C56.3555 7.31818 55.9544 7.43916 55.6296 7.68111C55.3048 7.91974 55.0595 8.2545 54.8938 8.68537C54.7281 9.11293 54.6452 9.61174 54.6452 10.1818ZM65.1254 14.1591C64.436 14.1591 63.8311 13.995 63.3107 13.6669C62.7937 13.3388 62.3893 12.8797 62.0977 12.2898C61.8093 11.6998 61.6651 11.0104 61.6651 10.2216C61.6651 9.42614 61.8093 8.73177 62.0977 8.13849C62.3893 7.54522 62.7937 7.08452 63.3107 6.75639C63.8311 6.42827 64.436 6.2642 65.1254 6.2642C65.8147 6.2642 66.418 6.42827 66.935 6.75639C67.4554 7.08452 67.8597 7.54522 68.1481 8.13849C68.4397 8.73177 68.5856 9.42614 68.5856 10.2216C68.5856 11.0104 68.4397 11.6998 68.1481 12.2898C67.8597 12.8797 67.4554 13.3388 66.935 13.6669C66.418 13.995 65.8147 14.1591 65.1254 14.1591ZM65.1254 13.1051C65.649 13.1051 66.0799 12.9709 66.418 12.7024C66.756 12.4339 67.0063 12.081 67.1687 11.6435C67.3311 11.206 67.4123 10.732 67.4123 10.2216C67.4123 9.71117 67.3311 9.23556 67.1687 8.79474C67.0063 8.35393 66.756 7.99763 66.418 7.72585C66.0799 7.45407 65.649 7.31818 65.1254 7.31818C64.6017 7.31818 64.1708 7.45407 63.8327 7.72585C63.4947 7.99763 63.2444 8.35393 63.082 8.79474C62.9196 9.23556 62.8384 9.71117 62.8384 10.2216C62.8384 10.732 62.9196 11.206 63.082 11.6435C63.2444 12.081 63.4947 12.4339 63.8327 12.7024C64.1708 12.9709 64.6017 13.1051 65.1254 13.1051ZM71.5499 3.81818V14H70.3766V3.81818H71.5499ZM73.6989 14V6.36364H74.8722V14H73.6989ZM74.2955 5.09091C74.0668 5.09091 73.8696 5.01302 73.7038 4.85724C73.5414 4.70147 73.4602 4.5142 73.4602 4.29545C73.4602 4.0767 73.5414 3.88944 73.7038 3.73366C73.8696 3.57789 74.0668 3.5 74.2955 3.5C74.5241 3.5 74.7197 3.57789 74.8821 3.73366C75.0478 3.88944 75.1307 4.0767 75.1307 4.29545C75.1307 4.5142 75.0478 4.70147 74.8821 4.85724C74.7197 5.01302 74.5241 5.09091 74.2955 5.09091ZM80.1234 14.1591C79.4075 14.1591 78.791 13.9901 78.274 13.652C77.7569 13.3139 77.3592 12.8482 77.0808 12.255C76.8024 11.6617 76.6632 10.9839 76.6632 10.2216C76.6632 9.44602 76.8057 8.7616 77.0907 8.16832C77.3791 7.57173 77.7801 7.10606 78.2939 6.77131C78.8109 6.43324 79.4141 6.2642 80.1035 6.2642C80.6404 6.2642 81.1243 6.36364 81.5552 6.5625C81.9861 6.76136 82.3391 7.03977 82.6142 7.39773C82.8893 7.75568 83.06 8.1733 83.1262 8.65057H81.9529C81.8635 8.30256 81.6646 7.99432 81.3564 7.72585C81.0514 7.45407 80.6404 7.31818 80.1234 7.31818C79.666 7.31818 79.265 7.4375 78.9203 7.67614C78.5789 7.91146 78.3121 8.24455 78.1199 8.67543C77.9309 9.10298 77.8365 9.60511 77.8365 10.1818C77.8365 10.7718 77.9293 11.2855 78.1149 11.723C78.3038 12.1605 78.569 12.5002 78.9103 12.7422C79.255 12.9841 79.6594 13.1051 80.1234 13.1051C80.4283 13.1051 80.7051 13.0521 80.9537 12.946C81.2022 12.84 81.4127 12.6875 81.585 12.4886C81.7574 12.2898 81.88 12.0511 81.9529 11.7727H83.1262C83.06 12.2235 82.8959 12.6295 82.6341 12.9908C82.3755 13.3487 82.0325 13.6338 81.6049 13.8459C81.1807 14.0547 80.6868 14.1591 80.1234 14.1591ZM85.5971 16.8636C85.3983 16.8636 85.2209 16.8471 85.0652 16.8139C84.9094 16.7841 84.8017 16.7543 84.742 16.7244L85.0403 15.6903C85.3253 15.7633 85.5772 15.7898 85.796 15.7699C86.0147 15.75 86.2086 15.6522 86.3777 15.4766C86.55 15.3042 86.7074 15.0241 86.85 14.6364L87.0687 14.0398L84.2449 6.36364H85.5176L87.6255 12.4489H87.7051L89.813 6.36364H91.0858L87.8443 15.1136C87.6984 15.508 87.5178 15.8345 87.3024 16.093C87.0869 16.3549 86.8367 16.5488 86.5517 16.6747C86.2699 16.8007 85.9518 16.8636 85.5971 16.8636Z" fill="#091946"/>
<path d="M150.168 11.2159L150.148 9.7642H150.386L153.727 6.36364H155.179L151.619 9.96307H151.52L150.168 11.2159ZM149.074 14V3.81818H150.247V14H149.074ZM153.926 14L150.943 10.2216L151.778 9.40625L155.418 14H153.926ZM156.689 14V6.36364H157.823V7.55682H157.922C158.081 7.14915 158.338 6.83262 158.693 6.60724C159.047 6.37855 159.473 6.2642 159.97 6.2642C160.474 6.2642 160.893 6.37855 161.228 6.60724C161.566 6.83262 161.83 7.14915 162.019 7.55682H162.098C162.294 7.16241 162.587 6.84919 162.978 6.61719C163.369 6.38187 163.838 6.2642 164.385 6.2642C165.068 6.2642 165.626 6.47798 166.061 6.90554C166.495 7.32978 166.712 7.991 166.712 8.8892V14H165.539V8.8892C165.539 8.32576 165.384 7.92306 165.076 7.68111C164.768 7.43916 164.405 7.31818 163.987 7.31818C163.45 7.31818 163.035 7.48059 162.74 7.8054C162.445 8.12689 162.297 8.53456 162.297 9.02841V14H161.104V8.76989C161.104 8.3357 160.963 7.98603 160.681 7.72088C160.4 7.45241 160.037 7.31818 159.593 7.31818C159.288 7.31818 159.003 7.39938 158.737 7.56179C158.476 7.72419 158.263 7.94957 158.101 8.23793C157.942 8.52296 157.862 8.85275 157.862 9.22727V14H156.689ZM172.178 6.36364V7.35795H168.221V6.36364H172.178ZM169.374 4.53409H170.547V11.8125C170.547 12.1439 170.595 12.3925 170.692 12.5582C170.791 12.7206 170.917 12.83 171.069 12.8864C171.225 12.9394 171.389 12.9659 171.562 12.9659C171.691 12.9659 171.797 12.9593 171.88 12.946C171.963 12.9295 172.029 12.9162 172.079 12.9062L172.317 13.9602C172.238 13.9901 172.127 14.0199 171.984 14.0497C171.842 14.0829 171.661 14.0994 171.442 14.0994C171.111 14.0994 170.786 14.0282 170.468 13.8857C170.153 13.7431 169.891 13.526 169.682 13.2344C169.477 12.9427 169.374 12.5748 169.374 12.1307V4.53409ZM178.045 9.08807V10.1818H173.59V9.08807H178.045ZM181.203 11.2159L181.183 9.7642H181.422L184.762 6.36364H186.214L182.654 9.96307H182.555L181.203 11.2159ZM180.109 14V3.81818H181.282V14H180.109ZM184.961 14L181.978 10.2216L182.814 9.40625L186.453 14H184.961ZM188.818 11.2159L188.798 9.7642H189.037L192.378 6.36364H193.829L190.27 9.96307H190.17L188.818 11.2159ZM187.724 14V3.81818H188.898V14H187.724ZM192.577 14L189.594 10.2216L190.429 9.40625L194.068 14H192.577ZM201.206 16.6847C200.192 16.6847 199.295 16.5455 198.516 16.267C197.737 15.992 197.083 15.5859 196.553 15.049C196.022 14.5121 195.621 13.8542 195.349 13.0753C195.078 12.2964 194.942 11.4048 194.942 10.4006C194.942 9.42945 195.079 8.56108 195.354 7.79545C195.633 7.02983 196.036 6.38021 196.562 5.84659C197.093 5.30966 197.736 4.90033 198.491 4.61861C199.25 4.33688 200.109 4.19602 201.067 4.19602C201.998 4.19602 202.813 4.34848 203.513 4.65341C204.215 4.95502 204.802 5.36435 205.273 5.88139C205.747 6.39512 206.101 6.97348 206.337 7.61648C206.575 8.25947 206.695 8.92235 206.695 9.60511C206.695 10.0857 206.671 10.5729 206.625 11.0668C206.579 11.5606 206.481 12.0147 206.332 12.429C206.183 12.84 205.952 13.1714 205.641 13.4233C205.332 13.6752 204.915 13.8011 204.388 13.8011C204.156 13.8011 203.901 13.7647 203.622 13.6918C203.344 13.6188 203.097 13.4979 202.881 13.3288C202.666 13.1598 202.538 12.9328 202.499 12.6477H202.439C202.359 12.84 202.237 13.0223 202.071 13.1946C201.909 13.367 201.695 13.5045 201.43 13.6072C201.168 13.71 200.848 13.7547 200.47 13.7415C200.039 13.7249 199.66 13.6288 199.332 13.4531C199.004 13.2741 198.728 13.0322 198.506 12.7273C198.288 12.419 198.122 12.0627 198.009 11.6584C197.9 11.2507 197.845 10.8116 197.845 10.3409C197.845 9.89347 197.911 9.48414 198.044 9.11293C198.177 8.74171 198.361 8.4169 198.596 8.13849C198.835 7.86009 199.113 7.63802 199.431 7.4723C199.753 7.30327 200.099 7.19886 200.47 7.15909C200.802 7.12595 201.103 7.14086 201.375 7.20384C201.647 7.26349 201.871 7.35464 202.046 7.47727C202.222 7.59659 202.333 7.72917 202.379 7.875H202.439V7.31818H203.493V11.8125C203.493 12.0909 203.571 12.3362 203.727 12.5483C203.882 12.7604 204.109 12.8665 204.408 12.8665C204.746 12.8665 205.004 12.7505 205.183 12.5185C205.366 12.2865 205.49 11.9285 205.556 11.4446C205.626 10.9607 205.661 10.3409 205.661 9.58523C205.661 9.1411 205.599 8.7036 205.477 8.27273C205.357 7.83854 205.175 7.43253 204.93 7.05469C204.688 6.67685 204.381 6.34375 204.01 6.0554C203.639 5.76705 203.203 5.54167 202.702 5.37926C202.205 5.21354 201.64 5.13068 201.007 5.13068C200.228 5.13068 199.531 5.25166 198.914 5.49361C198.301 5.73224 197.779 6.08191 197.348 6.54261C196.92 7 196.594 7.55682 196.369 8.21307C196.147 8.866 196.036 9.60843 196.036 10.4403C196.036 11.2855 196.147 12.0362 196.369 12.6925C196.594 13.3487 196.925 13.9022 197.363 14.353C197.804 14.8037 198.349 15.1451 198.999 15.3771C199.648 15.6125 200.397 15.7301 201.246 15.7301C201.61 15.7301 201.97 15.6953 202.325 15.6257C202.679 15.5561 202.992 15.4799 203.264 15.397C203.536 15.3142 203.732 15.2528 203.851 15.2131L204.129 16.1278C203.924 16.214 203.655 16.3002 203.324 16.3864C202.996 16.4725 202.644 16.5438 202.27 16.6001C201.899 16.6565 201.544 16.6847 201.206 16.6847ZM200.629 12.7273C201.073 12.7273 201.433 12.6378 201.708 12.4588C201.983 12.2798 202.184 12.0097 202.31 11.6484C202.436 11.2872 202.499 10.8314 202.499 10.2812C202.499 9.72443 202.429 9.29025 202.29 8.97869C202.151 8.66714 201.945 8.44839 201.673 8.32244C201.402 8.1965 201.067 8.13352 200.669 8.13352C200.291 8.13352 199.968 8.23295 199.7 8.43182C199.434 8.62737 199.231 8.8892 199.088 9.21733C198.949 9.54214 198.879 9.89678 198.879 10.2812C198.879 10.7055 198.936 11.1049 199.048 11.4794C199.161 11.8506 199.345 12.1522 199.6 12.3842C199.855 12.6129 200.198 12.7273 200.629 12.7273ZM208.451 14V6.36364H209.584V7.55682H209.684C209.843 7.14915 210.1 6.83262 210.454 6.60724C210.809 6.37855 211.235 6.2642 211.732 6.2642C212.236 6.2642 212.655 6.37855 212.99 6.60724C213.328 6.83262 213.591 7.14915 213.78 7.55682H213.86C214.055 7.16241 214.349 6.84919 214.74 6.61719C215.131 6.38187 215.6 6.2642 216.147 6.2642C216.83 6.2642 217.388 6.47798 217.822 6.90554C218.256 7.32978 218.474 7.991 218.474 8.8892V14H217.3V8.8892C217.3 8.32576 217.146 7.92306 216.838 7.68111C216.53 7.43916 216.167 7.31818 215.749 7.31818C215.212 7.31818 214.796 7.48059 214.501 7.8054C214.206 8.12689 214.059 8.53456 214.059 9.02841V14H212.866V8.76989C212.866 8.3357 212.725 7.98603 212.443 7.72088C212.161 7.45241 211.798 7.31818 211.354 7.31818C211.049 7.31818 210.764 7.39938 210.499 7.56179C210.237 7.72419 210.025 7.94957 209.863 8.23793C209.704 8.52296 209.624 8.85275 209.624 9.22727V14H208.451ZM222.866 14.179C222.382 14.179 221.943 14.0878 221.548 13.9055C221.154 13.7199 220.841 13.4531 220.609 13.1051C220.377 12.7538 220.261 12.3295 220.261 11.8324C220.261 11.3949 220.347 11.0402 220.519 10.7685C220.692 10.4934 220.922 10.2779 221.21 10.1222C221.499 9.96638 221.817 9.85038 222.165 9.77415C222.516 9.6946 222.869 9.63163 223.224 9.58523C223.688 9.52557 224.064 9.48082 224.352 9.45099C224.644 9.41785 224.856 9.36316 224.989 9.28693C225.125 9.2107 225.193 9.07812 225.193 8.8892V8.84943C225.193 8.3589 225.058 7.97775 224.79 7.70597C224.525 7.43419 224.122 7.2983 223.582 7.2983C223.022 7.2983 222.583 7.42093 222.264 7.66619C221.946 7.91146 221.722 8.1733 221.593 8.4517L220.48 8.05398C220.678 7.58996 220.944 7.22869 221.275 6.97017C221.61 6.70833 221.974 6.52604 222.369 6.4233C222.767 6.31723 223.158 6.2642 223.542 6.2642C223.787 6.2642 224.069 6.29403 224.387 6.35369C224.709 6.41004 225.019 6.5277 225.317 6.70668C225.619 6.88565 225.869 7.15578 226.068 7.51705C226.267 7.87831 226.366 8.36222 226.366 8.96875V14H225.193V12.9659H225.133C225.053 13.1316 224.921 13.3089 224.735 13.4979C224.55 13.6868 224.303 13.8475 223.994 13.9801C223.686 14.1127 223.31 14.179 222.866 14.179ZM223.045 13.125C223.509 13.125 223.9 13.0339 224.218 12.8516C224.54 12.6693 224.782 12.4339 224.944 12.1456C225.11 11.8572 225.193 11.554 225.193 11.2358V10.1619C225.143 10.2216 225.034 10.2763 224.865 10.326C224.699 10.3724 224.507 10.4138 224.288 10.4503C224.072 10.4834 223.862 10.5133 223.656 10.5398C223.454 10.563 223.29 10.5829 223.164 10.5994C222.859 10.6392 222.574 10.7038 222.309 10.7933C222.047 10.8795 221.835 11.0104 221.673 11.1861C221.514 11.3584 221.434 11.5937 221.434 11.892C221.434 12.2997 221.585 12.608 221.887 12.8168C222.191 13.0223 222.578 13.125 223.045 13.125ZM228.507 14V6.36364H229.681V14H228.507ZM229.104 5.09091C228.875 5.09091 228.678 5.01302 228.512 4.85724C228.35 4.70147 228.269 4.5142 228.269 4.29545C228.269 4.0767 228.35 3.88944 228.512 3.73366C228.678 3.57789 228.875 3.5 229.104 3.5C229.333 3.5 229.528 3.57789 229.691 3.73366C229.856 3.88944 229.939 4.0767 229.939 4.29545C229.939 4.5142 229.856 4.70147 229.691 4.85724C229.528 5.01302 229.333 5.09091 229.104 5.09091ZM233.003 3.81818V14H231.83V3.81818H233.003ZM236.007 14.0795C235.762 14.0795 235.551 13.9917 235.376 13.8161C235.2 13.6404 235.112 13.4299 235.112 13.1847C235.112 12.9394 235.2 12.7289 235.376 12.5533C235.551 12.3776 235.762 12.2898 236.007 12.2898C236.252 12.2898 236.463 12.3776 236.638 12.5533C236.814 12.7289 236.902 12.9394 236.902 13.1847C236.902 13.3471 236.861 13.4962 236.778 13.6321C236.698 13.768 236.59 13.8774 236.455 13.9602C236.322 14.0398 236.173 14.0795 236.007 14.0795ZM239.007 14V6.36364H240.141V7.51705H240.221C240.36 7.1392 240.612 6.83262 240.976 6.5973C241.341 6.36198 241.752 6.24432 242.209 6.24432C242.295 6.24432 242.403 6.24597 242.532 6.24929C242.662 6.2526 242.759 6.25758 242.826 6.2642V7.45739C242.786 7.44744 242.695 7.43253 242.552 7.41264C242.413 7.38944 242.266 7.37784 242.11 7.37784C241.739 7.37784 241.407 7.45573 241.115 7.61151C240.827 7.76397 240.598 7.97609 240.429 8.24787C240.264 8.51634 240.181 8.82292 240.181 9.16761V14H239.007ZM249.029 10.8778V6.36364H250.202V14H249.029V12.7074H248.949C248.77 13.0952 248.492 13.425 248.114 13.6967C247.736 13.9652 247.259 14.0994 246.682 14.0994C246.205 14.0994 245.781 13.995 245.41 13.7862C245.038 13.5741 244.747 13.2559 244.535 12.8317C244.323 12.4041 244.216 11.8655 244.216 11.2159V6.36364H245.39V11.1364C245.39 11.6932 245.546 12.1373 245.857 12.4688C246.172 12.8002 246.573 12.9659 247.06 12.9659C247.352 12.9659 247.648 12.8913 247.95 12.7422C248.255 12.593 248.51 12.3643 248.716 12.0561C248.925 11.7479 249.029 11.3551 249.029 10.8778Z" fill="#091946"/>
</svg>
