<svg width="395" height="99" viewBox="0 0 395 99" fill="none" xmlns="http://www.w3.org/2000/svg">
<path d="M5.33523 23L0.494318 5.54545H3.2642L6.66477 19.0625H6.8267L10.3636 5.54545H13.108L16.6449 19.071H16.8068L20.1989 5.54545H22.9773L18.1278 23H15.4773L11.804 9.92614H11.6676L7.99432 23H5.33523ZM29.527 23.2642C28.2372 23.2642 27.1264 22.9886 26.1946 22.4375C25.2685 21.8807 24.5526 21.0994 24.0469 20.0938C23.5469 19.0824 23.2969 17.8977 23.2969 16.5398C23.2969 15.1989 23.5469 14.017 24.0469 12.9943C24.5526 11.9716 25.2571 11.1733 26.1605 10.5994C27.0696 10.0256 28.1321 9.73864 29.348 9.73864C30.0866 9.73864 30.8026 9.8608 31.4957 10.1051C32.1889 10.3494 32.8111 10.733 33.3622 11.2557C33.9134 11.7784 34.348 12.4574 34.6662 13.2926C34.9844 14.1222 35.1435 15.1307 35.1435 16.3182V17.2216H24.7372V15.3125H32.6463C32.6463 14.642 32.5099 14.0483 32.2372 13.5312C31.9645 13.0085 31.581 12.5966 31.0866 12.2955C30.598 11.9943 30.0241 11.8438 29.3651 11.8438C28.6491 11.8438 28.0241 12.0199 27.4901 12.3722C26.9616 12.7187 26.5526 13.1733 26.2628 13.7358C25.9787 14.2926 25.8366 14.8977 25.8366 15.5511V17.0426C25.8366 17.9176 25.9901 18.6619 26.2969 19.2756C26.6094 19.8892 27.044 20.358 27.6009 20.6818C28.1577 21 28.8082 21.1591 29.5526 21.1591C30.0355 21.1591 30.4759 21.0909 30.8736 20.9545C31.2713 20.8125 31.6151 20.6023 31.9048 20.3239C32.1946 20.0455 32.4162 19.7017 32.5696 19.2926L34.9815 19.7273C34.7884 20.4375 34.4418 21.0597 33.9418 21.5938C33.4474 22.1222 32.8253 22.5341 32.0753 22.8295C31.331 23.1193 30.4815 23.2642 29.527 23.2642ZM47.1605 23L43.3082 9.90909H45.9418L48.5071 19.5227H48.6349L51.2088 9.90909H53.8423L56.3991 19.4801H56.527L59.0753 9.90909H61.7088L57.8651 23H55.2656L52.6065 13.5483H52.4105L49.7514 23H47.1605ZM64.1271 23V9.90909H66.6754V23H64.1271ZM65.4141 7.8892C64.9709 7.8892 64.5902 7.74148 64.272 7.44602C63.9595 7.14489 63.8033 6.78693 63.8033 6.37216C63.8033 5.9517 63.9595 5.59375 64.272 5.29829C64.5902 4.99716 64.9709 4.84659 65.4141 4.84659C65.8572 4.84659 66.2351 4.99716 66.5476 5.29829C66.8658 5.59375 67.0249 5.9517 67.0249 6.37216C67.0249 6.78693 66.8658 7.14489 66.5476 7.44602C66.2351 7.74148 65.8572 7.8892 65.4141 7.8892ZM72.652 5.54545V23H70.1037V5.54545H72.652ZM78.6286 5.54545V23H76.0803V5.54545H78.6286ZM90.9567 15.2273V23H88.4084V5.54545H90.9226V12.0398H91.0845C91.3913 11.3352 91.8601 10.7756 92.4908 10.3608C93.1214 9.94602 93.9453 9.73864 94.9624 9.73864C95.8601 9.73864 96.6442 9.9233 97.3146 10.2926C97.9908 10.6619 98.5135 11.2131 98.8828 11.946C99.2578 12.6733 99.4453 13.5824 99.4453 14.6733V23H96.897V14.9801C96.897 14.0199 96.6499 13.2756 96.1555 12.7472C95.6612 12.2131 94.9737 11.946 94.093 11.946C93.4908 11.946 92.951 12.0739 92.4737 12.3295C92.0021 12.5852 91.63 12.9602 91.3572 13.4545C91.0902 13.9432 90.9567 14.5341 90.9567 15.2273ZM108.488 23.2642C107.198 23.2642 106.087 22.9886 105.156 22.4375C104.229 21.8807 103.513 21.0994 103.008 20.0938C102.508 19.0824 102.258 17.8977 102.258 16.5398C102.258 15.1989 102.508 14.017 103.008 12.9943C103.513 11.9716 104.218 11.1733 105.121 10.5994C106.031 10.0256 107.093 9.73864 108.309 9.73864C109.048 9.73864 109.763 9.8608 110.457 10.1051C111.15 10.3494 111.772 10.733 112.323 11.2557C112.874 11.7784 113.309 12.4574 113.627 13.2926C113.945 14.1222 114.104 15.1307 114.104 16.3182V17.2216H103.698V15.3125H111.607C111.607 14.642 111.471 14.0483 111.198 13.5312C110.925 13.0085 110.542 12.5966 110.048 12.2955C109.559 11.9943 108.985 11.8438 108.326 11.8438C107.61 11.8438 106.985 12.0199 106.451 12.3722C105.923 12.7187 105.513 13.1733 105.224 13.7358C104.94 14.2926 104.798 14.8977 104.798 15.5511V17.0426C104.798 17.9176 104.951 18.6619 105.258 19.2756C105.57 19.8892 106.005 20.358 106.562 20.6818C107.119 21 107.769 21.1591 108.513 21.1591C108.996 21.1591 109.437 21.0909 109.835 20.9545C110.232 20.8125 110.576 20.6023 110.866 20.3239C111.156 20.0455 111.377 19.7017 111.531 19.2926L113.942 19.7273C113.749 20.4375 113.403 21.0597 112.903 21.5938C112.408 22.1222 111.786 22.5341 111.036 22.8295C110.292 23.1193 109.442 23.2642 108.488 23.2642ZM119.48 5.54545V23H116.932V5.54545H119.48ZM122.908 27.9091V9.90909H125.397V12.0312H125.61C125.758 11.7585 125.971 11.4432 126.249 11.0852C126.528 10.7273 126.914 10.4148 127.408 10.1477C127.903 9.875 128.556 9.73864 129.369 9.73864C130.425 9.73864 131.369 10.0057 132.198 10.5398C133.028 11.0739 133.678 11.8437 134.15 12.8494C134.627 13.8551 134.866 15.0653 134.866 16.4801C134.866 17.8949 134.63 19.108 134.158 20.1193C133.687 21.125 133.039 21.9006 132.215 22.446C131.391 22.9858 130.451 23.2557 129.394 23.2557C128.599 23.2557 127.948 23.1222 127.442 22.8551C126.942 22.5881 126.55 22.2756 126.266 21.9176C125.982 21.5597 125.763 21.2415 125.61 20.9631H125.457V27.9091H122.908ZM125.406 16.4545C125.406 17.375 125.539 18.1818 125.806 18.875C126.073 19.5682 126.46 20.1108 126.965 20.5028C127.471 20.8892 128.09 21.0824 128.823 21.0824C129.585 21.0824 130.221 20.8807 130.732 20.4773C131.244 20.0682 131.63 19.5142 131.891 18.8153C132.158 18.1165 132.292 17.3295 132.292 16.4545C132.292 15.5909 132.161 14.8153 131.9 14.1278C131.644 13.4403 131.258 12.8977 130.741 12.5C130.229 12.1023 129.59 11.9034 128.823 11.9034C128.085 11.9034 127.46 12.0937 126.948 12.4744C126.442 12.8551 126.059 13.3864 125.798 14.0682C125.536 14.75 125.406 15.5455 125.406 16.4545ZM145.683 27.9091C145.303 27.9091 144.956 27.8778 144.643 27.8153C144.331 27.7585 144.098 27.696 143.945 27.6278L144.558 25.5398C145.024 25.6648 145.439 25.7188 145.803 25.7017C146.166 25.6847 146.487 25.5483 146.766 25.2926C147.05 25.0369 147.3 24.6193 147.516 24.0398L147.831 23.1705L143.041 9.90909H145.768L149.084 20.0682H149.22L152.536 9.90909H155.271L149.876 24.7472C149.626 25.429 149.308 26.0057 148.922 26.4773C148.536 26.9545 148.075 27.3125 147.541 27.5511C147.007 27.7898 146.388 27.9091 145.683 27.9091ZM162.735 23.2642C161.508 23.2642 160.437 22.983 159.522 22.4205C158.607 21.858 157.897 21.071 157.391 20.0597C156.886 19.0483 156.633 17.8665 156.633 16.5142C156.633 15.1562 156.886 13.9687 157.391 12.9517C157.897 11.9347 158.607 11.1449 159.522 10.5824C160.437 10.0199 161.508 9.73864 162.735 9.73864C163.962 9.73864 165.033 10.0199 165.948 10.5824C166.863 11.1449 167.573 11.9347 168.079 12.9517C168.585 13.9687 168.837 15.1562 168.837 16.5142C168.837 17.8665 168.585 19.0483 168.079 20.0597C167.573 21.071 166.863 21.858 165.948 22.4205C165.033 22.983 163.962 23.2642 162.735 23.2642ZM162.744 21.125C163.539 21.125 164.198 20.9148 164.721 20.4943C165.244 20.0739 165.63 19.5142 165.88 18.8153C166.136 18.1165 166.263 17.3466 166.263 16.5057C166.263 15.6705 166.136 14.9034 165.88 14.2045C165.63 13.5 165.244 12.9347 164.721 12.5085C164.198 12.0824 163.539 11.8693 162.744 11.8693C161.942 11.8693 161.278 12.0824 160.749 12.5085C160.227 12.9347 159.837 13.5 159.582 14.2045C159.332 14.9034 159.207 15.6705 159.207 16.5057C159.207 17.3466 159.332 18.1165 159.582 18.8153C159.837 19.5142 160.227 20.0739 160.749 20.4943C161.278 20.9148 161.942 21.125 162.744 21.125ZM179.974 17.571V9.90909H182.531V23H180.026V20.733H179.889C179.588 21.4318 179.105 22.0142 178.44 22.4801C177.781 22.9403 176.96 23.1705 175.977 23.1705C175.136 23.1705 174.392 22.9858 173.744 22.6165C173.102 22.2415 172.597 21.6875 172.227 20.9545C171.864 20.2216 171.682 19.3153 171.682 18.2358V9.90909H174.23V17.929C174.23 18.821 174.477 19.5312 174.972 20.0597C175.466 20.5881 176.108 20.8523 176.898 20.8523C177.375 20.8523 177.849 20.733 178.321 20.4943C178.798 20.2557 179.193 19.8949 179.506 19.4119C179.824 18.929 179.98 18.3153 179.974 17.571ZM195.145 23L191.293 9.90909H193.926L196.491 19.5227H196.619L199.193 9.90909H201.827L204.384 19.4801H204.511L207.06 9.90909H209.693L205.849 23H203.25L200.591 13.5483H200.395L197.736 23H195.145ZM212.112 23V9.90909H214.66V23H212.112ZM213.398 7.8892C212.955 7.8892 212.575 7.74148 212.256 7.44602C211.944 7.14489 211.788 6.78693 211.788 6.37216C211.788 5.9517 211.944 5.59375 212.256 5.29829C212.575 4.99716 212.955 4.84659 213.398 4.84659C213.842 4.84659 214.219 4.99716 214.532 5.29829C214.85 5.59375 215.009 5.9517 215.009 6.37216C215.009 6.78693 214.85 7.14489 214.532 7.44602C214.219 7.74148 213.842 7.8892 213.398 7.8892ZM224.199 9.90909V11.9545H217.048V9.90909H224.199ZM218.966 6.77273H221.514V19.1562C221.514 19.6506 221.588 20.0227 221.736 20.2727C221.884 20.517 222.074 20.6847 222.307 20.7756C222.545 20.8608 222.804 20.9034 223.082 20.9034C223.287 20.9034 223.466 20.8892 223.619 20.8608C223.773 20.8324 223.892 20.8097 223.977 20.7926L224.438 22.8977C224.29 22.9545 224.08 23.0114 223.807 23.0682C223.534 23.1307 223.193 23.1648 222.784 23.1705C222.114 23.1818 221.489 23.0625 220.909 22.8125C220.33 22.5625 219.861 22.1761 219.503 21.6534C219.145 21.1307 218.966 20.4744 218.966 19.6847V6.77273ZM229.847 15.2273V23H227.299V5.54545H229.813V12.0398H229.975C230.282 11.3352 230.751 10.7756 231.381 10.3608C232.012 9.94602 232.836 9.73864 233.853 9.73864C234.751 9.73864 235.535 9.9233 236.205 10.2926C236.881 10.6619 237.404 11.2131 237.773 11.946C238.148 12.6733 238.336 13.5824 238.336 14.6733V23H235.788V14.9801C235.788 14.0199 235.54 13.2756 235.046 12.7472C234.552 12.2131 233.864 11.946 232.984 11.946C232.381 11.946 231.842 12.0739 231.364 12.3295C230.893 12.5852 230.521 12.9602 230.248 13.4545C229.981 13.9432 229.847 14.5341 229.847 15.2273ZM254.199 9.90909V11.9545H247.048V9.90909H254.199ZM248.966 6.77273H251.514V19.1562C251.514 19.6506 251.588 20.0227 251.736 20.2727C251.884 20.517 252.074 20.6847 252.307 20.7756C252.545 20.8608 252.804 20.9034 253.082 20.9034C253.287 20.9034 253.466 20.8892 253.619 20.8608C253.773 20.8324 253.892 20.8097 253.977 20.7926L254.438 22.8977C254.29 22.9545 254.08 23.0114 253.807 23.0682C253.534 23.1307 253.193 23.1648 252.784 23.1705C252.114 23.1818 251.489 23.0625 250.909 22.8125C250.33 22.5625 249.861 22.1761 249.503 21.6534C249.145 21.1307 248.966 20.4744 248.966 19.6847V6.77273ZM259.847 15.2273V23H257.299V5.54545H259.813V12.0398H259.975C260.282 11.3352 260.751 10.7756 261.381 10.3608C262.012 9.94602 262.836 9.73864 263.853 9.73864C264.751 9.73864 265.535 9.9233 266.205 10.2926C266.881 10.6619 267.404 11.2131 267.773 11.946C268.148 12.6733 268.336 13.5824 268.336 14.6733V23H265.788V14.9801C265.788 14.0199 265.54 13.2756 265.046 12.7472C264.552 12.2131 263.864 11.946 262.984 11.946C262.381 11.946 261.842 12.0739 261.364 12.3295C260.893 12.5852 260.521 12.9602 260.248 13.4545C259.981 13.9432 259.847 14.5341 259.847 15.2273ZM277.379 23.2642C276.089 23.2642 274.978 22.9886 274.046 22.4375C273.12 21.8807 272.404 21.0994 271.898 20.0938C271.398 19.0824 271.148 17.8977 271.148 16.5398C271.148 15.1989 271.398 14.017 271.898 12.9943C272.404 11.9716 273.109 11.1733 274.012 10.5994C274.921 10.0256 275.984 9.73864 277.2 9.73864C277.938 9.73864 278.654 9.8608 279.347 10.1051C280.04 10.3494 280.663 10.733 281.214 11.2557C281.765 11.7784 282.2 12.4574 282.518 13.2926C282.836 14.1222 282.995 15.1307 282.995 16.3182V17.2216H272.589V15.3125H280.498C280.498 14.642 280.362 14.0483 280.089 13.5312C279.816 13.0085 279.433 12.5966 278.938 12.2955C278.45 11.9943 277.876 11.8438 277.217 11.8438C276.501 11.8438 275.876 12.0199 275.342 12.3722C274.813 12.7187 274.404 13.1733 274.114 13.7358C273.83 14.2926 273.688 14.8977 273.688 15.5511V17.0426C273.688 17.9176 273.842 18.6619 274.148 19.2756C274.461 19.8892 274.896 20.358 275.452 20.6818C276.009 21 276.66 21.1591 277.404 21.1591C277.887 21.1591 278.327 21.0909 278.725 20.9545C279.123 20.8125 279.467 20.6023 279.756 20.3239C280.046 20.0455 280.268 19.7017 280.421 19.2926L282.833 19.7273C282.64 20.4375 282.293 21.0597 281.793 21.5938C281.299 22.1222 280.677 22.5341 279.927 22.8295C279.183 23.1193 278.333 23.2642 277.379 23.2642ZM1.71307 56.9091V38.9091H4.2017V41.0312H4.41477C4.5625 40.7585 4.77557 40.4432 5.05398 40.0852C5.33239 39.7273 5.71875 39.4148 6.21307 39.1477C6.70739 38.875 7.3608 38.7386 8.1733 38.7386C9.23011 38.7386 10.1733 39.0057 11.0028 39.5398C11.8324 40.0739 12.483 40.8437 12.9545 41.8494C13.4318 42.8551 13.6705 44.0653 13.6705 45.4801C13.6705 46.8949 13.4347 48.108 12.9631 49.1193C12.4915 50.125 11.8438 50.9006 11.0199 51.446C10.196 51.9858 9.25568 52.2557 8.19886 52.2557C7.40341 52.2557 6.75284 52.1222 6.24716 51.8551C5.74716 51.5881 5.35511 51.2756 5.07102 50.9176C4.78693 50.5597 4.56818 50.2415 4.41477 49.9631H4.26136V56.9091H1.71307ZM4.21023 45.4545C4.21023 46.375 4.34375 47.1818 4.6108 47.875C4.87784 48.5682 5.2642 49.1108 5.76989 49.5028C6.27557 49.8892 6.89489 50.0824 7.62784 50.0824C8.3892 50.0824 9.02557 49.8807 9.53693 49.4773C10.0483 49.0682 10.4347 48.5142 10.696 47.8153C10.9631 47.1165 11.0966 46.3295 11.0966 45.4545C11.0966 44.5909 10.9659 43.8153 10.7045 43.1278C10.4489 42.4403 10.0625 41.8977 9.54545 41.5C9.03409 41.1023 8.39489 40.9034 7.62784 40.9034C6.8892 40.9034 6.2642 41.0937 5.75284 41.4744C5.24716 41.8551 4.86364 42.3864 4.60227 43.0682C4.34091 43.75 4.21023 44.5455 4.21023 45.4545ZM16.5256 52V38.9091H18.9886V40.9886H19.125C19.3636 40.2841 19.7841 39.7301 20.3864 39.3267C20.9943 38.9176 21.6818 38.7131 22.4489 38.7131C22.608 38.7131 22.7955 38.7187 23.0114 38.7301C23.233 38.7415 23.4062 38.7557 23.5312 38.7727V41.2102C23.429 41.1818 23.2472 41.1506 22.9858 41.1165C22.7244 41.0767 22.4631 41.0568 22.2017 41.0568C21.5994 41.0568 21.0625 41.1847 20.5909 41.4403C20.125 41.6903 19.7557 42.0398 19.483 42.4886C19.2102 42.9318 19.0739 43.4375 19.0739 44.0057V52H16.5256ZM30.782 52.2642C29.5547 52.2642 28.4837 51.983 27.5689 51.4205C26.6541 50.858 25.9439 50.071 25.4382 49.0597C24.9325 48.0483 24.6797 46.8665 24.6797 45.5142C24.6797 44.1562 24.9325 42.9687 25.4382 41.9517C25.9439 40.9347 26.6541 40.1449 27.5689 39.5824C28.4837 39.0199 29.5547 38.7386 30.782 38.7386C32.0092 38.7386 33.0803 39.0199 33.995 39.5824C34.9098 40.1449 35.62 40.9347 36.1257 41.9517C36.6314 42.9687 36.8842 44.1562 36.8842 45.5142C36.8842 46.8665 36.6314 48.0483 36.1257 49.0597C35.62 50.071 34.9098 50.858 33.995 51.4205C33.0803 51.983 32.0092 52.2642 30.782 52.2642ZM30.7905 50.125C31.5859 50.125 32.245 49.9148 32.7678 49.4943C33.2905 49.0739 33.6768 48.5142 33.9268 47.8153C34.1825 47.1165 34.3104 46.3466 34.3104 45.5057C34.3104 44.6705 34.1825 43.9034 33.9268 43.2045C33.6768 42.5 33.2905 41.9347 32.7678 41.5085C32.245 41.0824 31.5859 40.8693 30.7905 40.8693C29.9893 40.8693 29.3246 41.0824 28.7962 41.5085C28.2734 41.9347 27.8842 42.5 27.6286 43.2045C27.3786 43.9034 27.2536 44.6705 27.2536 45.5057C27.2536 46.3466 27.3786 47.1165 27.6286 47.8153C27.8842 48.5142 28.2734 49.0739 28.7962 49.4943C29.3246 49.9148 29.9893 50.125 30.7905 50.125ZM45.9588 38.9091V40.9545H38.5611V38.9091H45.9588ZM40.5895 52V37.392C40.5895 36.5739 40.7685 35.8949 41.1264 35.3551C41.4844 34.8097 41.9588 34.4034 42.5497 34.1364C43.1406 33.8636 43.7827 33.7273 44.4759 33.7273C44.9872 33.7273 45.4247 33.7699 45.7884 33.8551C46.152 33.9347 46.4219 34.0085 46.598 34.0767L46.0014 36.1392C45.8821 36.1051 45.7287 36.0653 45.5412 36.0199C45.3537 35.9687 45.1264 35.9432 44.8594 35.9432C44.2401 35.9432 43.7969 36.0966 43.5298 36.4034C43.2685 36.7102 43.1378 37.1534 43.1378 37.733V52H40.5895ZM53.7145 52.2642C52.4247 52.2642 51.3139 51.9886 50.3821 51.4375C49.456 50.8807 48.7401 50.0994 48.2344 49.0938C47.7344 48.0824 47.4844 46.8977 47.4844 45.5398C47.4844 44.1989 47.7344 43.017 48.2344 41.9943C48.7401 40.9716 49.4446 40.1733 50.348 39.5994C51.2571 39.0256 52.3196 38.7386 53.5355 38.7386C54.2741 38.7386 54.9901 38.8608 55.6832 39.1051C56.3764 39.3494 56.9986 39.733 57.5497 40.2557C58.1009 40.7784 58.5355 41.4574 58.8537 42.2926C59.1719 43.1222 59.331 44.1307 59.331 45.3182V46.2216H48.9247V44.3125H56.8338C56.8338 43.642 56.6974 43.0483 56.4247 42.5312C56.152 42.0085 55.7685 41.5966 55.2741 41.2955C54.7855 40.9943 54.2116 40.8438 53.5526 40.8438C52.8366 40.8438 52.2116 41.0199 51.6776 41.3722C51.1491 41.7187 50.7401 42.1733 50.4503 42.7358C50.1662 43.2926 50.0241 43.8977 50.0241 44.5511V46.0426C50.0241 46.9176 50.1776 47.6619 50.4844 48.2756C50.7969 48.8892 51.2315 49.358 51.7884 49.6818C52.3452 50 52.9957 50.1591 53.7401 50.1591C54.223 50.1591 54.6634 50.0909 55.0611 49.9545C55.4588 49.8125 55.8026 49.6023 56.0923 49.3239C56.3821 49.0455 56.6037 48.7017 56.7571 48.2926L59.169 48.7273C58.9759 49.4375 58.6293 50.0597 58.1293 50.5938C57.6349 51.1222 57.0128 51.5341 56.2628 51.8295C55.5185 52.1193 54.669 52.2642 53.7145 52.2642ZM71.968 42.1051L69.6584 42.5142C69.5618 42.2187 69.4084 41.9375 69.1982 41.6705C68.9936 41.4034 68.7152 41.1847 68.3629 41.0142C68.0107 40.8437 67.5703 40.7585 67.0419 40.7585C66.3203 40.7585 65.718 40.9205 65.2351 41.2443C64.7521 41.5625 64.5107 41.9744 64.5107 42.4801C64.5107 42.9176 64.6726 43.2699 64.9964 43.5369C65.3203 43.804 65.843 44.0227 66.5646 44.1932L68.6442 44.6705C69.8487 44.9489 70.7464 45.3778 71.3374 45.9574C71.9283 46.5369 72.2237 47.2898 72.2237 48.2159C72.2237 49 71.9964 49.6989 71.5419 50.3125C71.093 50.9205 70.4652 51.3977 69.6584 51.7443C68.8572 52.0909 67.9283 52.2642 66.8714 52.2642C65.4055 52.2642 64.2095 51.9517 63.2834 51.3267C62.3572 50.696 61.7891 49.8011 61.5788 48.642L64.0419 48.267C64.1953 48.9091 64.5107 49.3949 64.9879 49.7244C65.4652 50.0483 66.0874 50.2102 66.8544 50.2102C67.6896 50.2102 68.3572 50.0369 68.8572 49.6903C69.3572 49.3381 69.6072 48.9091 69.6072 48.4034C69.6072 47.9943 69.4538 47.6506 69.147 47.3722C68.8459 47.0937 68.3828 46.8835 67.7578 46.7415L65.5419 46.2557C64.3203 45.9773 63.4169 45.5341 62.8317 44.9261C62.2521 44.3182 61.9624 43.5483 61.9624 42.6165C61.9624 41.8437 62.1783 41.1676 62.6101 40.5881C63.0419 40.0085 63.6385 39.5568 64.3999 39.233C65.1612 38.9034 66.0334 38.7386 67.0163 38.7386C68.4311 38.7386 69.5447 39.0455 70.3572 39.6591C71.1697 40.267 71.7067 41.0824 71.968 42.1051ZM84.8352 42.1051L82.5256 42.5142C82.429 42.2187 82.2756 41.9375 82.0653 41.6705C81.8608 41.4034 81.5824 41.1847 81.2301 41.0142C80.8778 40.8437 80.4375 40.7585 79.9091 40.7585C79.1875 40.7585 78.5852 40.9205 78.1023 41.2443C77.6193 41.5625 77.3778 41.9744 77.3778 42.4801C77.3778 42.9176 77.5398 43.2699 77.8636 43.5369C78.1875 43.804 78.7102 44.0227 79.4318 44.1932L81.5114 44.6705C82.7159 44.9489 83.6136 45.3778 84.2045 45.9574C84.7955 46.5369 85.0909 47.2898 85.0909 48.2159C85.0909 49 84.8636 49.6989 84.4091 50.3125C83.9602 50.9205 83.3324 51.3977 82.5256 51.7443C81.7244 52.0909 80.7955 52.2642 79.7386 52.2642C78.2727 52.2642 77.0767 51.9517 76.1506 51.3267C75.2244 50.696 74.6563 49.8011 74.446 48.642L76.9091 48.267C77.0625 48.9091 77.3778 49.3949 77.8551 49.7244C78.3324 50.0483 78.9545 50.2102 79.7216 50.2102C80.5568 50.2102 81.2244 50.0369 81.7244 49.6903C82.2244 49.3381 82.4744 48.9091 82.4744 48.4034C82.4744 47.9943 82.321 47.6506 82.0142 47.3722C81.7131 47.0937 81.25 46.8835 80.625 46.7415L78.4091 46.2557C77.1875 45.9773 76.2841 45.5341 75.6989 44.9261C75.1193 44.3182 74.8295 43.5483 74.8295 42.6165C74.8295 41.8437 75.0455 41.1676 75.4773 40.5881C75.9091 40.0085 76.5057 39.5568 77.267 39.233C78.0284 38.9034 78.9006 38.7386 79.8835 38.7386C81.2983 38.7386 82.4119 39.0455 83.2244 39.6591C84.0369 40.267 84.5739 41.0824 84.8352 42.1051ZM87.8928 52V38.9091H90.4411V52H87.8928ZM89.1797 36.8892C88.7365 36.8892 88.3558 36.7415 88.0376 36.446C87.7251 36.1449 87.5689 35.7869 87.5689 35.3722C87.5689 34.9517 87.7251 34.5937 88.0376 34.2983C88.3558 33.9972 88.7365 33.8466 89.1797 33.8466C89.6229 33.8466 90.0007 33.9972 90.3132 34.2983C90.6314 34.5937 90.7905 34.9517 90.7905 35.3722C90.7905 35.7869 90.6314 36.1449 90.3132 36.446C90.0007 36.7415 89.6229 36.8892 89.1797 36.8892ZM99.3835 52.2642C98.1563 52.2642 97.0852 51.983 96.1705 51.4205C95.2557 50.858 94.5455 50.071 94.0398 49.0597C93.5341 48.0483 93.2812 46.8665 93.2812 45.5142C93.2812 44.1562 93.5341 42.9687 94.0398 41.9517C94.5455 40.9347 95.2557 40.1449 96.1705 39.5824C97.0852 39.0199 98.1563 38.7386 99.3835 38.7386C100.611 38.7386 101.682 39.0199 102.597 39.5824C103.511 40.1449 104.222 40.9347 104.727 41.9517C105.233 42.9687 105.486 44.1562 105.486 45.5142C105.486 46.8665 105.233 48.0483 104.727 49.0597C104.222 50.071 103.511 50.858 102.597 51.4205C101.682 51.983 100.611 52.2642 99.3835 52.2642ZM99.392 50.125C100.188 50.125 100.847 49.9148 101.369 49.4943C101.892 49.0739 102.278 48.5142 102.528 47.8153C102.784 47.1165 102.912 46.3466 102.912 45.5057C102.912 44.6705 102.784 43.9034 102.528 43.2045C102.278 42.5 101.892 41.9347 101.369 41.5085C100.847 41.0824 100.188 40.8693 99.392 40.8693C98.5909 40.8693 97.9261 41.0824 97.3977 41.5085C96.875 41.9347 96.4858 42.5 96.2301 43.2045C95.9801 43.9034 95.8551 44.6705 95.8551 45.5057C95.8551 46.3466 95.9801 47.1165 96.2301 47.8153C96.4858 48.5142 96.875 49.0739 97.3977 49.4943C97.9261 49.9148 98.5909 50.125 99.392 50.125ZM110.879 44.2273V52H108.33V38.9091H110.776V41.0398H110.938C111.239 40.3466 111.711 39.7898 112.353 39.3693C113.001 38.9489 113.816 38.7386 114.799 38.7386C115.691 38.7386 116.472 38.9261 117.143 39.3011C117.813 39.6705 118.333 40.2216 118.702 40.9545C119.072 41.6875 119.256 42.5937 119.256 43.6733V52H116.708V43.9801C116.708 43.0312 116.461 42.2898 115.967 41.7557C115.472 41.2159 114.793 40.946 113.93 40.946C113.339 40.946 112.813 41.0739 112.353 41.3295C111.898 41.5852 111.538 41.9602 111.271 42.4545C111.009 42.9432 110.879 43.5341 110.879 44.2273ZM132.835 52.2898C132.006 52.2898 131.256 52.1364 130.585 51.8295C129.915 51.517 129.384 51.0653 128.991 50.4744C128.605 49.8835 128.412 49.1591 128.412 48.3011C128.412 47.5625 128.554 46.9545 128.838 46.4773C129.122 46 129.506 45.6222 129.989 45.3438C130.472 45.0653 131.011 44.8551 131.608 44.7131C132.205 44.571 132.813 44.4631 133.432 44.3892C134.216 44.2983 134.852 44.2244 135.341 44.1676C135.83 44.1051 136.185 44.0057 136.406 43.8693C136.628 43.733 136.739 43.5114 136.739 43.2045V43.1449C136.739 42.4006 136.528 41.8239 136.108 41.4148C135.693 41.0057 135.074 40.8011 134.25 40.8011C133.392 40.8011 132.716 40.9915 132.222 41.3722C131.733 41.7472 131.395 42.1648 131.207 42.625L128.812 42.0795C129.097 41.2841 129.511 40.642 130.057 40.1534C130.608 39.6591 131.241 39.3011 131.957 39.0795C132.673 38.8523 133.426 38.7386 134.216 38.7386C134.739 38.7386 135.293 38.8011 135.878 38.9261C136.469 39.0455 137.02 39.267 137.531 39.5909C138.048 39.9148 138.472 40.3778 138.801 40.9801C139.131 41.5767 139.295 42.3523 139.295 43.3068V52H136.807V50.2102H136.705C136.54 50.5398 136.293 50.8636 135.963 51.1818C135.634 51.5 135.21 51.7642 134.693 51.9744C134.176 52.1847 133.557 52.2898 132.835 52.2898ZM133.389 50.2443C134.094 50.2443 134.696 50.1051 135.196 49.8267C135.702 49.5483 136.085 49.1847 136.347 48.7358C136.614 48.2812 136.747 47.7955 136.747 47.2784V45.5909C136.656 45.6818 136.48 45.767 136.219 45.8466C135.963 45.9205 135.67 45.9858 135.341 46.0426C135.011 46.0937 134.69 46.142 134.378 46.1875C134.065 46.2273 133.804 46.2614 133.594 46.2898C133.099 46.3523 132.648 46.4574 132.239 46.6051C131.835 46.7528 131.511 46.9659 131.267 47.2443C131.028 47.517 130.909 47.8807 130.909 48.3352C130.909 48.9659 131.142 49.4432 131.608 49.767C132.074 50.0852 132.668 50.2443 133.389 50.2443ZM145.238 44.2273V52H142.69V38.9091H145.136V41.0398H145.298C145.599 40.3466 146.07 39.7898 146.712 39.3693C147.36 38.9489 148.175 38.7386 149.158 38.7386C150.05 38.7386 150.832 38.9261 151.502 39.3011C152.173 39.6705 152.692 40.2216 153.062 40.9545C153.431 41.6875 153.616 42.5937 153.616 43.6733V52H151.067V43.9801C151.067 43.0312 150.82 42.2898 150.326 41.7557C149.832 41.2159 149.153 40.946 148.289 40.946C147.698 40.946 147.173 41.0739 146.712 41.3295C146.258 41.5852 145.897 41.9602 145.63 42.4545C145.369 42.9432 145.238 43.5341 145.238 44.2273ZM161.934 52.2557C160.877 52.2557 159.934 51.9858 159.104 51.446C158.281 50.9006 157.633 50.125 157.161 49.1193C156.695 48.108 156.462 46.8949 156.462 45.4801C156.462 44.0653 156.698 42.8551 157.17 41.8494C157.647 40.8437 158.3 40.0739 159.13 39.5398C159.96 39.0057 160.9 38.7386 161.951 38.7386C162.763 38.7386 163.417 38.875 163.911 39.1477C164.411 39.4148 164.798 39.7273 165.07 40.0852C165.349 40.4432 165.565 40.7585 165.718 41.0312H165.871V34.5455H168.42V52H165.931V49.9631H165.718C165.565 50.2415 165.343 50.5597 165.053 50.9176C164.769 51.2756 164.377 51.5881 163.877 51.8551C163.377 52.1222 162.729 52.2557 161.934 52.2557ZM162.496 50.0824C163.229 50.0824 163.849 49.8892 164.354 49.5028C164.866 49.1108 165.252 48.5682 165.513 47.875C165.781 47.1818 165.914 46.375 165.914 45.4545C165.914 44.5455 165.783 43.75 165.522 43.0682C165.261 42.3864 164.877 41.8551 164.371 41.4744C163.866 41.0937 163.241 40.9034 162.496 40.9034C161.729 40.9034 161.09 41.1023 160.579 41.5C160.067 41.8977 159.681 42.4403 159.42 43.1278C159.164 43.8153 159.036 44.5909 159.036 45.4545C159.036 46.3295 159.167 47.1165 159.428 47.8153C159.69 48.5142 160.076 49.0682 160.587 49.4773C161.104 49.8807 161.741 50.0824 162.496 50.0824ZM183.897 57.1818C182.857 57.1818 181.962 57.0455 181.212 56.7727C180.468 56.5 179.86 56.1392 179.388 55.6903C178.917 55.2415 178.565 54.75 178.332 54.2159L180.522 53.3125C180.675 53.5625 180.88 53.8267 181.136 54.1051C181.397 54.3892 181.749 54.6307 182.192 54.8295C182.641 55.0284 183.218 55.1278 183.923 55.1278C184.888 55.1278 185.687 54.892 186.317 54.4205C186.948 53.9545 187.263 53.2102 187.263 52.1875V49.6136H187.102C186.948 49.892 186.727 50.2017 186.437 50.5426C186.153 50.8835 185.761 51.179 185.261 51.429C184.761 51.679 184.11 51.804 183.309 51.804C182.275 51.804 181.343 51.5625 180.513 51.0795C179.69 50.5909 179.036 49.8722 178.553 48.9233C178.076 47.9687 177.837 46.7955 177.837 45.4034C177.837 44.0114 178.073 42.8182 178.545 41.8239C179.022 40.8295 179.675 40.0682 180.505 39.5398C181.335 39.0057 182.275 38.7386 183.326 38.7386C184.138 38.7386 184.795 38.875 185.295 39.1477C185.795 39.4148 186.184 39.7273 186.462 40.0852C186.746 40.4432 186.965 40.7585 187.119 41.0312H187.306V38.9091H189.803V52.2898C189.803 53.4148 189.542 54.3381 189.019 55.0597C188.496 55.7813 187.789 56.3153 186.897 56.6619C186.011 57.0085 185.011 57.1818 183.897 57.1818ZM183.871 49.6903C184.604 49.6903 185.224 49.5199 185.729 49.179C186.241 48.8324 186.627 48.3381 186.888 47.696C187.156 47.0483 187.289 46.2727 187.289 45.3693C187.289 44.4886 187.158 43.7131 186.897 43.0426C186.636 42.3722 186.252 41.8494 185.746 41.4744C185.241 41.0937 184.616 40.9034 183.871 40.9034C183.104 40.9034 182.465 41.1023 181.954 41.5C181.442 41.892 181.056 42.4261 180.795 43.1023C180.539 43.7784 180.411 44.5341 180.411 45.3693C180.411 46.2273 180.542 46.9801 180.803 47.6278C181.065 48.2756 181.451 48.7812 181.962 49.1449C182.479 49.5085 183.116 49.6903 183.871 49.6903ZM193.221 52V38.9091H195.769V52H193.221ZM194.508 36.8892C194.065 36.8892 193.684 36.7415 193.366 36.446C193.053 36.1449 192.897 35.7869 192.897 35.3722C192.897 34.9517 193.053 34.5937 193.366 34.2983C193.684 33.9972 194.065 33.8466 194.508 33.8466C194.951 33.8466 195.329 33.9972 195.641 34.2983C195.96 34.5937 196.119 34.9517 196.119 35.3722C196.119 35.7869 195.96 36.1449 195.641 36.446C195.329 36.7415 194.951 36.8892 194.508 36.8892ZM210.396 38.9091L205.649 52H202.922L198.166 38.9091H200.902L204.217 48.983H204.354L207.661 38.9091H210.396ZM217.988 52.2642C216.698 52.2642 215.587 51.9886 214.656 51.4375C213.729 50.8807 213.013 50.0994 212.508 49.0938C212.008 48.0824 211.758 46.8977 211.758 45.5398C211.758 44.1989 212.008 43.017 212.508 41.9943C213.013 40.9716 213.718 40.1733 214.621 39.5994C215.531 39.0256 216.593 38.7386 217.809 38.7386C218.548 38.7386 219.263 38.8608 219.957 39.1051C220.65 39.3494 221.272 39.733 221.823 40.2557C222.374 40.7784 222.809 41.4574 223.127 42.2926C223.445 43.1222 223.604 44.1307 223.604 45.3182V46.2216H213.198V44.3125H221.107C221.107 43.642 220.971 43.0483 220.698 42.5312C220.425 42.0085 220.042 41.5966 219.548 41.2955C219.059 40.9943 218.485 40.8438 217.826 40.8438C217.11 40.8438 216.485 41.0199 215.951 41.3722C215.423 41.7187 215.013 42.1733 214.724 42.7358C214.44 43.2926 214.298 43.8977 214.298 44.5511V46.0426C214.298 46.9176 214.451 47.6619 214.758 48.2756C215.07 48.8892 215.505 49.358 216.062 49.6818C216.619 50 217.269 50.1591 218.013 50.1591C218.496 50.1591 218.937 50.0909 219.335 49.9545C219.732 49.8125 220.076 49.6023 220.366 49.3239C220.656 49.0455 220.877 48.7017 221.031 48.2926L223.442 48.7273C223.249 49.4375 222.903 50.0597 222.403 50.5938C221.908 51.1222 221.286 51.5341 220.536 51.8295C219.792 52.1193 218.942 52.2642 217.988 52.2642ZM234.394 56.9091C234.013 56.9091 233.667 56.8778 233.354 56.8153C233.042 56.7585 232.809 56.696 232.656 56.6278L233.269 54.5398C233.735 54.6648 234.15 54.7188 234.513 54.7017C234.877 54.6847 235.198 54.5483 235.477 54.2926C235.761 54.0369 236.011 53.6193 236.227 53.0398L236.542 52.1705L231.752 38.9091H234.479L237.795 49.0682H237.931L241.246 38.9091H243.982L238.587 53.7472C238.337 54.429 238.019 55.0057 237.633 55.4773C237.246 55.9545 236.786 56.3125 236.252 56.5511C235.718 56.7898 235.099 56.9091 234.394 56.9091ZM251.446 52.2642C250.219 52.2642 249.148 51.983 248.233 51.4205C247.318 50.858 246.608 50.071 246.102 49.0597C245.597 48.0483 245.344 46.8665 245.344 45.5142C245.344 44.1562 245.597 42.9687 246.102 41.9517C246.608 40.9347 247.318 40.1449 248.233 39.5824C249.148 39.0199 250.219 38.7386 251.446 38.7386C252.673 38.7386 253.744 39.0199 254.659 39.5824C255.574 40.1449 256.284 40.9347 256.79 41.9517C257.295 42.9687 257.548 44.1562 257.548 45.5142C257.548 46.8665 257.295 48.0483 256.79 49.0597C256.284 50.071 255.574 50.858 254.659 51.4205C253.744 51.983 252.673 52.2642 251.446 52.2642ZM251.455 50.125C252.25 50.125 252.909 49.9148 253.432 49.4943C253.955 49.0739 254.341 48.5142 254.591 47.8153C254.847 47.1165 254.974 46.3466 254.974 45.5057C254.974 44.6705 254.847 43.9034 254.591 43.2045C254.341 42.5 253.955 41.9347 253.432 41.5085C252.909 41.0824 252.25 40.8693 251.455 40.8693C250.653 40.8693 249.989 41.0824 249.46 41.5085C248.938 41.9347 248.548 42.5 248.293 43.2045C248.043 43.9034 247.918 44.6705 247.918 45.5057C247.918 46.3466 248.043 47.1165 248.293 47.8153C248.548 48.5142 248.938 49.0739 249.46 49.4943C249.989 49.9148 250.653 50.125 251.455 50.125ZM268.685 46.571V38.9091H271.242V52H268.737V49.733H268.6C268.299 50.4318 267.816 51.0142 267.151 51.4801C266.492 51.9403 265.671 52.1705 264.688 52.1705C263.847 52.1705 263.103 51.9858 262.455 51.6165C261.813 51.2415 261.308 50.6875 260.938 49.9545C260.575 49.2216 260.393 48.3153 260.393 47.2358V38.9091H262.941V46.929C262.941 47.821 263.188 48.5312 263.683 49.0597C264.177 49.5881 264.819 49.8523 265.609 49.8523C266.086 49.8523 266.56 49.733 267.032 49.4943C267.509 49.2557 267.904 48.8949 268.217 48.4119C268.535 47.929 268.691 47.3153 268.685 46.571ZM284.827 52.2898C283.998 52.2898 283.248 52.1364 282.577 51.8295C281.907 51.517 281.376 51.0653 280.984 50.4744C280.597 49.8835 280.404 49.1591 280.404 48.3011C280.404 47.5625 280.546 46.9545 280.83 46.4773C281.114 46 281.498 45.6222 281.981 45.3438C282.464 45.0653 283.004 44.8551 283.6 44.7131C284.197 44.571 284.805 44.4631 285.424 44.3892C286.208 44.2983 286.844 44.2244 287.333 44.1676C287.822 44.1051 288.177 44.0057 288.398 43.8693C288.62 43.733 288.731 43.5114 288.731 43.2045V43.1449C288.731 42.4006 288.521 41.8239 288.1 41.4148C287.685 41.0057 287.066 40.8011 286.242 40.8011C285.384 40.8011 284.708 40.9915 284.214 41.3722C283.725 41.7472 283.387 42.1648 283.2 42.625L280.805 42.0795C281.089 41.2841 281.504 40.642 282.049 40.1534C282.6 39.6591 283.234 39.3011 283.95 39.0795C284.665 38.8523 285.418 38.7386 286.208 38.7386C286.731 38.7386 287.285 38.8011 287.87 38.9261C288.461 39.0455 289.012 39.267 289.523 39.5909C290.04 39.9148 290.464 40.3778 290.793 40.9801C291.123 41.5767 291.288 42.3523 291.288 43.3068V52H288.799V50.2102H288.697C288.532 50.5398 288.285 50.8636 287.955 51.1818C287.626 51.5 287.202 51.7642 286.685 51.9744C286.168 52.1847 285.549 52.2898 284.827 52.2898ZM285.381 50.2443C286.086 50.2443 286.688 50.1051 287.188 49.8267C287.694 49.5483 288.077 49.1847 288.339 48.7358C288.606 48.2812 288.739 47.7955 288.739 47.2784V45.5909C288.648 45.6818 288.472 45.767 288.211 45.8466C287.955 45.9205 287.663 45.9858 287.333 46.0426C287.004 46.0937 286.683 46.142 286.37 46.1875C286.058 46.2273 285.796 46.2614 285.586 46.2898C285.092 46.3523 284.64 46.4574 284.231 46.6051C283.827 46.7528 283.504 46.9659 283.259 47.2443C283.021 47.517 282.901 47.8807 282.901 48.3352C282.901 48.9659 283.134 49.4432 283.6 49.767C284.066 50.0852 284.66 50.2443 285.381 50.2443ZM297.23 34.5455V52H294.682V34.5455H297.23ZM303.207 34.5455V52H300.658V34.5455H303.207ZM319.097 38.9091V40.9545H311.947V38.9091H319.097ZM313.864 35.7727H316.413V48.1562C316.413 48.6506 316.487 49.0227 316.634 49.2727C316.782 49.517 316.972 49.6847 317.205 49.7756C317.444 49.8608 317.702 49.9034 317.981 49.9034C318.185 49.9034 318.364 49.8892 318.518 49.8608C318.671 49.8324 318.79 49.8097 318.876 49.7926L319.336 51.8977C319.188 51.9545 318.978 52.0114 318.705 52.0682C318.433 52.1307 318.092 52.1648 317.683 52.1705C317.012 52.1818 316.387 52.0625 315.808 51.8125C315.228 51.5625 314.759 51.1761 314.401 50.6534C314.043 50.1307 313.864 49.4744 313.864 48.6847V35.7727ZM324.746 44.2273V52H322.197V34.5455H324.712V41.0398H324.874C325.18 40.3352 325.649 39.7756 326.28 39.3608C326.911 38.946 327.734 38.7386 328.751 38.7386C329.649 38.7386 330.433 38.9233 331.104 39.2926C331.78 39.6619 332.303 40.2131 332.672 40.946C333.047 41.6733 333.234 42.5824 333.234 43.6733V52H330.686V43.9801C330.686 43.0199 330.439 42.2756 329.945 41.7472C329.45 41.2131 328.763 40.946 327.882 40.946C327.28 40.946 326.74 41.0739 326.263 41.3295C325.791 41.5852 325.419 41.9602 325.146 42.4545C324.879 42.9432 324.746 43.5341 324.746 44.2273ZM342.277 52.2642C340.987 52.2642 339.876 51.9886 338.945 51.4375C338.018 50.8807 337.303 50.0994 336.797 49.0938C336.297 48.0824 336.047 46.8977 336.047 45.5398C336.047 44.1989 336.297 43.017 336.797 41.9943C337.303 40.9716 338.007 40.1733 338.911 39.5994C339.82 39.0256 340.882 38.7386 342.098 38.7386C342.837 38.7386 343.553 38.8608 344.246 39.1051C344.939 39.3494 345.561 39.733 346.112 40.2557C346.663 40.7784 347.098 41.4574 347.416 42.2926C347.734 43.1222 347.893 44.1307 347.893 45.3182V46.2216H337.487V44.3125H345.396C345.396 43.642 345.26 43.0483 344.987 42.5312C344.714 42.0085 344.331 41.5966 343.837 41.2955C343.348 40.9943 342.774 40.8438 342.115 40.8438C341.399 40.8438 340.774 41.0199 340.24 41.3722C339.712 41.7187 339.303 42.1733 339.013 42.7358C338.729 43.2926 338.587 43.8977 338.587 44.5511V46.0426C338.587 46.9176 338.74 47.6619 339.047 48.2756C339.359 48.8892 339.794 49.358 340.351 49.6818C340.908 50 341.558 50.1591 342.303 50.1591C342.786 50.1591 343.226 50.0909 343.624 49.9545C344.021 49.8125 344.365 49.6023 344.655 49.3239C344.945 49.0455 345.166 48.7017 345.32 48.2926L347.732 48.7273C347.538 49.4375 347.192 50.0597 346.692 50.5938C346.197 51.1222 345.575 51.5341 344.825 51.8295C344.081 52.1193 343.232 52.2642 342.277 52.2642ZM4.26136 73.2273V81H1.71307V67.9091H4.15909V70.0398H4.32102C4.62216 69.3466 5.09375 68.7898 5.7358 68.3693C6.38352 67.9489 7.19886 67.7386 8.18182 67.7386C9.07386 67.7386 9.85511 67.9261 10.5256 68.3011C11.196 68.6705 11.7159 69.2216 12.0852 69.9545C12.4545 70.6875 12.6392 71.5937 12.6392 72.6733V81H10.0909V72.9801C10.0909 72.0312 9.84375 71.2898 9.34943 70.7557C8.85511 70.2159 8.17614 69.946 7.3125 69.946C6.72159 69.946 6.19602 70.0739 5.7358 70.3295C5.28125 70.5852 4.92045 70.9602 4.65341 71.4545C4.39205 71.9432 4.26136 72.5341 4.26136 73.2273ZM21.6989 81.2642C20.4091 81.2642 19.2983 80.9886 18.3665 80.4375C17.4403 79.8807 16.7244 79.0994 16.2188 78.0938C15.7188 77.0824 15.4688 75.8977 15.4688 74.5398C15.4688 73.1989 15.7188 72.017 16.2188 70.9943C16.7244 69.9716 17.429 69.1733 18.3324 68.5994C19.2415 68.0256 20.304 67.7386 21.5199 67.7386C22.2585 67.7386 22.9744 67.8608 23.6676 68.1051C24.3608 68.3494 24.983 68.733 25.5341 69.2557C26.0852 69.7784 26.5199 70.4574 26.8381 71.2926C27.1563 72.1222 27.3153 73.1307 27.3153 74.3182V75.2216H16.9091V73.3125H24.8182C24.8182 72.642 24.6818 72.0483 24.4091 71.5312C24.1364 71.0085 23.7528 70.5966 23.2585 70.2955C22.7699 69.9943 22.196 69.8438 21.5369 69.8438C20.821 69.8438 20.196 70.0199 19.6619 70.3722C19.1335 70.7187 18.7244 71.1733 18.4347 71.7358C18.1506 72.2926 18.0085 72.8977 18.0085 73.5511V75.0426C18.0085 75.9176 18.1619 76.6619 18.4688 77.2756C18.7812 77.8892 19.2159 78.358 19.7727 78.6818C20.3295 79 20.9801 79.1591 21.7244 79.1591C22.2074 79.1591 22.6477 79.0909 23.0455 78.9545C23.4432 78.8125 23.7869 78.6023 24.0767 78.3239C24.3665 78.0455 24.5881 77.7017 24.7415 77.2926L27.1534 77.7273C26.9602 78.4375 26.6136 79.0597 26.1136 79.5938C25.6193 80.1222 24.9972 80.5341 24.2472 80.8295C23.5028 81.1193 22.6534 81.2642 21.6989 81.2642ZM35.657 81.2642C34.3899 81.2642 33.299 80.9773 32.3842 80.4034C31.4751 79.8239 30.7763 79.0256 30.2876 78.0085C29.799 76.9915 29.5547 75.8267 29.5547 74.5142C29.5547 73.1847 29.8047 72.0114 30.3047 70.9943C30.8047 69.9716 31.5092 69.1733 32.4183 68.5994C33.3274 68.0256 34.3984 67.7386 35.6314 67.7386C36.6257 67.7386 37.5121 67.9233 38.2905 68.2926C39.0689 68.6562 39.6967 69.1676 40.174 69.8267C40.657 70.4858 40.9439 71.2557 41.0348 72.1364H38.5547C38.4183 71.5227 38.1058 70.9943 37.6172 70.5511C37.1342 70.108 36.4865 69.8864 35.674 69.8864C34.9638 69.8864 34.3416 70.0739 33.8075 70.4489C33.2791 70.8182 32.8672 71.3466 32.5717 72.0341C32.2763 72.7159 32.1286 73.5227 32.1286 74.4545C32.1286 75.4091 32.2734 76.233 32.5632 76.9261C32.853 77.6193 33.2621 78.1562 33.7905 78.5369C34.3246 78.9176 34.9524 79.108 35.674 79.108C36.157 79.108 36.5945 79.0199 36.9865 78.8438C37.3842 78.6619 37.7166 78.4034 37.9837 78.0682C38.2564 77.733 38.4467 77.3295 38.5547 76.858H41.0348C40.9439 77.7045 40.6683 78.4602 40.2081 79.125C39.7479 79.7898 39.1314 80.3125 38.3587 80.6932C37.5916 81.0739 36.6911 81.2642 35.657 81.2642ZM49.402 81.2642C48.1122 81.2642 47.0014 80.9886 46.0696 80.4375C45.1435 79.8807 44.4276 79.0994 43.9219 78.0938C43.4219 77.0824 43.1719 75.8977 43.1719 74.5398C43.1719 73.1989 43.4219 72.017 43.9219 70.9943C44.4276 69.9716 45.1321 69.1733 46.0355 68.5994C46.9446 68.0256 48.0071 67.7386 49.223 67.7386C49.9616 67.7386 50.6776 67.8608 51.3707 68.1051C52.0639 68.3494 52.6861 68.733 53.2372 69.2557C53.7884 69.7784 54.223 70.4574 54.5412 71.2926C54.8594 72.1222 55.0185 73.1307 55.0185 74.3182V75.2216H44.6122V73.3125H52.5213C52.5213 72.642 52.3849 72.0483 52.1122 71.5312C51.8395 71.0085 51.456 70.5966 50.9616 70.2955C50.473 69.9943 49.8991 69.8438 49.2401 69.8438C48.5241 69.8438 47.8991 70.0199 47.3651 70.3722C46.8366 70.7187 46.4276 71.1733 46.1378 71.7358C45.8537 72.2926 45.7116 72.8977 45.7116 73.5511V75.0426C45.7116 75.9176 45.8651 76.6619 46.1719 77.2756C46.4844 77.8892 46.919 78.358 47.4759 78.6818C48.0327 79 48.6832 79.1591 49.4276 79.1591C49.9105 79.1591 50.3509 79.0909 50.7486 78.9545C51.1463 78.8125 51.4901 78.6023 51.7798 78.3239C52.0696 78.0455 52.2912 77.7017 52.4446 77.2926L54.8565 77.7273C54.6634 78.4375 54.3168 79.0597 53.8168 79.5938C53.3224 80.1222 52.7003 80.5341 51.9503 80.8295C51.206 81.1193 50.3565 81.2642 49.402 81.2642ZM67.6555 71.1051L65.3459 71.5142C65.2493 71.2187 65.0959 70.9375 64.8857 70.6705C64.6811 70.4034 64.4027 70.1847 64.0504 70.0142C63.6982 69.8437 63.2578 69.7585 62.7294 69.7585C62.0078 69.7585 61.4055 69.9205 60.9226 70.2443C60.4396 70.5625 60.1982 70.9744 60.1982 71.4801C60.1982 71.9176 60.3601 72.2699 60.6839 72.5369C61.0078 72.804 61.5305 73.0227 62.2521 73.1932L64.3317 73.6705C65.5362 73.9489 66.4339 74.3778 67.0249 74.9574C67.6158 75.5369 67.9112 76.2898 67.9112 77.2159C67.9112 78 67.6839 78.6989 67.2294 79.3125C66.7805 79.9205 66.1527 80.3977 65.3459 80.7443C64.5447 81.0909 63.6158 81.2642 62.5589 81.2642C61.093 81.2642 59.897 80.9517 58.9709 80.3267C58.0447 79.696 57.4766 78.8011 57.2663 77.642L59.7294 77.267C59.8828 77.9091 60.1982 78.3949 60.6754 78.7244C61.1527 79.0483 61.7749 79.2102 62.5419 79.2102C63.3771 79.2102 64.0447 79.0369 64.5447 78.6903C65.0447 78.3381 65.2947 77.9091 65.2947 77.4034C65.2947 76.9943 65.1413 76.6506 64.8345 76.3722C64.5334 76.0937 64.0703 75.8835 63.4453 75.7415L61.2294 75.2557C60.0078 74.9773 59.1044 74.5341 58.5192 73.9261C57.9396 73.3182 57.6499 72.5483 57.6499 71.6165C57.6499 70.8437 57.8658 70.1676 58.2976 69.5881C58.7294 69.0085 59.326 68.5568 60.0874 68.233C60.8487 67.9034 61.7209 67.7386 62.7038 67.7386C64.1186 67.7386 65.2322 68.0455 66.0447 68.6591C66.8572 69.267 67.3942 70.0824 67.6555 71.1051ZM80.5227 71.1051L78.2131 71.5142C78.1165 71.2187 77.9631 70.9375 77.7528 70.6705C77.5483 70.4034 77.2699 70.1847 76.9176 70.0142C76.5653 69.8437 76.125 69.7585 75.5966 69.7585C74.875 69.7585 74.2727 69.9205 73.7898 70.2443C73.3068 70.5625 73.0653 70.9744 73.0653 71.4801C73.0653 71.9176 73.2273 72.2699 73.5511 72.5369C73.875 72.804 74.3977 73.0227 75.1193 73.1932L77.1989 73.6705C78.4034 73.9489 79.3011 74.3778 79.892 74.9574C80.483 75.5369 80.7784 76.2898 80.7784 77.2159C80.7784 78 80.5511 78.6989 80.0966 79.3125C79.6477 79.9205 79.0199 80.3977 78.2131 80.7443C77.4119 81.0909 76.483 81.2642 75.4261 81.2642C73.9602 81.2642 72.7642 80.9517 71.8381 80.3267C70.9119 79.696 70.3438 78.8011 70.1335 77.642L72.5966 77.267C72.75 77.9091 73.0653 78.3949 73.5426 78.7244C74.0199 79.0483 74.642 79.2102 75.4091 79.2102C76.2443 79.2102 76.9119 79.0369 77.4119 78.6903C77.9119 78.3381 78.1619 77.9091 78.1619 77.4034C78.1619 76.9943 78.0085 76.6506 77.7017 76.3722C77.4006 76.0937 76.9375 75.8835 76.3125 75.7415L74.0966 75.2557C72.875 74.9773 71.9716 74.5341 71.3864 73.9261C70.8068 73.3182 70.517 72.5483 70.517 71.6165C70.517 70.8437 70.733 70.1676 71.1648 69.5881C71.5966 69.0085 72.1932 68.5568 72.9545 68.233C73.7159 67.9034 74.5881 67.7386 75.571 67.7386C76.9858 67.7386 78.0994 68.0455 78.9119 68.6591C79.7244 69.267 80.2614 70.0824 80.5227 71.1051ZM87.3899 81.2898C86.5604 81.2898 85.8104 81.1364 85.1399 80.8295C84.4695 80.517 83.9382 80.0653 83.5462 79.4744C83.1598 78.8835 82.9666 78.1591 82.9666 77.3011C82.9666 76.5625 83.1087 75.9545 83.3928 75.4773C83.6768 75 84.0604 74.6222 84.5433 74.3438C85.0263 74.0653 85.5661 73.8551 86.1626 73.7131C86.7592 73.571 87.3672 73.4631 87.9865 73.3892C88.7706 73.2983 89.407 73.2244 89.8956 73.1676C90.3842 73.1051 90.7393 73.0057 90.9609 72.8693C91.1825 72.733 91.2933 72.5114 91.2933 72.2045V72.1449C91.2933 71.4006 91.0831 70.8239 90.6626 70.4148C90.2479 70.0057 89.6286 69.8011 88.8047 69.8011C87.9467 69.8011 87.2706 69.9915 86.7763 70.3722C86.2876 70.7472 85.9496 71.1648 85.7621 71.625L83.3672 71.0795C83.6513 70.2841 84.0661 69.642 84.6115 69.1534C85.1626 68.6591 85.7962 68.3011 86.5121 68.0795C87.228 67.8523 87.9808 67.7386 88.7706 67.7386C89.2933 67.7386 89.8473 67.8011 90.4325 67.9261C91.0234 68.0455 91.5746 68.267 92.0859 68.5909C92.603 68.9148 93.0263 69.3778 93.3558 69.9801C93.6854 70.5767 93.8501 71.3523 93.8501 72.3068V81H91.3615V79.2102H91.2592C91.0945 79.5398 90.8473 79.8636 90.5178 80.1818C90.1882 80.5 89.7649 80.7642 89.2479 80.9744C88.7308 81.1847 88.1115 81.2898 87.3899 81.2898ZM87.9439 79.2443C88.6484 79.2443 89.2507 79.1051 89.7507 78.8267C90.2564 78.5483 90.6399 78.1847 90.9013 77.7358C91.1683 77.2812 91.3018 76.7955 91.3018 76.2784V74.5909C91.2109 74.6818 91.0348 74.767 90.7734 74.8466C90.5178 74.9205 90.2251 74.9858 89.8956 75.0426C89.5661 75.0937 89.245 75.142 88.9325 75.1875C88.62 75.2273 88.3587 75.2614 88.1484 75.2898C87.6541 75.3523 87.2024 75.4574 86.7933 75.6051C86.3899 75.7528 86.0661 75.9659 85.8217 76.2443C85.5831 76.517 85.4638 76.8807 85.4638 77.3352C85.4638 77.9659 85.6967 78.4432 86.1626 78.767C86.6286 79.0852 87.2223 79.2443 87.9439 79.2443ZM97.2443 81V67.9091H99.7074V69.9886H99.8438C100.082 69.2841 100.503 68.7301 101.105 68.3267C101.713 67.9176 102.401 67.7131 103.168 67.7131C103.327 67.7131 103.514 67.7187 103.73 67.7301C103.952 67.7415 104.125 67.7557 104.25 67.7727V70.2102C104.148 70.1818 103.966 70.1506 103.705 70.1165C103.443 70.0767 103.182 70.0568 102.92 70.0568C102.318 70.0568 101.781 70.1847 101.31 70.4403C100.844 70.6903 100.474 71.0398 100.202 71.4886C99.929 71.9318 99.7926 72.4375 99.7926 73.0057V81H97.2443ZM108.464 85.9091C108.084 85.9091 107.737 85.8778 107.425 85.8153C107.112 85.7585 106.879 85.696 106.726 85.6278L107.339 83.5398C107.805 83.6648 108.22 83.7188 108.584 83.7017C108.947 83.6847 109.268 83.5483 109.547 83.2926C109.831 83.0369 110.081 82.6193 110.297 82.0398L110.612 81.1705L105.822 67.9091H108.55L111.865 78.0682H112.001L115.317 67.9091H118.053L112.658 82.7472C112.408 83.429 112.089 84.0057 111.703 84.4773C111.317 84.9545 110.857 85.3125 110.322 85.5511C109.788 85.7898 109.169 85.9091 108.464 85.9091ZM136.609 71.1051L134.299 71.5142C134.202 71.2187 134.049 70.9375 133.839 70.6705C133.634 70.4034 133.356 70.1847 133.004 70.0142C132.651 69.8437 132.211 69.7585 131.683 69.7585C130.961 69.7585 130.359 69.9205 129.876 70.2443C129.393 70.5625 129.151 70.9744 129.151 71.4801C129.151 71.9176 129.313 72.2699 129.637 72.5369C129.961 72.804 130.484 73.0227 131.205 73.1932L133.285 73.6705C134.489 73.9489 135.387 74.3778 135.978 74.9574C136.569 75.5369 136.864 76.2898 136.864 77.2159C136.864 78 136.637 78.6989 136.183 79.3125C135.734 79.9205 135.106 80.3977 134.299 80.7443C133.498 81.0909 132.569 81.2642 131.512 81.2642C130.046 81.2642 128.85 80.9517 127.924 80.3267C126.998 79.696 126.43 78.8011 126.219 77.642L128.683 77.267C128.836 77.9091 129.151 78.3949 129.629 78.7244C130.106 79.0483 130.728 79.2102 131.495 79.2102C132.33 79.2102 132.998 79.0369 133.498 78.6903C133.998 78.3381 134.248 77.9091 134.248 77.4034C134.248 76.9943 134.094 76.6506 133.788 76.3722C133.487 76.0937 133.023 75.8835 132.398 75.7415L130.183 75.2557C128.961 74.9773 128.058 74.5341 127.472 73.9261C126.893 73.3182 126.603 72.5483 126.603 71.6165C126.603 70.8437 126.819 70.1676 127.251 69.5881C127.683 69.0085 128.279 68.5568 129.04 68.233C129.802 67.9034 130.674 67.7386 131.657 67.7386C133.072 67.7386 134.185 68.0455 134.998 68.6591C135.81 69.267 136.347 70.0824 136.609 71.1051ZM142.01 76.5597L141.993 73.4489H142.436L147.652 67.9091H150.703L144.754 74.2159H144.354L142.01 76.5597ZM139.666 81V63.5455H142.214V81H139.666ZM147.933 81L143.246 74.7784L145.001 72.9972L151.061 81H147.933ZM153.026 81V67.9091H155.574V81H153.026ZM154.312 65.8892C153.869 65.8892 153.489 65.7415 153.17 65.446C152.858 65.1449 152.702 64.7869 152.702 64.3722C152.702 63.9517 152.858 63.5937 153.17 63.2983C153.489 62.9972 153.869 62.8466 154.312 62.8466C154.756 62.8466 155.134 62.9972 155.446 63.2983C155.764 63.5937 155.923 63.9517 155.923 64.3722C155.923 64.7869 155.764 65.1449 155.446 65.446C155.134 65.7415 154.756 65.8892 154.312 65.8892ZM161.55 63.5455V81H159.002V63.5455H161.55ZM167.527 63.5455V81H164.979V63.5455H167.527ZM180.765 71.1051L178.455 71.5142C178.359 71.2187 178.205 70.9375 177.995 70.6705C177.79 70.4034 177.512 70.1847 177.16 70.0142C176.808 69.8437 176.367 69.7585 175.839 69.7585C175.117 69.7585 174.515 69.9205 174.032 70.2443C173.549 70.5625 173.308 70.9744 173.308 71.4801C173.308 71.9176 173.469 72.2699 173.793 72.5369C174.117 72.804 174.64 73.0227 175.362 73.1932L177.441 73.6705C178.646 73.9489 179.543 74.3778 180.134 74.9574C180.725 75.5369 181.021 76.2898 181.021 77.2159C181.021 78 180.793 78.6989 180.339 79.3125C179.89 79.9205 179.262 80.3977 178.455 80.7443C177.654 81.0909 176.725 81.2642 175.668 81.2642C174.202 81.2642 173.006 80.9517 172.08 80.3267C171.154 79.696 170.586 78.8011 170.376 77.642L172.839 77.267C172.992 77.9091 173.308 78.3949 173.785 78.7244C174.262 79.0483 174.884 79.2102 175.651 79.2102C176.487 79.2102 177.154 79.0369 177.654 78.6903C178.154 78.3381 178.404 77.9091 178.404 77.4034C178.404 76.9943 178.251 76.6506 177.944 76.3722C177.643 76.0937 177.18 75.8835 176.555 75.7415L174.339 75.2557C173.117 74.9773 172.214 74.5341 171.629 73.9261C171.049 73.3182 170.759 72.5483 170.759 71.6165C170.759 70.8437 170.975 70.1676 171.407 69.5881C171.839 69.0085 172.435 68.5568 173.197 68.233C173.958 67.9034 174.83 67.7386 175.813 67.7386C177.228 67.7386 178.342 68.0455 179.154 68.6591C179.967 69.267 180.504 70.0824 180.765 71.1051ZM196.404 67.9091V69.9545H189.006V67.9091H196.404ZM191.035 81V66.392C191.035 65.5739 191.214 64.8949 191.572 64.3551C191.93 63.8097 192.404 63.4034 192.995 63.1364C193.586 62.8636 194.228 62.7273 194.921 62.7273C195.433 62.7273 195.87 62.7699 196.234 62.8551C196.597 62.9347 196.867 63.0085 197.043 63.0767L196.447 65.1392C196.327 65.1051 196.174 65.0653 195.987 65.0199C195.799 64.9687 195.572 64.9432 195.305 64.9432C194.685 64.9432 194.242 65.0966 193.975 65.4034C193.714 65.7102 193.583 66.1534 193.583 66.733V81H191.035ZM204.032 81.2642C202.805 81.2642 201.734 80.983 200.819 80.4205C199.904 79.858 199.194 79.071 198.688 78.0597C198.183 77.0483 197.93 75.8665 197.93 74.5142C197.93 73.1562 198.183 71.9687 198.688 70.9517C199.194 69.9347 199.904 69.1449 200.819 68.5824C201.734 68.0199 202.805 67.7386 204.032 67.7386C205.259 67.7386 206.33 68.0199 207.245 68.5824C208.16 69.1449 208.87 69.9347 209.376 70.9517C209.881 71.9687 210.134 73.1562 210.134 74.5142C210.134 75.8665 209.881 77.0483 209.376 78.0597C208.87 79.071 208.16 79.858 207.245 80.4205C206.33 80.983 205.259 81.2642 204.032 81.2642ZM204.04 79.125C204.836 79.125 205.495 78.9148 206.018 78.4943C206.54 78.0739 206.927 77.5142 207.177 76.8153C207.433 76.1165 207.56 75.3466 207.56 74.5057C207.56 73.6705 207.433 72.9034 207.177 72.2045C206.927 71.5 206.54 70.9347 206.018 70.5085C205.495 70.0824 204.836 69.8693 204.04 69.8693C203.239 69.8693 202.575 70.0824 202.046 70.5085C201.523 70.9347 201.134 71.5 200.879 72.2045C200.629 72.9034 200.504 73.6705 200.504 74.5057C200.504 75.3466 200.629 76.1165 200.879 76.8153C201.134 77.5142 201.523 78.0739 202.046 78.4943C202.575 78.9148 203.239 79.125 204.04 79.125ZM212.979 81V67.9091H215.442V69.9886H215.578C215.817 69.2841 216.237 68.7301 216.839 68.3267C217.447 67.9176 218.135 67.7131 218.902 67.7131C219.061 67.7131 219.249 67.7187 219.464 67.7301C219.686 67.7415 219.859 67.7557 219.984 67.7727V70.2102C219.882 70.1818 219.7 70.1506 219.439 70.1165C219.178 70.0767 218.916 70.0568 218.655 70.0568C218.053 70.0568 217.516 70.1847 217.044 70.4403C216.578 70.6903 216.209 71.0398 215.936 71.4886C215.663 71.9318 215.527 72.4375 215.527 73.0057V81H212.979ZM234.652 67.9091V69.9545H227.501V67.9091H234.652ZM229.419 64.7727H231.967V77.1562C231.967 77.6506 232.041 78.0227 232.189 78.2727C232.337 78.517 232.527 78.6847 232.76 78.7756C232.999 78.8608 233.257 78.9034 233.536 78.9034C233.74 78.9034 233.919 78.8892 234.072 78.8608C234.226 78.8324 234.345 78.8097 234.43 78.7926L234.891 80.8977C234.743 80.9545 234.533 81.0114 234.26 81.0682C233.987 81.1307 233.646 81.1648 233.237 81.1705C232.567 81.1818 231.942 81.0625 231.362 80.8125C230.783 80.5625 230.314 80.1761 229.956 79.6534C229.598 79.1307 229.419 78.4744 229.419 77.6847V64.7727ZM242.844 81.2642C241.617 81.2642 240.546 80.983 239.631 80.4205C238.717 79.858 238.006 79.071 237.501 78.0597C236.995 77.0483 236.742 75.8665 236.742 74.5142C236.742 73.1562 236.995 71.9687 237.501 70.9517C238.006 69.9347 238.717 69.1449 239.631 68.5824C240.546 68.0199 241.617 67.7386 242.844 67.7386C244.072 67.7386 245.143 68.0199 246.058 68.5824C246.972 69.1449 247.683 69.9347 248.188 70.9517C248.694 71.9687 248.947 73.1562 248.947 74.5142C248.947 75.8665 248.694 77.0483 248.188 78.0597C247.683 79.071 246.972 79.858 246.058 80.4205C245.143 80.983 244.072 81.2642 242.844 81.2642ZM242.853 79.125C243.648 79.125 244.308 78.9148 244.83 78.4943C245.353 78.0739 245.739 77.5142 245.989 76.8153C246.245 76.1165 246.373 75.3466 246.373 74.5057C246.373 73.6705 246.245 72.9034 245.989 72.2045C245.739 71.5 245.353 70.9347 244.83 70.5085C244.308 70.0824 243.648 69.8693 242.853 69.8693C242.052 69.8693 241.387 70.0824 240.859 70.5085C240.336 70.9347 239.947 71.5 239.691 72.2045C239.441 72.9034 239.316 73.6705 239.316 74.5057C239.316 75.3466 239.441 76.1165 239.691 76.8153C239.947 77.5142 240.336 78.0739 240.859 78.4943C241.387 78.9148 242.052 79.125 242.853 79.125ZM256.692 81.2557C255.635 81.2557 254.692 80.9858 253.862 80.446C253.038 79.9006 252.391 79.125 251.919 78.1193C251.453 77.108 251.22 75.8949 251.22 74.4801C251.22 73.0653 251.456 71.8551 251.928 70.8494C252.405 69.8437 253.058 69.0739 253.888 68.5398C254.717 68.0057 255.658 67.7386 256.709 67.7386C257.521 67.7386 258.175 67.875 258.669 68.1477C259.169 68.4148 259.555 68.7273 259.828 69.0852C260.107 69.4432 260.322 69.7585 260.476 70.0312H260.629V63.5455H263.178V81H260.689V78.9631H260.476C260.322 79.2415 260.101 79.5597 259.811 79.9176C259.527 80.2756 259.135 80.5881 258.635 80.8551C258.135 81.1222 257.487 81.2557 256.692 81.2557ZM257.254 79.0824C257.987 79.0824 258.607 78.8892 259.112 78.5028C259.624 78.1108 260.01 77.5682 260.271 76.875C260.538 76.1818 260.672 75.375 260.672 74.4545C260.672 73.5455 260.541 72.75 260.28 72.0682C260.018 71.3864 259.635 70.8551 259.129 70.4744C258.624 70.0937 257.999 69.9034 257.254 69.9034C256.487 69.9034 255.848 70.1023 255.337 70.5C254.825 70.8977 254.439 71.4403 254.178 72.1278C253.922 72.8153 253.794 73.5909 253.794 74.4545C253.794 75.3295 253.925 76.1165 254.186 76.8153C254.447 77.5142 254.834 78.0682 255.345 78.4773C255.862 78.8807 256.499 79.0824 257.254 79.0824ZM270.624 81.2898C269.795 81.2898 269.045 81.1364 268.374 80.8295C267.704 80.517 267.173 80.0653 266.781 79.4744C266.394 78.8835 266.201 78.1591 266.201 77.3011C266.201 76.5625 266.343 75.9545 266.627 75.4773C266.911 75 267.295 74.6222 267.778 74.3438C268.261 74.0653 268.8 73.8551 269.397 73.7131C269.994 73.571 270.602 73.4631 271.221 73.3892C272.005 73.2983 272.641 73.2244 273.13 73.1676C273.619 73.1051 273.974 73.0057 274.195 72.8693C274.417 72.733 274.528 72.5114 274.528 72.2045V72.1449C274.528 71.4006 274.317 70.8239 273.897 70.4148C273.482 70.0057 272.863 69.8011 272.039 69.8011C271.181 69.8011 270.505 69.9915 270.011 70.3722C269.522 70.7472 269.184 71.1648 268.996 71.625L266.602 71.0795C266.886 70.2841 267.3 69.642 267.846 69.1534C268.397 68.6591 269.031 68.3011 269.746 68.0795C270.462 67.8523 271.215 67.7386 272.005 67.7386C272.528 67.7386 273.082 67.8011 273.667 67.9261C274.258 68.0455 274.809 68.267 275.32 68.5909C275.837 68.9148 276.261 69.3778 276.59 69.9801C276.92 70.5767 277.085 71.3523 277.085 72.3068V81H274.596V79.2102H274.494C274.329 79.5398 274.082 79.8636 273.752 80.1818C273.423 80.5 272.999 80.7642 272.482 80.9744C271.965 81.1847 271.346 81.2898 270.624 81.2898ZM271.178 79.2443C271.883 79.2443 272.485 79.1051 272.985 78.8267C273.491 78.5483 273.874 78.1847 274.136 77.7358C274.403 77.2812 274.536 76.7955 274.536 76.2784V74.5909C274.445 74.6818 274.269 74.767 274.008 74.8466C273.752 74.9205 273.46 74.9858 273.13 75.0426C272.8 75.0937 272.479 75.142 272.167 75.1875C271.854 75.2273 271.593 75.2614 271.383 75.2898C270.888 75.3523 270.437 75.4574 270.028 75.6051C269.624 75.7528 269.3 75.9659 269.056 76.2443C268.817 76.517 268.698 76.8807 268.698 77.3352C268.698 77.9659 268.931 78.4432 269.397 78.767C269.863 79.0852 270.457 79.2443 271.178 79.2443ZM281.621 85.9091C281.24 85.9091 280.893 85.8778 280.581 85.8153C280.268 85.7585 280.036 85.696 279.882 85.6278L280.496 83.5398C280.962 83.6648 281.376 83.7188 281.74 83.7017C282.104 83.6847 282.425 83.5483 282.703 83.2926C282.987 83.0369 283.237 82.6193 283.453 82.0398L283.768 81.1705L278.979 67.9091H281.706L285.021 78.0682H285.158L288.473 67.9091H291.209L285.814 82.7472C285.564 83.429 285.246 84.0057 284.859 84.4773C284.473 84.9545 284.013 85.3125 283.479 85.5511C282.945 85.7898 282.325 85.9091 281.621 85.9091ZM294.462 81.1619C293.996 81.1619 293.596 80.9972 293.261 80.6676C292.925 80.3324 292.758 79.929 292.758 79.4574C292.758 78.9915 292.925 78.5937 293.261 78.2642C293.596 77.929 293.996 77.7614 294.462 77.7614C294.928 77.7614 295.329 77.929 295.664 78.2642C295.999 78.5937 296.167 78.9915 296.167 79.4574C296.167 79.7699 296.087 80.0568 295.928 80.3182C295.775 80.5739 295.57 80.7784 295.315 80.9318C295.059 81.0852 294.775 81.1619 294.462 81.1619Z" fill="#091946"/>
<path d="M120.809 74.0956C120.809 79.3147 120.25 83.9877 118.426 88.9618C118.124 89.7864 114.133 95.3466 115.111 96.0583C118.487 98.5136 134.051 91.6307 137.799 90.982C171.741 85.1074 205.872 85.2841 240.154 85.2841C252.606 85.2841 265.098 84.896 277.449 86.2683C284.432 87.0442 290.907 89.0136 297.961 89.0136" stroke="#F9CEEE" stroke-width="4" stroke-linecap="round"/>
</svg>
