<svg width="1920" height="1221" viewBox="0 0 1920 1221" fill="none" xmlns="http://www.w3.org/2000/svg">
<path d="M167.133 -78.5C70.6356 10.8216 -96.1305 207.728 -179.5 308.155C-336.659 497.469 -502 658.5 -713.997 883.747C-714.276 949.62 -695.222 1032.89 -611.371 1045.63C-514.307 1060.38 -410.207 994.528 -336.283 946.703C-53.483 763.744 197.197 526.471 419.751 283.985C484.136 213.834 548.895 142.47 604.358 65.8893C608.694 59.902 620.732 41.6239 615.288 46.7778C607.992 53.685 579.331 89.7883 578.245 91.1838C513.252 174.723 455.958 262.948 397.283 350.313C320.198 465.089 237.916 577.723 167.133 696.005C142.708 736.821 59.7674 851.451 102.156 903.983C141.693 952.981 251.311 894.519 286.762 874.754C402.183 810.403 502.442 718.939 596.463 630.802C706.133 527.995 807.18 417.848 908.593 308.155C972.965 238.527 1036.51 167.356 1107.17 102.988C1117.67 93.4201 1129.63 71.4315 1142.39 78.2555C1156.25 85.6677 1139.49 108.024 1134.49 122.099C1056.01 343.087 923.505 544.75 843.617 765.144C821.462 826.265 774.621 944.563 831.472 1004.04C883.093 1058.04 994.768 1001.01 1042.8 976.494C1321.87 834.073 1515.07 592.286 1715.03 370.548C1762.1 318.355 1810.04 265.868 1862.59 218.219C1887.5 195.637 1872.79 232.175 1869.27 243.513C1813.45 423.546 1740.9 596.203 1701.06 780.883C1681.96 869.472 1613.06 1150.67 1810.98 1104.09C1912.95 1080.09 2001.84 1004.83 2075.74 939.958C2162.54 863.763 2237.27 778.622 2315 694.881" stroke="#DEE5FF" stroke-width="222" stroke-linecap="round"/>
<circle cx="443.5" cy="110.5" r="61.5" fill="#B9F3E4"/>
<mask id="mask0_87_56" style="mask-type:alpha" maskUnits="userSpaceOnUse" x="1442" y="768" width="128" height="128">
<rect x="1441" y="794.454" width="106.075" height="106.075" rx="7" transform="rotate(-15 1441 794.454)" fill="#D9D9D9"/>
</mask>
<g mask="url(#mask0_87_56)">
<circle cx="1484.17" cy="870.191" r="31.2921" transform="rotate(-15 1484.17 870.191)" fill="#F9CEEE"/>
<circle cx="1467.97" cy="809.739" r="31.2921" transform="rotate(-15 1467.97 809.739)" fill="#F9CEEE"/>
<ellipse cx="1528.26" cy="793.587" rx="31.1154" ry="31.2921" transform="rotate(-15 1528.26 793.587)" fill="#F9CEEE"/>
<ellipse cx="1544.45" cy="854.039" rx="31.1154" ry="31.2921" transform="rotate(-15 1544.45 854.039)" fill="#F9CEEE"/>
</g>
<circle cx="232.5" cy="838.5" r="74.5" fill="#FFD9C0"/>
<path d="M357.5 680L381.575 738.379L439.878 714.122L415.621 772.425L474 796.5L415.621 820.575L439.878 878.878L381.575 854.621L357.5 913L333.425 854.621L275.122 878.878L299.379 820.575L241 796.5L299.379 772.425L275.122 714.122L333.425 738.379L357.5 680Z" fill="white"/>
<rect x="157.386" y="687" width="189" height="63" rx="14" transform="rotate(14.1361 157.386 687)" fill="#F9CEEE"/>
<path d="M193.322 736.268L196.874 722.163L206.048 724.474L205.508 726.616L198.89 724.949L197.925 728.778L204.069 730.325L203.529 732.467L197.386 730.92L196.416 734.77L203.09 736.451L202.551 738.593L193.322 736.268ZM208.871 740.382C208.04 740.173 207.35 739.772 206.801 739.18C206.252 738.587 205.889 737.837 205.713 736.928C205.536 736.019 205.594 734.984 205.887 733.823C206.183 732.647 206.626 731.704 207.215 730.993C207.81 730.279 208.49 729.798 209.255 729.551C210.021 729.3 210.811 729.277 211.624 729.481C212.244 729.638 212.727 729.872 213.073 730.183C213.42 730.491 213.674 730.821 213.834 731.173C213.996 731.522 214.108 731.84 214.172 732.13L214.275 732.156L215.604 726.88L218.104 727.51L214.552 741.615L212.1 740.998L212.519 739.331L212.368 739.293C212.175 739.517 211.92 739.744 211.604 739.972C211.289 740.195 210.906 740.358 210.456 740.459C210.005 740.56 209.477 740.535 208.871 740.382ZM210.082 738.512C210.61 738.645 211.096 738.616 211.539 738.425C211.984 738.229 212.368 737.899 212.69 737.433C213.012 736.967 213.26 736.392 213.432 735.708C213.604 735.024 213.657 734.405 213.592 733.852C213.531 733.299 213.35 732.836 213.048 732.462C212.751 732.09 212.334 731.836 211.797 731.7C211.242 731.56 210.741 731.588 210.297 731.784C209.852 731.98 209.471 732.308 209.155 732.771C208.838 733.233 208.597 733.792 208.432 734.449C208.265 735.11 208.211 735.724 208.268 736.29C208.332 736.853 208.512 737.33 208.808 737.722C209.111 738.111 209.535 738.374 210.082 738.512ZM225.071 739.533L226.615 733.404L229.108 734.031L226.444 744.61L224.027 744.001L224.5 742.121L224.39 742.093C224.002 742.626 223.487 743.011 222.846 743.25C222.21 743.49 221.494 743.51 220.7 743.31C220.007 743.135 219.432 742.827 218.977 742.385C218.528 741.94 218.228 741.384 218.079 740.716C217.931 740.044 217.963 739.286 218.176 738.441L219.873 731.705L222.366 732.333L220.766 738.683C220.598 739.354 220.647 739.933 220.915 740.42C221.183 740.907 221.615 741.226 222.212 741.376C222.579 741.469 222.958 741.469 223.347 741.377C223.737 741.284 224.086 741.089 224.396 740.791C224.711 740.49 224.936 740.07 225.071 739.533ZM233.57 746.625C232.514 746.359 231.666 745.898 231.025 745.244C230.389 744.591 229.969 743.804 229.766 742.884C229.569 741.96 229.606 740.963 229.875 739.893C230.146 738.819 230.591 737.923 231.211 737.205C231.833 736.483 232.578 735.987 233.446 735.717C234.321 735.444 235.274 735.438 236.307 735.698C237.166 735.914 237.886 736.264 238.467 736.747C239.055 737.227 239.473 737.804 239.724 738.477C239.975 739.146 240.032 739.869 239.895 740.645L237.513 740.044C237.544 739.511 237.422 739.028 237.145 738.597C236.873 738.162 236.437 737.869 235.835 737.718C235.326 737.589 234.843 737.614 234.388 737.793C233.934 737.967 233.535 738.281 233.191 738.736C232.852 739.193 232.592 739.777 232.413 740.489C232.231 741.209 232.181 741.856 232.261 742.428C232.343 742.995 232.539 743.467 232.85 743.843C233.166 744.216 233.584 744.467 234.103 744.598C234.47 744.691 234.815 744.704 235.139 744.64C235.469 744.571 235.766 744.429 236.031 744.212C236.295 743.996 236.512 743.706 236.682 743.343L239.065 743.944C238.816 744.677 238.429 745.285 237.902 745.767C237.377 746.245 236.744 746.565 236.006 746.725C235.268 746.881 234.456 746.848 233.57 746.625ZM243.192 749.055C242.521 748.886 241.948 748.615 241.47 748.241C240.999 747.863 240.667 747.399 240.474 746.847C240.285 746.297 240.278 745.675 240.453 744.982C240.603 744.385 240.838 743.919 241.156 743.584C241.475 743.249 241.855 743.013 242.295 742.875C242.735 742.737 243.208 742.668 243.716 742.669C244.229 742.666 244.75 742.702 245.278 742.777C245.914 742.868 246.431 742.938 246.83 742.984C247.229 743.026 247.53 743.014 247.733 742.948C247.941 742.878 248.075 742.724 248.135 742.485L248.145 742.444C248.276 741.925 248.223 741.485 247.987 741.123C247.751 740.76 247.344 740.506 246.766 740.361C246.155 740.207 245.637 740.218 245.212 740.394C244.791 740.571 244.473 740.826 244.258 741.157L242.013 740.24C242.359 739.644 242.797 739.183 243.328 738.858C243.86 738.528 244.459 738.332 245.124 738.27C245.79 738.204 246.493 738.263 247.232 738.45C247.742 738.578 248.234 738.765 248.709 739.012C249.184 739.258 249.596 739.572 249.944 739.953C250.294 740.329 250.536 740.783 250.671 741.315C250.81 741.848 250.791 742.466 250.614 743.168L248.831 750.248L246.434 749.645L246.8 748.192L246.717 748.171C246.492 748.426 246.209 748.648 245.869 748.836C245.534 749.02 245.141 749.138 244.688 749.19C244.241 749.239 243.743 749.194 243.192 749.055ZM244.3 747.386C244.801 747.512 245.26 747.523 245.677 747.418C246.095 747.308 246.444 747.113 246.725 746.832C247.01 746.553 247.202 746.218 247.3 745.827L247.614 744.581C247.52 744.625 247.372 744.652 247.17 744.659C246.972 744.668 246.753 744.664 246.513 744.648C246.273 744.631 246.037 744.611 245.804 744.586C245.571 744.562 245.369 744.54 245.198 744.521C244.813 744.478 244.459 744.477 244.137 744.518C243.814 744.559 243.541 744.661 243.32 744.825C243.099 744.984 242.948 745.224 242.867 745.546C242.751 746.005 242.832 746.394 243.108 746.712C243.384 747.031 243.782 747.256 244.3 747.386ZM259.285 741.631L258.799 743.56L252.718 742.028L253.203 740.1L259.285 741.631ZM255.343 737.943L257.836 738.571L255.335 748.503C255.25 748.838 255.236 749.108 255.292 749.312C255.354 749.513 255.461 749.667 255.615 749.774C255.769 749.881 255.949 749.961 256.156 750.013C256.312 750.052 256.457 750.077 256.591 750.086C256.73 750.097 256.836 750.102 256.91 750.101L256.839 752.155C256.694 752.168 256.491 752.17 256.229 752.163C255.972 752.157 255.666 752.114 255.31 752.034C254.681 751.895 254.142 751.659 253.694 751.327C253.246 750.989 252.931 750.563 252.748 750.048C252.57 749.535 252.567 748.948 252.738 748.288L255.343 737.943ZM258.705 752.735L261.37 742.157L263.863 742.784L261.199 753.363L258.705 752.735ZM263.001 740.971C262.606 740.871 262.3 740.655 262.081 740.322C261.863 739.984 261.801 739.629 261.895 739.257C261.99 738.88 262.212 738.597 262.563 738.407C262.915 738.212 263.288 738.165 263.683 738.264C264.082 738.365 264.389 738.583 264.602 738.92C264.82 739.254 264.882 739.609 264.788 739.985C264.694 740.357 264.471 740.64 264.119 740.835C263.773 741.026 263.401 741.071 263.001 740.971ZM268.325 755.378C267.292 755.117 266.454 754.665 265.81 754.019C265.167 753.374 264.74 752.59 264.528 751.668C264.32 750.746 264.354 749.739 264.63 748.646C264.905 747.554 265.352 746.648 265.973 745.93C266.598 745.214 267.346 744.724 268.218 744.46C269.09 744.196 270.043 744.194 271.076 744.455C272.109 744.715 272.947 745.167 273.59 745.813C274.233 746.458 274.658 747.244 274.864 748.17C275.075 749.097 275.043 750.107 274.767 751.2C274.492 752.292 274.043 753.195 273.419 753.907C272.8 754.62 272.055 755.109 271.182 755.372C270.31 755.636 269.358 755.638 268.325 755.378ZM268.842 753.384C269.402 753.525 269.909 753.489 270.363 753.276C270.818 753.059 271.203 752.712 271.519 752.234C271.839 751.758 272.08 751.199 272.242 750.556C272.405 749.909 272.458 749.3 272.402 748.729C272.351 748.155 272.177 747.664 271.879 747.257C271.581 746.85 271.152 746.576 270.592 746.435C270.018 746.29 269.501 746.326 269.041 746.542C268.586 746.76 268.198 747.109 267.877 747.589C267.561 748.066 267.322 748.629 267.159 749.276C266.997 749.919 266.942 750.525 266.994 751.095C267.05 751.666 267.227 752.155 267.525 752.562C267.829 752.965 268.268 753.239 268.842 753.384ZM279.616 751.41L278.055 757.609L275.562 756.981L278.226 746.402L280.609 747.002L280.156 748.8L280.28 748.831C280.673 748.3 281.179 747.927 281.8 747.712C282.425 747.498 283.132 747.491 283.922 747.69C284.652 747.874 285.249 748.19 285.712 748.639C286.18 749.089 286.488 749.647 286.637 750.315C286.791 750.983 286.76 751.739 286.542 752.583L284.846 759.319L282.353 758.691L283.952 752.341C284.13 751.634 284.086 751.034 283.819 750.542C283.557 750.051 283.104 749.725 282.462 749.563C282.025 749.453 281.613 749.452 281.225 749.559C280.842 749.663 280.509 749.87 280.226 750.179C279.948 750.49 279.744 750.9 279.616 751.41Z" fill="#091946"/>
<path d="M1631.83 788.027L1677.55 768.517L1643.58 804.807L1645.41 806.515L1643.58 804.807C1641.81 806.699 1642.64 809.794 1645.12 810.547L1692.69 824.99L1643.34 830.953C1640.76 831.264 1639.41 834.168 1640.82 836.34L1667.98 877.977L1626.34 850.824C1624.17 849.407 1621.26 850.762 1620.95 853.335L1614.99 902.686L1600.55 855.121C1599.79 852.64 1596.7 851.811 1594.81 853.582L1558.52 887.554L1578.03 841.834C1579.04 839.449 1577.21 836.824 1574.62 836.965L1524.98 839.662L1569.32 817.179C1571.63 816.007 1571.91 812.815 1569.83 811.259L1568.33 813.258L1569.83 811.259L1530.08 781.419L1578.49 792.694C1581.02 793.282 1583.28 791.017 1582.69 788.492L1571.42 740.078L1601.26 779.835C1602.81 781.909 1606.01 781.629 1607.18 779.317L1604.95 778.186L1607.18 779.317L1629.66 734.982L1626.96 784.618C1626.82 787.207 1629.45 789.045 1631.83 788.027Z" stroke="#B0B8EA" stroke-width="5"/>
<path d="M1345.63 313.296L1361.82 286.765L1362.59 317.841L1365.09 317.78L1362.59 317.841C1362.63 319.707 1364.13 321.208 1366 321.254L1397.08 322.017L1370.55 338.217C1368.95 339.189 1368.4 341.24 1369.3 342.879L1384.17 370.173L1356.88 355.296C1355.24 354.403 1353.19 354.953 1352.22 356.545L1336.02 383.076L1335.25 352C1335.21 350.135 1333.71 348.633 1331.84 348.587L1300.77 347.824L1327.3 331.625C1328.89 330.652 1329.44 328.601 1328.55 326.963L1313.67 299.668L1340.96 314.545C1342.6 315.438 1344.65 314.889 1345.63 313.296Z" stroke="#F9CEEE" stroke-width="5"/>
<ellipse cx="1623.48" cy="713.139" rx="105.5" ry="39" transform="rotate(-12.6387 1623.48 713.139)" fill="#B9F3E4"/>
<path d="M1576.63 730.817L1573.45 716.624L1578.77 715.431C1579.86 715.186 1580.82 715.184 1581.65 715.425C1582.49 715.665 1583.17 716.098 1583.71 716.725C1584.25 717.345 1584.63 718.106 1584.83 719.007C1585.03 719.917 1585.02 720.769 1584.8 721.562C1584.57 722.355 1584.13 723.038 1583.47 723.613C1582.81 724.182 1581.94 724.59 1580.84 724.836L1577.32 725.627L1576.84 723.513L1580.02 722.8C1580.66 722.657 1581.16 722.429 1581.51 722.116C1581.87 721.803 1582.1 721.431 1582.21 720.999C1582.32 720.566 1582.32 720.098 1582.21 719.595C1582.1 719.091 1581.9 718.67 1581.61 718.331C1581.33 717.991 1580.96 717.761 1580.5 717.64C1580.05 717.514 1579.5 717.523 1578.86 717.667L1576.5 718.196L1579.2 730.241L1576.63 730.817ZM1589.08 728.026L1586.69 717.381L1589.12 716.835L1589.52 718.61L1589.63 718.585C1589.69 717.927 1589.92 717.379 1590.31 716.94C1590.71 716.496 1591.22 716.206 1591.83 716.069C1591.97 716.038 1592.12 716.01 1592.3 715.986C1592.47 715.956 1592.62 715.939 1592.74 715.936L1593.26 718.244C1593.15 718.231 1592.97 718.237 1592.73 718.261C1592.5 718.279 1592.28 718.312 1592.07 718.36C1591.61 718.462 1591.22 718.654 1590.9 718.934C1590.58 719.209 1590.36 719.543 1590.23 719.936C1590.1 720.329 1590.08 720.752 1590.18 721.205L1591.59 727.463L1589.08 728.026ZM1601.07 725.556C1600.03 725.789 1599.08 725.762 1598.21 725.476C1597.35 725.189 1596.61 724.682 1596.01 723.954C1595.41 723.225 1594.98 722.31 1594.74 721.211C1594.49 720.111 1594.48 719.101 1594.71 718.181C1594.95 717.26 1595.39 716.485 1596.05 715.857C1596.71 715.228 1597.56 714.797 1598.6 714.564C1599.64 714.331 1600.6 714.358 1601.46 714.644C1602.33 714.931 1603.06 715.441 1603.66 716.175C1604.27 716.907 1604.69 717.824 1604.94 718.923C1605.18 720.023 1605.19 721.031 1604.95 721.948C1604.72 722.863 1604.28 723.635 1603.62 724.264C1602.96 724.892 1602.11 725.323 1601.07 725.556ZM1600.63 723.543C1601.2 723.416 1601.63 723.156 1601.94 722.761C1602.25 722.362 1602.44 721.879 1602.5 721.311C1602.58 720.741 1602.54 720.133 1602.39 719.487C1602.25 718.835 1602.02 718.267 1601.71 717.783C1601.41 717.293 1601.03 716.934 1600.58 716.704C1600.13 716.475 1599.63 716.424 1599.06 716.55C1598.49 716.68 1598.04 716.945 1597.73 717.345C1597.42 717.744 1597.23 718.23 1597.16 718.804C1597.09 719.372 1597.13 719.982 1597.28 720.633C1597.42 721.28 1597.65 721.846 1597.95 722.332C1598.26 722.816 1598.64 723.172 1599.09 723.402C1599.54 723.625 1600.05 723.672 1600.63 723.543ZM1611.26 711.873L1611.69 713.813L1605.4 715.224L1604.96 713.284L1611.26 711.873ZM1608.92 723.576L1606.31 711.926C1606.15 711.21 1606.17 710.581 1606.35 710.039C1606.55 709.496 1606.87 709.05 1607.32 708.701C1607.77 708.353 1608.3 708.109 1608.92 707.972C1609.35 707.874 1609.75 707.822 1610.1 707.816C1610.45 707.81 1610.72 707.816 1610.89 707.835L1610.83 709.888C1610.71 709.879 1610.57 709.877 1610.4 709.881C1610.23 709.88 1610.05 709.902 1609.85 709.947C1609.38 710.051 1609.08 710.238 1608.93 710.508C1608.79 710.773 1608.77 711.113 1608.86 711.528L1611.44 723.012L1608.92 723.576ZM1619.97 721.318C1618.9 721.557 1617.93 721.542 1617.05 721.273C1616.18 720.998 1615.44 720.498 1614.85 719.773C1614.25 719.044 1613.82 718.123 1613.57 717.009C1613.33 715.914 1613.32 714.907 1613.55 713.986C1613.78 713.061 1614.22 712.282 1614.87 711.651C1615.52 711.016 1616.35 710.584 1617.37 710.356C1618.03 710.209 1618.67 710.177 1619.3 710.259C1619.93 710.335 1620.52 710.542 1621.07 710.881C1621.62 711.218 1622.1 711.697 1622.51 712.318C1622.92 712.935 1623.23 713.71 1623.44 714.643L1623.61 715.412L1614.89 717.369L1614.51 715.678L1620.83 714.261C1620.72 713.781 1620.52 713.377 1620.23 713.048C1619.94 712.715 1619.59 712.481 1619.18 712.346C1618.77 712.209 1618.32 712.195 1617.84 712.303C1617.33 712.418 1616.91 712.643 1616.58 712.98C1616.24 713.312 1616.01 713.703 1615.89 714.154C1615.76 714.599 1615.75 715.06 1615.85 715.537L1616.18 717.013C1616.32 717.632 1616.56 718.138 1616.88 718.531C1617.21 718.919 1617.6 719.185 1618.06 719.329C1618.52 719.469 1619.02 719.478 1619.56 719.356C1619.93 719.274 1620.25 719.149 1620.52 718.981C1620.79 718.809 1621.01 718.596 1621.19 718.344C1621.36 718.092 1621.46 717.804 1621.51 717.479L1623.91 717.217C1623.9 717.869 1623.74 718.473 1623.43 719.028C1623.12 719.578 1622.67 720.051 1622.09 720.45C1621.5 720.843 1620.79 721.132 1619.97 721.318ZM1633.43 709.855L1631.2 710.617C1631.09 710.401 1630.92 710.209 1630.72 710.042C1630.51 709.874 1630.26 709.758 1629.97 709.693C1629.67 709.628 1629.33 709.64 1628.94 709.727C1628.42 709.844 1628.01 710.055 1627.7 710.361C1627.4 710.667 1627.29 710.999 1627.38 711.358C1627.44 711.669 1627.61 711.895 1627.89 712.037C1628.17 712.179 1628.59 712.251 1629.16 712.254L1631.06 712.235C1632.12 712.227 1632.94 712.403 1633.54 712.764C1634.14 713.125 1634.53 713.686 1634.7 714.447C1634.85 715.118 1634.78 715.753 1634.51 716.353C1634.24 716.947 1633.8 717.464 1633.18 717.904C1632.56 718.344 1631.81 718.663 1630.92 718.862C1629.62 719.154 1628.51 719.117 1627.59 718.75C1626.67 718.378 1626.03 717.72 1625.65 716.775L1628.05 715.99C1628.27 716.446 1628.58 716.756 1629 716.92C1629.41 717.084 1629.91 717.101 1630.49 716.972C1631.08 716.838 1631.53 716.609 1631.84 716.283C1632.15 715.956 1632.26 715.613 1632.18 715.252C1632.11 714.947 1631.94 714.722 1631.66 714.576C1631.38 714.429 1630.99 714.358 1630.48 714.361L1628.58 714.387C1627.51 714.404 1626.67 714.215 1626.07 713.821C1625.46 713.423 1625.08 712.835 1624.91 712.058C1624.76 711.403 1624.81 710.795 1625.06 710.233C1625.32 709.666 1625.74 709.179 1626.33 708.77C1626.92 708.356 1627.64 708.054 1628.49 707.863C1629.74 707.583 1630.78 707.629 1631.61 708C1632.45 708.369 1633.06 708.988 1633.43 709.855ZM1644.14 707.453L1641.91 708.216C1641.8 707.999 1641.63 707.807 1641.43 707.64C1641.22 707.472 1640.98 707.356 1640.68 707.291C1640.38 707.227 1640.04 707.238 1639.65 707.325C1639.13 707.442 1638.72 707.654 1638.41 707.96C1638.11 708.265 1638 708.597 1638.09 708.956C1638.15 709.267 1638.32 709.493 1638.6 709.636C1638.88 709.777 1639.3 709.849 1639.87 709.853L1641.77 709.834C1642.83 709.825 1643.65 710.001 1644.25 710.363C1644.85 710.723 1645.24 711.284 1645.41 712.045C1645.56 712.716 1645.5 713.352 1645.22 713.952C1644.95 714.546 1644.51 715.063 1643.89 715.502C1643.27 715.942 1642.52 716.262 1641.63 716.461C1640.33 716.753 1639.22 716.715 1638.3 716.348C1637.38 715.977 1636.74 715.318 1636.36 714.373L1638.76 713.589C1638.98 714.044 1639.29 714.354 1639.71 714.518C1640.12 714.682 1640.62 714.7 1641.2 714.57C1641.79 714.436 1642.24 714.207 1642.55 713.881C1642.86 713.554 1642.97 713.211 1642.89 712.851C1642.83 712.546 1642.65 712.32 1642.37 712.174C1642.1 712.028 1641.7 711.956 1641.19 711.959L1639.29 711.985C1638.22 712.002 1637.38 711.813 1636.78 711.419C1636.18 711.021 1635.79 710.433 1635.62 709.656C1635.47 709.001 1635.52 708.393 1635.77 707.832C1636.03 707.265 1636.45 706.777 1637.04 706.368C1637.63 705.954 1638.35 705.652 1639.2 705.461C1640.45 705.182 1641.49 705.227 1642.32 705.598C1643.16 705.968 1643.77 706.586 1644.14 707.453ZM1648.2 714.769L1645.81 704.125L1648.32 703.562L1650.71 714.207L1648.2 714.769ZM1646.73 702.331C1646.34 702.42 1645.96 702.365 1645.62 702.166C1645.27 701.962 1645.06 701.673 1644.97 701.299C1644.89 700.92 1644.96 700.567 1645.19 700.239C1645.41 699.907 1645.72 699.697 1646.12 699.607C1646.52 699.517 1646.9 699.575 1647.24 699.779C1647.58 699.978 1647.8 700.267 1647.88 700.646C1647.97 701.021 1647.9 701.374 1647.67 701.706C1647.45 702.033 1647.13 702.241 1646.73 702.331ZM1657.98 712.795C1656.94 713.028 1655.98 713.001 1655.12 712.715C1654.25 712.429 1653.52 711.921 1652.91 711.193C1652.31 710.464 1651.89 709.55 1651.64 708.45C1651.4 707.35 1651.39 706.341 1651.62 705.42C1651.85 704.499 1652.3 703.724 1652.96 703.096C1653.62 702.468 1654.47 702.037 1655.51 701.804C1656.55 701.571 1657.5 701.597 1658.37 701.884C1659.23 702.17 1659.97 702.68 1660.57 703.414C1661.17 704.147 1661.6 705.063 1661.85 706.163C1662.09 707.262 1662.1 708.27 1661.86 709.187C1661.63 710.103 1661.18 710.875 1660.52 711.503C1659.86 712.131 1659.01 712.562 1657.98 712.795ZM1657.54 710.782C1658.1 710.656 1658.54 710.395 1658.85 710.001C1659.16 709.602 1659.34 709.118 1659.41 708.55C1659.48 707.981 1659.45 707.373 1659.3 706.726C1659.15 706.075 1658.93 705.507 1658.62 705.023C1658.32 704.533 1657.94 704.173 1657.49 703.944C1657.04 703.715 1656.53 703.663 1655.97 703.79C1655.39 703.919 1654.95 704.184 1654.63 704.584C1654.33 704.983 1654.14 705.47 1654.07 706.043C1654 706.612 1654.04 707.221 1654.19 707.873C1654.33 708.52 1654.55 709.086 1654.86 709.571C1655.17 710.055 1655.54 710.412 1655.99 710.641C1656.45 710.865 1656.96 710.912 1657.54 710.782ZM1666.27 704.166L1667.67 710.403L1665.16 710.966L1662.77 700.321L1665.17 699.783L1665.58 701.592L1665.7 701.564C1665.81 700.913 1666.1 700.352 1666.55 699.881C1667.01 699.409 1667.64 699.083 1668.44 698.905C1669.17 698.74 1669.85 698.754 1670.46 698.946C1671.08 699.137 1671.61 699.497 1672.04 700.025C1672.48 700.553 1672.79 701.242 1672.98 702.093L1674.5 708.871L1671.99 709.434L1670.56 703.044C1670.4 702.333 1670.09 701.817 1669.63 701.498C1669.18 701.178 1668.62 701.091 1667.98 701.236C1667.54 701.334 1667.17 701.519 1666.87 701.789C1666.58 702.054 1666.37 702.389 1666.26 702.793C1666.15 703.196 1666.15 703.653 1666.27 704.166Z" fill="#091946"/>
</svg>
