<svg width="395" height="86" viewBox="0 0 395 86" fill="none" xmlns="http://www.w3.org/2000/svg">
<path d="M241.902 24.1013C225.087 22.2855 209.47 22.3945 193.066 26.8866C184.086 29.3458 172.336 32.5615 166.551 40.465C161.033 48.0049 171.581 51.7438 177.21 53.6082C191.888 58.4692 207.625 60.6843 223.005 61.9351C241.042 63.4019 261.122 64.1933 278.574 58.5115C284.155 56.6942 295.731 50.8051 288.908 43.7435C282.468 37.0783 272.195 36.1457 263.693 34.024" stroke="#FFD9C0" stroke-width="4" stroke-linecap="round"/>
<path d="M13.142 5.54545H15.7841V17.0256C15.7841 18.2472 15.4972 19.3295 14.9233 20.2727C14.3494 21.2102 13.5426 21.9489 12.5028 22.4886C11.4631 23.0227 10.2443 23.2898 8.84659 23.2898C7.45455 23.2898 6.23864 23.0227 5.19886 22.4886C4.15909 21.9489 3.35227 21.2102 2.77841 20.2727C2.20455 19.3295 1.91761 18.2472 1.91761 17.0256V5.54545H4.55114V16.8125C4.55114 17.6023 4.72443 18.304 5.07102 18.9176C5.4233 19.5312 5.92045 20.0142 6.5625 20.3665C7.20455 20.7131 7.96591 20.8864 8.84659 20.8864C9.73295 20.8864 10.4972 20.7131 11.1392 20.3665C11.7869 20.0142 12.2813 19.5312 12.6222 18.9176C12.9688 18.304 13.142 17.6023 13.142 16.8125V5.54545ZM19.4084 27.9091V9.90909H21.897V12.0312H22.1101C22.2578 11.7585 22.4709 11.4432 22.7493 11.0852C23.0277 10.7273 23.4141 10.4148 23.9084 10.1477C24.4027 9.875 25.0561 9.73864 25.8686 9.73864C26.9254 9.73864 27.8686 10.0057 28.6982 10.5398C29.5277 11.0739 30.1783 11.8437 30.6499 12.8494C31.1271 13.8551 31.3658 15.0653 31.3658 16.4801C31.3658 17.8949 31.13 19.108 30.6584 20.1193C30.1868 21.125 29.5391 21.9006 28.7152 22.446C27.8913 22.9858 26.951 23.2557 25.8942 23.2557C25.0987 23.2557 24.4482 23.1222 23.9425 22.8551C23.4425 22.5881 23.0504 22.2756 22.7663 21.9176C22.4822 21.5597 22.2635 21.2415 22.1101 20.9631H21.9567V27.9091H19.4084ZM21.9055 16.4545C21.9055 17.375 22.0391 18.1818 22.3061 18.875C22.5732 19.5682 22.9595 20.1108 23.4652 20.5028C23.9709 20.8892 24.5902 21.0824 25.3232 21.0824C26.0845 21.0824 26.7209 20.8807 27.2322 20.4773C27.7436 20.0682 28.13 19.5142 28.3913 18.8153C28.6584 18.1165 28.7919 17.3295 28.7919 16.4545C28.7919 15.5909 28.6612 14.8153 28.3999 14.1278C28.1442 13.4403 27.7578 12.8977 27.2408 12.5C26.7294 12.1023 26.0902 11.9034 25.3232 11.9034C24.5845 11.9034 23.9595 12.0937 23.4482 12.4744C22.9425 12.8551 22.5589 13.3864 22.2976 14.0682C22.0362 14.75 21.9055 15.5455 21.9055 16.4545ZM39.7351 23.2642C38.5078 23.2642 37.4368 22.983 36.522 22.4205C35.6072 21.858 34.897 21.071 34.3913 20.0597C33.8857 19.0483 33.6328 17.8665 33.6328 16.5142C33.6328 15.1562 33.8857 13.9687 34.3913 12.9517C34.897 11.9347 35.6072 11.1449 36.522 10.5824C37.4368 10.0199 38.5078 9.73864 39.7351 9.73864C40.9624 9.73864 42.0334 10.0199 42.9482 10.5824C43.8629 11.1449 44.5732 11.9347 45.0788 12.9517C45.5845 13.9687 45.8374 15.1562 45.8374 16.5142C45.8374 17.8665 45.5845 19.0483 45.0788 20.0597C44.5732 21.071 43.8629 21.858 42.9482 22.4205C42.0334 22.983 40.9624 23.2642 39.7351 23.2642ZM39.7436 21.125C40.5391 21.125 41.1982 20.9148 41.7209 20.4943C42.2436 20.0739 42.63 19.5142 42.88 18.8153C43.1357 18.1165 43.2635 17.3466 43.2635 16.5057C43.2635 15.6705 43.1357 14.9034 42.88 14.2045C42.63 13.5 42.2436 12.9347 41.7209 12.5085C41.1982 12.0824 40.5391 11.8693 39.7436 11.8693C38.9425 11.8693 38.2777 12.0824 37.7493 12.5085C37.2266 12.9347 36.8374 13.5 36.5817 14.2045C36.3317 14.9034 36.2067 15.6705 36.2067 16.5057C36.2067 17.3466 36.3317 18.1165 36.5817 18.8153C36.8374 19.5142 37.2266 20.0739 37.7493 20.4943C38.2777 20.9148 38.9425 21.125 39.7436 21.125ZM51.2301 15.2273V23H48.6818V9.90909H51.1278V12.0398H51.2898C51.5909 11.3466 52.0625 10.7898 52.7045 10.3693C53.3523 9.94886 54.1676 9.73864 55.1506 9.73864C56.0426 9.73864 56.8239 9.92614 57.4943 10.3011C58.1648 10.6705 58.6847 11.2216 59.054 11.9545C59.4233 12.6875 59.608 13.5937 59.608 14.6733V23H57.0597V14.9801C57.0597 14.0312 56.8125 13.2898 56.3182 12.7557C55.8239 12.2159 55.1449 11.946 54.2812 11.946C53.6903 11.946 53.1648 12.0739 52.7045 12.3295C52.25 12.5852 51.8892 12.9602 51.6222 13.4545C51.3608 13.9432 51.2301 14.5341 51.2301 15.2273ZM74.8658 28.1818C73.826 28.1818 72.9311 28.0455 72.1811 27.7727C71.4368 27.5 70.8288 27.1392 70.3572 26.6903C69.8857 26.2415 69.5334 25.75 69.3004 25.2159L71.4908 24.3125C71.6442 24.5625 71.8487 24.8267 72.1044 25.1051C72.3658 25.3892 72.718 25.6307 73.1612 25.8295C73.6101 26.0284 74.1868 26.1278 74.8913 26.1278C75.8572 26.1278 76.6555 25.892 77.2862 25.4205C77.9169 24.9545 78.2322 24.2102 78.2322 23.1875V20.6136H78.0703C77.9169 20.892 77.6953 21.2017 77.4055 21.5426C77.1214 21.8835 76.7294 22.179 76.2294 22.429C75.7294 22.679 75.0788 22.804 74.2777 22.804C73.2436 22.804 72.3118 22.5625 71.4822 22.0795C70.6584 21.5909 70.005 20.8722 69.522 19.9233C69.0447 18.9687 68.8061 17.7955 68.8061 16.4034C68.8061 15.0114 69.0419 13.8182 69.5135 12.8239C69.9908 11.8295 70.6442 11.0682 71.4737 10.5398C72.3033 10.0057 73.2436 9.73864 74.2947 9.73864C75.1072 9.73864 75.7635 9.875 76.2635 10.1477C76.7635 10.4148 77.1527 10.7273 77.4311 11.0852C77.7152 11.4432 77.9339 11.7585 78.0874 12.0312H78.2749V9.90909H80.772V23.2898C80.772 24.4148 80.5107 25.3381 79.9879 26.0597C79.4652 26.7813 78.7578 27.3153 77.8658 27.6619C76.9794 28.0085 75.9794 28.1818 74.8658 28.1818ZM74.8402 20.6903C75.5732 20.6903 76.1925 20.5199 76.6982 20.179C77.2095 19.8324 77.5959 19.3381 77.8572 18.696C78.1243 18.0483 78.2578 17.2727 78.2578 16.3693C78.2578 15.4886 78.1271 14.7131 77.8658 14.0426C77.6044 13.3722 77.2209 12.8494 76.7152 12.4744C76.2095 12.0937 75.5845 11.9034 74.8402 11.9034C74.0732 11.9034 73.4339 12.1023 72.9226 12.5C72.4112 12.892 72.0249 13.4261 71.7635 14.1023C71.5078 14.7784 71.38 15.5341 71.38 16.3693C71.38 17.2273 71.5107 17.9801 71.772 18.6278C72.0334 19.2756 72.4197 19.7812 72.9311 20.1449C73.4482 20.5085 74.0845 20.6903 74.8402 20.6903ZM84.1896 23V9.90909H86.6527V11.9886H86.7891C87.0277 11.2841 87.4482 10.7301 88.0504 10.3267C88.6584 9.91761 89.3459 9.71307 90.1129 9.71307C90.272 9.71307 90.4595 9.71875 90.6754 9.73011C90.897 9.74148 91.0703 9.75568 91.1953 9.77273V12.2102C91.093 12.1818 90.9112 12.1506 90.6499 12.1165C90.3885 12.0767 90.1271 12.0568 89.8658 12.0568C89.2635 12.0568 88.7266 12.1847 88.255 12.4403C87.7891 12.6903 87.4197 13.0398 87.147 13.4886C86.8743 13.9318 86.7379 14.4375 86.7379 15.0057V23H84.1896ZM97.093 23.2898C96.2635 23.2898 95.5135 23.1364 94.843 22.8295C94.1726 22.517 93.6413 22.0653 93.2493 21.4744C92.8629 20.8835 92.6697 20.1591 92.6697 19.3011C92.6697 18.5625 92.8118 17.9545 93.0959 17.4773C93.38 17 93.7635 16.6222 94.2464 16.3438C94.7294 16.0653 95.2692 15.8551 95.8658 15.7131C96.4624 15.571 97.0703 15.4631 97.6896 15.3892C98.4737 15.2983 99.1101 15.2244 99.5987 15.1676C100.087 15.1051 100.442 15.0057 100.664 14.8693C100.886 14.733 100.996 14.5114 100.996 14.2045V14.1449C100.996 13.4006 100.786 12.8239 100.366 12.4148C99.951 12.0057 99.3317 11.8011 98.5078 11.8011C97.6499 11.8011 96.9737 11.9915 96.4794 12.3722C95.9908 12.7472 95.6527 13.1648 95.4652 13.625L93.0703 13.0795C93.3544 12.2841 93.7692 11.642 94.3146 11.1534C94.8658 10.6591 95.4993 10.3011 96.2152 10.0795C96.9311 9.85227 97.6839 9.73864 98.4737 9.73864C98.9964 9.73864 99.5504 9.80114 100.136 9.92614C100.727 10.0455 101.278 10.267 101.789 10.5909C102.306 10.9148 102.729 11.3778 103.059 11.9801C103.388 12.5767 103.553 13.3523 103.553 14.3068V23H101.065V21.2102H100.962C100.798 21.5398 100.55 21.8636 100.221 22.1818C99.8913 22.5 99.468 22.7642 98.951 22.9744C98.4339 23.1847 97.8146 23.2898 97.093 23.2898ZM97.647 21.2443C98.3516 21.2443 98.9538 21.1051 99.4538 20.8267C99.9595 20.5483 100.343 20.1847 100.604 19.7358C100.871 19.2812 101.005 18.7955 101.005 18.2784V16.5909C100.914 16.6818 100.738 16.767 100.477 16.8466C100.221 16.9205 99.9283 16.9858 99.5987 17.0426C99.2692 17.0937 98.9482 17.142 98.6357 17.1875C98.3232 17.2273 98.0618 17.2614 97.8516 17.2898C97.3572 17.3523 96.9055 17.4574 96.4964 17.6051C96.093 17.7528 95.7692 17.9659 95.5249 18.2443C95.2862 18.517 95.1669 18.8807 95.1669 19.3352C95.1669 19.9659 95.3999 20.4432 95.8658 20.767C96.3317 21.0852 96.9254 21.2443 97.647 21.2443ZM111.848 23.2557C110.791 23.2557 109.848 22.9858 109.018 22.446C108.195 21.9006 107.547 21.125 107.075 20.1193C106.609 19.108 106.376 17.8949 106.376 16.4801C106.376 15.0653 106.612 13.8551 107.084 12.8494C107.561 11.8437 108.214 11.0739 109.044 10.5398C109.874 10.0057 110.814 9.73864 111.865 9.73864C112.678 9.73864 113.331 9.875 113.825 10.1477C114.325 10.4148 114.712 10.7273 114.984 11.0852C115.263 11.4432 115.479 11.7585 115.632 12.0312H115.786V5.54545H118.334V23H115.845V20.9631H115.632C115.479 21.2415 115.257 21.5597 114.967 21.9176C114.683 22.2756 114.291 22.5881 113.791 22.8551C113.291 23.1222 112.643 23.2557 111.848 23.2557ZM112.411 21.0824C113.143 21.0824 113.763 20.8892 114.268 20.5028C114.78 20.1108 115.166 19.5682 115.428 18.875C115.695 18.1818 115.828 17.375 115.828 16.4545C115.828 15.5455 115.697 14.75 115.436 14.0682C115.175 13.3864 114.791 12.8551 114.286 12.4744C113.78 12.0937 113.155 11.9034 112.411 11.9034C111.643 11.9034 111.004 12.1023 110.493 12.5C109.982 12.8977 109.595 13.4403 109.334 14.1278C109.078 14.8153 108.95 15.5909 108.95 16.4545C108.95 17.3295 109.081 18.1165 109.342 18.8153C109.604 19.5142 109.99 20.0682 110.501 20.4773C111.018 20.8807 111.655 21.0824 112.411 21.0824ZM130.263 17.571V9.90909H132.82V23H130.315V20.733H130.178C129.877 21.4318 129.394 22.0142 128.729 22.4801C128.07 22.9403 127.249 23.1705 126.266 23.1705C125.425 23.1705 124.681 22.9858 124.033 22.6165C123.391 22.2415 122.886 21.6875 122.516 20.9545C122.153 20.2216 121.971 19.3153 121.971 18.2358V9.90909H124.519V17.929C124.519 18.821 124.766 19.5312 125.261 20.0597C125.755 20.5881 126.397 20.8523 127.187 20.8523C127.664 20.8523 128.138 20.733 128.61 20.4943C129.087 20.2557 129.482 19.8949 129.795 19.4119C130.113 18.929 130.269 18.3153 130.263 17.571ZM140.054 23.2898C139.224 23.2898 138.474 23.1364 137.804 22.8295C137.134 22.517 136.602 22.0653 136.21 21.4744C135.824 20.8835 135.631 20.1591 135.631 19.3011C135.631 18.5625 135.773 17.9545 136.057 17.4773C136.341 17 136.724 16.6222 137.207 16.3438C137.69 16.0653 138.23 15.8551 138.827 15.7131C139.423 15.571 140.031 15.4631 140.651 15.3892C141.435 15.2983 142.071 15.2244 142.56 15.1676C143.048 15.1051 143.403 15.0057 143.625 14.8693C143.847 14.733 143.957 14.5114 143.957 14.2045V14.1449C143.957 13.4006 143.747 12.8239 143.327 12.4148C142.912 12.0057 142.293 11.8011 141.469 11.8011C140.611 11.8011 139.935 11.9915 139.44 12.3722C138.952 12.7472 138.614 13.1648 138.426 13.625L136.031 13.0795C136.315 12.2841 136.73 11.642 137.276 11.1534C137.827 10.6591 138.46 10.3011 139.176 10.0795C139.892 9.85227 140.645 9.73864 141.435 9.73864C141.957 9.73864 142.511 9.80114 143.097 9.92614C143.688 10.0455 144.239 10.267 144.75 10.5909C145.267 10.9148 145.69 11.3778 146.02 11.9801C146.349 12.5767 146.514 13.3523 146.514 14.3068V23H144.026V21.2102H143.923C143.759 21.5398 143.511 21.8636 143.182 22.1818C142.852 22.5 142.429 22.7642 141.912 22.9744C141.395 23.1847 140.776 23.2898 140.054 23.2898ZM140.608 21.2443C141.313 21.2443 141.915 21.1051 142.415 20.8267C142.92 20.5483 143.304 20.1847 143.565 19.7358C143.832 19.2812 143.966 18.7955 143.966 18.2784V16.5909C143.875 16.6818 143.699 16.767 143.438 16.8466C143.182 16.9205 142.889 16.9858 142.56 17.0426C142.23 17.0937 141.909 17.142 141.597 17.1875C141.284 17.2273 141.023 17.2614 140.812 17.2898C140.318 17.3523 139.866 17.4574 139.457 17.6051C139.054 17.7528 138.73 17.9659 138.486 18.2443C138.247 18.517 138.128 18.8807 138.128 19.3352C138.128 19.9659 138.361 20.4432 138.827 20.767C139.293 21.0852 139.886 21.2443 140.608 21.2443ZM156.019 9.90909V11.9545H148.869V9.90909H156.019ZM150.786 6.77273H153.335V19.1562C153.335 19.6506 153.408 20.0227 153.556 20.2727C153.704 20.517 153.894 20.6847 154.127 20.7756C154.366 20.8608 154.624 20.9034 154.903 20.9034C155.107 20.9034 155.286 20.8892 155.44 20.8608C155.593 20.8324 155.712 20.8097 155.798 20.7926L156.258 22.8977C156.11 22.9545 155.9 23.0114 155.627 23.0682C155.354 23.1307 155.013 23.1648 154.604 23.1705C153.934 23.1818 153.309 23.0625 152.729 22.8125C152.15 22.5625 151.681 22.1761 151.323 21.6534C150.965 21.1307 150.786 20.4744 150.786 19.6847V6.77273ZM158.838 23V9.90909H161.386V23H158.838ZM160.125 7.8892C159.682 7.8892 159.301 7.74148 158.983 7.44602C158.67 7.14489 158.514 6.78693 158.514 6.37216C158.514 5.9517 158.67 5.59375 158.983 5.29829C159.301 4.99716 159.682 4.84659 160.125 4.84659C160.568 4.84659 160.946 4.99716 161.259 5.29829C161.577 5.59375 161.736 5.9517 161.736 6.37216C161.736 6.78693 161.577 7.14489 161.259 7.44602C160.946 7.74148 160.568 7.8892 160.125 7.8892ZM170.329 23.2642C169.102 23.2642 168.031 22.983 167.116 22.4205C166.201 21.858 165.491 21.071 164.985 20.0597C164.479 19.0483 164.227 17.8665 164.227 16.5142C164.227 15.1562 164.479 13.9687 164.985 12.9517C165.491 11.9347 166.201 11.1449 167.116 10.5824C168.031 10.0199 169.102 9.73864 170.329 9.73864C171.556 9.73864 172.627 10.0199 173.542 10.5824C174.457 11.1449 175.167 11.9347 175.673 12.9517C176.178 13.9687 176.431 15.1562 176.431 16.5142C176.431 17.8665 176.178 19.0483 175.673 20.0597C175.167 21.071 174.457 21.858 173.542 22.4205C172.627 22.983 171.556 23.2642 170.329 23.2642ZM170.337 21.125C171.133 21.125 171.792 20.9148 172.315 20.4943C172.837 20.0739 173.224 19.5142 173.474 18.8153C173.729 18.1165 173.857 17.3466 173.857 16.5057C173.857 15.6705 173.729 14.9034 173.474 14.2045C173.224 13.5 172.837 12.9347 172.315 12.5085C171.792 12.0824 171.133 11.8693 170.337 11.8693C169.536 11.8693 168.871 12.0824 168.343 12.5085C167.82 12.9347 167.431 13.5 167.175 14.2045C166.925 14.9034 166.8 15.6705 166.8 16.5057C166.8 17.3466 166.925 18.1165 167.175 18.8153C167.431 19.5142 167.82 20.0739 168.343 20.4943C168.871 20.9148 169.536 21.125 170.337 21.125ZM181.824 15.2273V23H179.276V9.90909H181.722V12.0398H181.884C182.185 11.3466 182.656 10.7898 183.298 10.3693C183.946 9.94886 184.761 9.73864 185.744 9.73864C186.636 9.73864 187.418 9.92614 188.088 10.3011C188.759 10.6705 189.278 11.2216 189.648 11.9545C190.017 12.6875 190.202 13.5937 190.202 14.6733V23H187.653V14.9801C187.653 14.0312 187.406 13.2898 186.912 12.7557C186.418 12.2159 185.739 11.946 184.875 11.946C184.284 11.946 183.759 12.0739 183.298 12.3295C182.844 12.5852 182.483 12.9602 182.216 13.4545C181.955 13.9432 181.824 14.5341 181.824 15.2273ZM196.935 20.6136L196.807 21.5426C196.722 22.2244 196.577 22.9347 196.372 23.6733C196.173 24.4176 195.966 25.108 195.75 25.7443C195.54 26.3807 195.366 26.8864 195.23 27.2614H193.423C193.497 26.9091 193.599 26.4318 193.73 25.8295C193.861 25.233 193.989 24.5653 194.114 23.8267C194.239 23.0881 194.332 22.3352 194.395 21.5682L194.48 20.6136H196.935ZM208.214 27.9091C207.834 27.9091 207.487 27.8778 207.175 27.8153C206.862 27.7585 206.629 27.696 206.476 27.6278L207.089 25.5398C207.555 25.6648 207.97 25.7188 208.334 25.7017C208.697 25.6847 209.018 25.5483 209.297 25.2926C209.581 25.0369 209.831 24.6193 210.047 24.0398L210.362 23.1705L205.572 9.90909H208.3L211.615 20.0682H211.751L215.067 9.90909H217.803L212.408 24.7472C212.158 25.429 211.839 26.0057 211.453 26.4773C211.067 26.9545 210.607 27.3125 210.072 27.5511C209.538 27.7898 208.919 27.9091 208.214 27.9091ZM225.266 23.2642C224.039 23.2642 222.968 22.983 222.053 22.4205C221.138 21.858 220.428 21.071 219.923 20.0597C219.417 19.0483 219.164 17.8665 219.164 16.5142C219.164 15.1562 219.417 13.9687 219.923 12.9517C220.428 11.9347 221.138 11.1449 222.053 10.5824C222.968 10.0199 224.039 9.73864 225.266 9.73864C226.494 9.73864 227.565 10.0199 228.479 10.5824C229.394 11.1449 230.104 11.9347 230.61 12.9517C231.116 13.9687 231.369 15.1562 231.369 16.5142C231.369 17.8665 231.116 19.0483 230.61 20.0597C230.104 21.071 229.394 21.858 228.479 22.4205C227.565 22.983 226.494 23.2642 225.266 23.2642ZM225.275 21.125C226.07 21.125 226.729 20.9148 227.252 20.4943C227.775 20.0739 228.161 19.5142 228.411 18.8153C228.667 18.1165 228.795 17.3466 228.795 16.5057C228.795 15.6705 228.667 14.9034 228.411 14.2045C228.161 13.5 227.775 12.9347 227.252 12.5085C226.729 12.0824 226.07 11.8693 225.275 11.8693C224.474 11.8693 223.809 12.0824 223.281 12.5085C222.758 12.9347 222.369 13.5 222.113 14.2045C221.863 14.9034 221.738 15.6705 221.738 16.5057C221.738 17.3466 221.863 18.1165 222.113 18.8153C222.369 19.5142 222.758 20.0739 223.281 20.4943C223.809 20.9148 224.474 21.125 225.275 21.125ZM242.506 17.571V9.90909H245.062V23H242.557V20.733H242.42C242.119 21.4318 241.636 22.0142 240.972 22.4801C240.313 22.9403 239.491 23.1705 238.509 23.1705C237.668 23.1705 236.923 22.9858 236.276 22.6165C235.634 22.2415 235.128 21.6875 234.759 20.9545C234.395 20.2216 234.213 19.3153 234.213 18.2358V9.90909H236.761V17.929C236.761 18.821 237.009 19.5312 237.503 20.0597C237.997 20.5881 238.639 20.8523 239.429 20.8523C239.906 20.8523 240.381 20.733 240.852 20.4943C241.33 20.2557 241.724 19.8949 242.037 19.4119C242.355 18.929 242.511 18.3153 242.506 17.571ZM257.676 23L253.824 9.90909H256.457L259.023 19.5227H259.151L261.724 9.90909H264.358L266.915 19.4801H267.043L269.591 9.90909H272.224L268.381 23H265.781L263.122 13.5483H262.926L260.267 23H257.676ZM274.643 23V9.90909H277.191V23H274.643ZM275.93 7.8892C275.487 7.8892 275.106 7.74148 274.788 7.44602C274.475 7.14489 274.319 6.78693 274.319 6.37216C274.319 5.9517 274.475 5.59375 274.788 5.29829C275.106 4.99716 275.487 4.84659 275.93 4.84659C276.373 4.84659 276.751 4.99716 277.063 5.29829C277.381 5.59375 277.54 5.9517 277.54 6.37216C277.54 6.78693 277.381 7.14489 277.063 7.44602C276.751 7.74148 276.373 7.8892 275.93 7.8892ZM283.168 5.54545V23H280.619V5.54545H283.168ZM289.144 5.54545V23H286.596V5.54545H289.144ZM299.129 23V5.54545H301.677V12.0312H301.83C301.978 11.7585 302.191 11.4432 302.469 11.0852C302.748 10.7273 303.134 10.4148 303.629 10.1477C304.123 9.875 304.776 9.73864 305.589 9.73864C306.646 9.73864 307.589 10.0057 308.418 10.5398C309.248 11.0739 309.898 11.8437 310.37 12.8494C310.847 13.8551 311.086 15.0653 311.086 16.4801C311.086 17.8949 310.85 19.108 310.379 20.1193C309.907 21.125 309.259 21.9006 308.435 22.446C307.612 22.9858 306.671 23.2557 305.614 23.2557C304.819 23.2557 304.168 23.1222 303.663 22.8551C303.163 22.5881 302.771 22.2756 302.487 21.9176C302.202 21.5597 301.984 21.2415 301.83 20.9631H301.617V23H299.129ZM301.626 16.4545C301.626 17.375 301.759 18.1818 302.026 18.875C302.293 19.5682 302.68 20.1108 303.185 20.5028C303.691 20.8892 304.31 21.0824 305.043 21.0824C305.805 21.0824 306.441 20.8807 306.952 20.4773C307.464 20.0682 307.85 19.5142 308.112 18.8153C308.379 18.1165 308.512 17.3295 308.512 16.4545C308.512 15.5909 308.381 14.8153 308.12 14.1278C307.864 13.4403 307.478 12.8977 306.961 12.5C306.45 12.1023 305.81 11.9034 305.043 11.9034C304.305 11.9034 303.68 12.0937 303.168 12.4744C302.663 12.8551 302.279 13.3864 302.018 14.0682C301.756 14.75 301.626 15.5455 301.626 16.4545ZM319.589 23.2642C318.3 23.2642 317.189 22.9886 316.257 22.4375C315.331 21.8807 314.615 21.0994 314.109 20.0938C313.609 19.0824 313.359 17.8977 313.359 16.5398C313.359 15.1989 313.609 14.017 314.109 12.9943C314.615 11.9716 315.32 11.1733 316.223 10.5994C317.132 10.0256 318.195 9.73864 319.411 9.73864C320.149 9.73864 320.865 9.8608 321.558 10.1051C322.251 10.3494 322.874 10.733 323.425 11.2557C323.976 11.7784 324.411 12.4574 324.729 13.2926C325.047 14.1222 325.206 15.1307 325.206 16.3182V17.2216H314.8V15.3125H322.709C322.709 14.642 322.572 14.0483 322.3 13.5312C322.027 13.0085 321.643 12.5966 321.149 12.2955C320.661 11.9943 320.087 11.8438 319.428 11.8438C318.712 11.8438 318.087 12.0199 317.553 12.3722C317.024 12.7187 316.615 13.1733 316.325 13.7358C316.041 14.2926 315.899 14.8977 315.899 15.5511V17.0426C315.899 17.9176 316.053 18.6619 316.359 19.2756C316.672 19.8892 317.107 20.358 317.663 20.6818C318.22 21 318.871 21.1591 319.615 21.1591C320.098 21.1591 320.538 21.0909 320.936 20.9545C321.334 20.8125 321.678 20.6023 321.967 20.3239C322.257 20.0455 322.479 19.7017 322.632 19.2926L325.044 19.7273C324.851 20.4375 324.504 21.0597 324.004 21.5938C323.51 22.1222 322.888 22.5341 322.138 22.8295C321.393 23.1193 320.544 23.2642 319.589 23.2642ZM338.195 23.2898C337.365 23.2898 336.615 23.1364 335.945 22.8295C335.274 22.517 334.743 22.0653 334.351 21.4744C333.964 20.8835 333.771 20.1591 333.771 19.3011C333.771 18.5625 333.913 17.9545 334.197 17.4773C334.482 17 334.865 16.6222 335.348 16.3438C335.831 16.0653 336.371 15.8551 336.967 15.7131C337.564 15.571 338.172 15.4631 338.791 15.3892C339.575 15.2983 340.212 15.2244 340.7 15.1676C341.189 15.1051 341.544 15.0057 341.766 14.8693C341.987 14.733 342.098 14.5114 342.098 14.2045V14.1449C342.098 13.4006 341.888 12.8239 341.467 12.4148C341.053 12.0057 340.433 11.8011 339.609 11.8011C338.751 11.8011 338.075 11.9915 337.581 12.3722C337.092 12.7472 336.754 13.1648 336.567 13.625L334.172 13.0795C334.456 12.2841 334.871 11.642 335.416 11.1534C335.967 10.6591 336.601 10.3011 337.317 10.0795C338.033 9.85227 338.786 9.73864 339.575 9.73864C340.098 9.73864 340.652 9.80114 341.237 9.92614C341.828 10.0455 342.379 10.267 342.891 10.5909C343.408 10.9148 343.831 11.3778 344.161 11.9801C344.49 12.5767 344.655 13.3523 344.655 14.3068V23H342.166V21.2102H342.064C341.899 21.5398 341.652 21.8636 341.322 22.1818C340.993 22.5 340.57 22.7642 340.053 22.9744C339.536 23.1847 338.916 23.2898 338.195 23.2898ZM338.749 21.2443C339.453 21.2443 340.055 21.1051 340.555 20.8267C341.061 20.5483 341.445 20.1847 341.706 19.7358C341.973 19.2812 342.107 18.7955 342.107 18.2784V16.5909C342.016 16.6818 341.839 16.767 341.578 16.8466C341.322 16.9205 341.03 16.9858 340.7 17.0426C340.371 17.0937 340.05 17.142 339.737 17.1875C339.425 17.2273 339.163 17.2614 338.953 17.2898C338.459 17.3523 338.007 17.4574 337.598 17.6051C337.195 17.7528 336.871 17.9659 336.626 18.2443C336.388 18.517 336.268 18.8807 336.268 19.3352C336.268 19.9659 336.501 20.4432 336.967 20.767C337.433 21.0852 338.027 21.2443 338.749 21.2443ZM1.71307 52V38.9091H4.17614V40.9886H4.3125C4.55114 40.2841 4.97159 39.7301 5.57386 39.3267C6.18182 38.9176 6.86932 38.7131 7.63636 38.7131C7.79545 38.7131 7.98295 38.7187 8.19886 38.7301C8.42045 38.7415 8.59375 38.7557 8.71875 38.7727V41.2102C8.61648 41.1818 8.43466 41.1506 8.1733 41.1165C7.91193 41.0767 7.65057 41.0568 7.3892 41.0568C6.78693 41.0568 6.25 41.1847 5.77841 41.4403C5.3125 41.6903 4.94318 42.0398 4.67045 42.4886C4.39773 42.9318 4.26136 43.4375 4.26136 44.0057V52H1.71307ZM16.0973 52.2642C14.8075 52.2642 13.6967 51.9886 12.7649 51.4375C11.8388 50.8807 11.1229 50.0994 10.6172 49.0938C10.1172 48.0824 9.86719 46.8977 9.86719 45.5398C9.86719 44.1989 10.1172 43.017 10.6172 41.9943C11.1229 40.9716 11.8274 40.1733 12.7308 39.5994C13.6399 39.0256 14.7024 38.7386 15.9183 38.7386C16.657 38.7386 17.3729 38.8608 18.0661 39.1051C18.7592 39.3494 19.3814 39.733 19.9325 40.2557C20.4837 40.7784 20.9183 41.4574 21.2365 42.2926C21.5547 43.1222 21.7138 44.1307 21.7138 45.3182V46.2216H11.3075V44.3125H19.2166C19.2166 43.642 19.0803 43.0483 18.8075 42.5312C18.5348 42.0085 18.1513 41.5966 17.657 41.2955C17.1683 40.9943 16.5945 40.8438 15.9354 40.8438C15.2195 40.8438 14.5945 41.0199 14.0604 41.3722C13.532 41.7187 13.1229 42.1733 12.8331 42.7358C12.549 43.2926 12.407 43.8977 12.407 44.5511V46.0426C12.407 46.9176 12.5604 47.6619 12.8672 48.2756C13.1797 48.8892 13.6143 49.358 14.1712 49.6818C14.728 50 15.3786 50.1591 16.1229 50.1591C16.6058 50.1591 17.0462 50.0909 17.4439 49.9545C17.8416 49.8125 18.1854 49.6023 18.4751 49.3239C18.7649 49.0455 18.9865 48.7017 19.1399 48.2926L21.5518 48.7273C21.3587 49.4375 21.0121 50.0597 20.5121 50.5938C20.0178 51.1222 19.3956 51.5341 18.6456 51.8295C17.9013 52.1193 17.0518 52.2642 16.0973 52.2642ZM30.0554 52.2642C28.7884 52.2642 27.6974 51.9773 26.7827 51.4034C25.8736 50.8239 25.1747 50.0256 24.6861 49.0085C24.1974 47.9915 23.9531 46.8267 23.9531 45.5142C23.9531 44.1847 24.2031 43.0114 24.7031 41.9943C25.2031 40.9716 25.9077 40.1733 26.8168 39.5994C27.7259 39.0256 28.7969 38.7386 30.0298 38.7386C31.0241 38.7386 31.9105 38.9233 32.6889 39.2926C33.4673 39.6562 34.0952 40.1676 34.5724 40.8267C35.0554 41.4858 35.3423 42.2557 35.4332 43.1364H32.9531C32.8168 42.5227 32.5043 41.9943 32.0156 41.5511C31.5327 41.108 30.8849 40.8864 30.0724 40.8864C29.3622 40.8864 28.7401 41.0739 28.206 41.4489C27.6776 41.8182 27.2656 42.3466 26.9702 43.0341C26.6747 43.7159 26.527 44.5227 26.527 45.4545C26.527 46.4091 26.6719 47.233 26.9616 47.9261C27.2514 48.6193 27.6605 49.1562 28.1889 49.5369C28.723 49.9176 29.3509 50.108 30.0724 50.108C30.5554 50.108 30.9929 50.0199 31.3849 49.8438C31.7827 49.6619 32.1151 49.4034 32.3821 49.0682C32.6548 48.733 32.8452 48.3295 32.9531 47.858H35.4332C35.3423 48.7045 35.0668 49.4602 34.6065 50.125C34.1463 50.7898 33.5298 51.3125 32.7571 51.6932C31.9901 52.0739 31.0895 52.2642 30.0554 52.2642ZM43.6726 52.2642C42.4453 52.2642 41.3743 51.983 40.4595 51.4205C39.5447 50.858 38.8345 50.071 38.3288 49.0597C37.8232 48.0483 37.5703 46.8665 37.5703 45.5142C37.5703 44.1562 37.8232 42.9687 38.3288 41.9517C38.8345 40.9347 39.5447 40.1449 40.4595 39.5824C41.3743 39.0199 42.4453 38.7386 43.6726 38.7386C44.8999 38.7386 45.9709 39.0199 46.8857 39.5824C47.8004 40.1449 48.5107 40.9347 49.0163 41.9517C49.522 42.9687 49.7749 44.1562 49.7749 45.5142C49.7749 46.8665 49.522 48.0483 49.0163 49.0597C48.5107 50.071 47.8004 50.858 46.8857 51.4205C45.9709 51.983 44.8999 52.2642 43.6726 52.2642ZM43.6811 50.125C44.4766 50.125 45.1357 49.9148 45.6584 49.4943C46.1811 49.0739 46.5675 48.5142 46.8175 47.8153C47.0732 47.1165 47.201 46.3466 47.201 45.5057C47.201 44.6705 47.0732 43.9034 46.8175 43.2045C46.5675 42.5 46.1811 41.9347 45.6584 41.5085C45.1357 41.0824 44.4766 40.8693 43.6811 40.8693C42.88 40.8693 42.2152 41.0824 41.6868 41.5085C41.1641 41.9347 40.7749 42.5 40.5192 43.2045C40.2692 43.9034 40.1442 44.6705 40.1442 45.5057C40.1442 46.3466 40.2692 47.1165 40.5192 47.8153C40.7749 48.5142 41.1641 49.0739 41.6868 49.4943C42.2152 49.9148 42.88 50.125 43.6811 50.125ZM52.6193 52V38.9091H55.0653V41.0398H55.2273C55.5 40.3182 55.946 39.7557 56.5653 39.3523C57.1847 38.9432 57.9261 38.7386 58.7898 38.7386C59.6648 38.7386 60.3977 38.9432 60.9886 39.3523C61.5852 39.7614 62.0256 40.3239 62.3097 41.0398H62.446C62.7585 40.3409 63.2557 39.7841 63.9375 39.3693C64.6193 38.9489 65.4318 38.7386 66.375 38.7386C67.5625 38.7386 68.5312 39.1108 69.2812 39.8551C70.0369 40.5994 70.4148 41.7216 70.4148 43.2216V52H67.8665V43.4602C67.8665 42.5739 67.625 41.9318 67.142 41.5341C66.6591 41.1364 66.0824 40.9375 65.4119 40.9375C64.5824 40.9375 63.9375 41.1932 63.4773 41.7045C63.017 42.2102 62.7869 42.8608 62.7869 43.6562V52H60.2472V43.2983C60.2472 42.5881 60.0256 42.017 59.5824 41.5852C59.1392 41.1534 58.5625 40.9375 57.8523 40.9375C57.3693 40.9375 56.9233 41.0653 56.5142 41.321C56.1108 41.571 55.7841 41.9205 55.5341 42.3693C55.2898 42.8182 55.1676 43.3381 55.1676 43.929V52H52.6193ZM73.8303 52V38.9091H76.2763V41.0398H76.4382C76.7109 40.3182 77.157 39.7557 77.7763 39.3523C78.3956 38.9432 79.1371 38.7386 80.0007 38.7386C80.8757 38.7386 81.6087 38.9432 82.1996 39.3523C82.7962 39.7614 83.2365 40.3239 83.5206 41.0398H83.657C83.9695 40.3409 84.4666 39.7841 85.1484 39.3693C85.8303 38.9489 86.6428 38.7386 87.5859 38.7386C88.7734 38.7386 89.7422 39.1108 90.4922 39.8551C91.2479 40.5994 91.6257 41.7216 91.6257 43.2216V52H89.0774V43.4602C89.0774 42.5739 88.8359 41.9318 88.353 41.5341C87.87 41.1364 87.2933 40.9375 86.6229 40.9375C85.7933 40.9375 85.1484 41.1932 84.6882 41.7045C84.228 42.2102 83.9979 42.8608 83.9979 43.6562V52H81.4581V43.2983C81.4581 42.5881 81.2365 42.017 80.7933 41.5852C80.3501 41.1534 79.7734 40.9375 79.0632 40.9375C78.5803 40.9375 78.1342 41.0653 77.7251 41.321C77.3217 41.571 76.995 41.9205 76.745 42.3693C76.5007 42.8182 76.3786 43.3381 76.3786 43.929V52H73.8303ZM100.683 52.2642C99.3935 52.2642 98.2827 51.9886 97.3509 51.4375C96.4247 50.8807 95.7088 50.0994 95.2031 49.0938C94.7031 48.0824 94.4531 46.8977 94.4531 45.5398C94.4531 44.1989 94.7031 43.017 95.2031 41.9943C95.7088 40.9716 96.4134 40.1733 97.3168 39.5994C98.2259 39.0256 99.2884 38.7386 100.504 38.7386C101.243 38.7386 101.959 38.8608 102.652 39.1051C103.345 39.3494 103.967 39.733 104.518 40.2557C105.07 40.7784 105.504 41.4574 105.822 42.2926C106.141 43.1222 106.3 44.1307 106.3 45.3182V46.2216H95.8935V44.3125H103.803C103.803 43.642 103.666 43.0483 103.393 42.5312C103.121 42.0085 102.737 41.5966 102.243 41.2955C101.754 40.9943 101.18 40.8438 100.521 40.8438C99.8054 40.8438 99.1804 41.0199 98.6463 41.3722C98.1179 41.7187 97.7088 42.1733 97.419 42.7358C97.1349 43.2926 96.9929 43.8977 96.9929 44.5511V46.0426C96.9929 46.9176 97.1463 47.6619 97.4531 48.2756C97.7656 48.8892 98.2003 49.358 98.7571 49.6818C99.3139 50 99.9645 50.1591 100.709 50.1591C101.192 50.1591 101.632 50.0909 102.03 49.9545C102.428 49.8125 102.771 49.6023 103.061 49.3239C103.351 49.0455 103.572 48.7017 103.726 48.2926L106.138 48.7273C105.945 49.4375 105.598 50.0597 105.098 50.5938C104.604 51.1222 103.982 51.5341 103.232 51.8295C102.487 52.1193 101.638 52.2642 100.683 52.2642ZM111.675 44.2273V52H109.127V38.9091H111.573V41.0398H111.735C112.036 40.3466 112.508 39.7898 113.15 39.3693C113.798 38.9489 114.613 38.7386 115.596 38.7386C116.488 38.7386 117.269 38.9261 117.94 39.3011C118.61 39.6705 119.13 40.2216 119.499 40.9545C119.869 41.6875 120.053 42.5937 120.053 43.6733V52H117.505V43.9801C117.505 43.0312 117.258 42.2898 116.763 41.7557C116.269 41.2159 115.59 40.946 114.727 40.946C114.136 40.946 113.61 41.0739 113.15 41.3295C112.695 41.5852 112.335 41.9602 112.067 42.4545C111.806 42.9432 111.675 43.5341 111.675 44.2273ZM128.371 52.2557C127.315 52.2557 126.371 51.9858 125.542 51.446C124.718 50.9006 124.07 50.125 123.599 49.1193C123.133 48.108 122.9 46.8949 122.9 45.4801C122.9 44.0653 123.136 42.8551 123.607 41.8494C124.085 40.8437 124.738 40.0739 125.567 39.5398C126.397 39.0057 127.337 38.7386 128.388 38.7386C129.201 38.7386 129.854 38.875 130.349 39.1477C130.849 39.4148 131.235 39.7273 131.508 40.0852C131.786 40.4432 132.002 40.7585 132.156 41.0312H132.309V34.5455H134.857V52H132.369V49.9631H132.156C132.002 50.2415 131.781 50.5597 131.491 50.9176C131.207 51.2756 130.815 51.5881 130.315 51.8551C129.815 52.1222 129.167 52.2557 128.371 52.2557ZM128.934 50.0824C129.667 50.0824 130.286 49.8892 130.792 49.5028C131.303 49.1108 131.69 48.5682 131.951 47.875C132.218 47.1818 132.352 46.375 132.352 45.4545C132.352 44.5455 132.221 43.75 131.96 43.0682C131.698 42.3864 131.315 41.8551 130.809 41.4744C130.303 41.0937 129.678 40.9034 128.934 40.9034C128.167 40.9034 127.528 41.1023 127.016 41.5C126.505 41.8977 126.119 42.4403 125.857 43.1278C125.602 43.8153 125.474 44.5909 125.474 45.4545C125.474 46.3295 125.604 47.1165 125.866 47.8153C126.127 48.5142 126.513 49.0682 127.025 49.4773C127.542 49.8807 128.178 50.0824 128.934 50.0824ZM144.136 52.2642C142.847 52.2642 141.736 51.9886 140.804 51.4375C139.878 50.8807 139.162 50.0994 138.656 49.0938C138.156 48.0824 137.906 46.8977 137.906 45.5398C137.906 44.1989 138.156 43.017 138.656 41.9943C139.162 40.9716 139.866 40.1733 140.77 39.5994C141.679 39.0256 142.741 38.7386 143.957 38.7386C144.696 38.7386 145.412 38.8608 146.105 39.1051C146.798 39.3494 147.42 39.733 147.972 40.2557C148.523 40.7784 148.957 41.4574 149.276 42.2926C149.594 43.1222 149.753 44.1307 149.753 45.3182V46.2216H139.347V44.3125H147.256C147.256 43.642 147.119 43.0483 146.847 42.5312C146.574 42.0085 146.19 41.5966 145.696 41.2955C145.207 40.9943 144.634 40.8438 143.974 40.8438C143.259 40.8438 142.634 41.0199 142.099 41.3722C141.571 41.7187 141.162 42.1733 140.872 42.7358C140.588 43.2926 140.446 43.8977 140.446 44.5511V46.0426C140.446 46.9176 140.599 47.6619 140.906 48.2756C141.219 48.8892 141.653 49.358 142.21 49.6818C142.767 50 143.418 50.1591 144.162 50.1591C144.645 50.1591 145.085 50.0909 145.483 49.9545C145.881 49.8125 146.224 49.6023 146.514 49.3239C146.804 49.0455 147.026 48.7017 147.179 48.2926L149.591 48.7273C149.398 49.4375 149.051 50.0597 148.551 50.5938C148.057 51.1222 147.435 51.5341 146.685 51.8295C145.94 52.1193 145.091 52.2642 144.136 52.2642ZM157.481 52.2557C156.424 52.2557 155.481 51.9858 154.651 51.446C153.827 50.9006 153.18 50.125 152.708 49.1193C152.242 48.108 152.009 46.8949 152.009 45.4801C152.009 44.0653 152.245 42.8551 152.717 41.8494C153.194 40.8437 153.847 40.0739 154.677 39.5398C155.506 39.0057 156.447 38.7386 157.498 38.7386C158.31 38.7386 158.964 38.875 159.458 39.1477C159.958 39.4148 160.344 39.7273 160.617 40.0852C160.896 40.4432 161.112 40.7585 161.265 41.0312H161.418V34.5455H163.967V52H161.478V49.9631H161.265C161.112 50.2415 160.89 50.5597 160.6 50.9176C160.316 51.2756 159.924 51.5881 159.424 51.8551C158.924 52.1222 158.276 52.2557 157.481 52.2557ZM158.043 50.0824C158.776 50.0824 159.396 49.8892 159.901 49.5028C160.413 49.1108 160.799 48.5682 161.06 47.875C161.327 47.1818 161.461 46.375 161.461 45.4545C161.461 44.5455 161.33 43.75 161.069 43.0682C160.808 42.3864 160.424 41.8551 159.918 41.4744C159.413 41.0937 158.788 40.9034 158.043 40.9034C157.276 40.9034 156.637 41.1023 156.126 41.5C155.614 41.8977 155.228 42.4403 154.967 43.1278C154.711 43.8153 154.583 44.5909 154.583 45.4545C154.583 46.3295 154.714 47.1165 154.975 47.8153C155.237 48.5142 155.623 49.0682 156.134 49.4773C156.651 49.8807 157.288 50.0824 158.043 50.0824ZM183.765 42.1051L181.455 42.5142C181.359 42.2187 181.205 41.9375 180.995 41.6705C180.79 41.4034 180.512 41.1847 180.16 41.0142C179.808 40.8437 179.367 40.7585 178.839 40.7585C178.117 40.7585 177.515 40.9205 177.032 41.2443C176.549 41.5625 176.308 41.9744 176.308 42.4801C176.308 42.9176 176.469 43.2699 176.793 43.5369C177.117 43.804 177.64 44.0227 178.362 44.1932L180.441 44.6705C181.646 44.9489 182.543 45.3778 183.134 45.9574C183.725 46.5369 184.021 47.2898 184.021 48.2159C184.021 49 183.793 49.6989 183.339 50.3125C182.89 50.9205 182.262 51.3977 181.455 51.7443C180.654 52.0909 179.725 52.2642 178.668 52.2642C177.202 52.2642 176.006 51.9517 175.08 51.3267C174.154 50.696 173.586 49.8011 173.376 48.642L175.839 48.267C175.992 48.9091 176.308 49.3949 176.785 49.7244C177.262 50.0483 177.884 50.2102 178.651 50.2102C179.487 50.2102 180.154 50.0369 180.654 49.6903C181.154 49.3381 181.404 48.9091 181.404 48.4034C181.404 47.9943 181.251 47.6506 180.944 47.3722C180.643 47.0937 180.18 46.8835 179.555 46.7415L177.339 46.2557C176.117 45.9773 175.214 45.5341 174.629 44.9261C174.049 44.3182 173.759 43.5483 173.759 42.6165C173.759 41.8437 173.975 41.1676 174.407 40.5881C174.839 40.0085 175.435 39.5568 176.197 39.233C176.958 38.9034 177.83 38.7386 178.813 38.7386C180.228 38.7386 181.342 39.0455 182.154 39.6591C182.967 40.267 183.504 41.0824 183.765 42.1051ZM186.822 56.9091V38.9091H189.311V41.0312H189.524C189.672 40.7585 189.885 40.4432 190.163 40.0852C190.442 39.7273 190.828 39.4148 191.322 39.1477C191.817 38.875 192.47 38.7386 193.283 38.7386C194.339 38.7386 195.283 39.0057 196.112 39.5398C196.942 40.0739 197.592 40.8437 198.064 41.8494C198.541 42.8551 198.78 44.0653 198.78 45.4801C198.78 46.8949 198.544 48.108 198.072 49.1193C197.601 50.125 196.953 50.9006 196.129 51.446C195.305 51.9858 194.365 52.2557 193.308 52.2557C192.513 52.2557 191.862 52.1222 191.357 51.8551C190.857 51.5881 190.464 51.2756 190.18 50.9176C189.896 50.5597 189.678 50.2415 189.524 49.9631H189.371V56.9091H186.822ZM189.32 45.4545C189.32 46.375 189.453 47.1818 189.72 47.875C189.987 48.5682 190.374 49.1108 190.879 49.5028C191.385 49.8892 192.004 50.0824 192.737 50.0824C193.499 50.0824 194.135 49.8807 194.646 49.4773C195.158 49.0682 195.544 48.5142 195.805 47.8153C196.072 47.1165 196.206 46.3295 196.206 45.4545C196.206 44.5909 196.075 43.8153 195.814 43.1278C195.558 42.4403 195.172 41.8977 194.655 41.5C194.143 41.1023 193.504 40.9034 192.737 40.9034C191.999 40.9034 191.374 41.0937 190.862 41.4744C190.357 41.8551 189.973 42.3864 189.712 43.0682C189.45 43.75 189.32 44.5455 189.32 45.4545ZM207.277 52.2642C205.987 52.2642 204.876 51.9886 203.945 51.4375C203.018 50.8807 202.303 50.0994 201.797 49.0938C201.297 48.0824 201.047 46.8977 201.047 45.5398C201.047 44.1989 201.297 43.017 201.797 41.9943C202.303 40.9716 203.007 40.1733 203.911 39.5994C204.82 39.0256 205.882 38.7386 207.098 38.7386C207.837 38.7386 208.553 38.8608 209.246 39.1051C209.939 39.3494 210.561 39.733 211.112 40.2557C211.663 40.7784 212.098 41.4574 212.416 42.2926C212.734 43.1222 212.893 44.1307 212.893 45.3182V46.2216H202.487V44.3125H210.396C210.396 43.642 210.26 43.0483 209.987 42.5312C209.714 42.0085 209.331 41.5966 208.837 41.2955C208.348 40.9943 207.774 40.8438 207.115 40.8438C206.399 40.8438 205.774 41.0199 205.24 41.3722C204.712 41.7187 204.303 42.1733 204.013 42.7358C203.729 43.2926 203.587 43.8977 203.587 44.5511V46.0426C203.587 46.9176 203.74 47.6619 204.047 48.2756C204.359 48.8892 204.794 49.358 205.351 49.6818C205.908 50 206.558 50.1591 207.303 50.1591C207.786 50.1591 208.226 50.0909 208.624 49.9545C209.021 49.8125 209.365 49.6023 209.655 49.3239C209.945 49.0455 210.166 48.7017 210.32 48.2926L212.732 48.7273C212.538 49.4375 212.192 50.0597 211.692 50.5938C211.197 51.1222 210.575 51.5341 209.825 51.8295C209.081 52.1193 208.232 52.2642 207.277 52.2642ZM221.235 52.2642C219.968 52.2642 218.877 51.9773 217.962 51.4034C217.053 50.8239 216.354 50.0256 215.866 49.0085C215.377 47.9915 215.133 46.8267 215.133 45.5142C215.133 44.1847 215.383 43.0114 215.883 41.9943C216.383 40.9716 217.087 40.1733 217.996 39.5994C218.906 39.0256 219.977 38.7386 221.21 38.7386C222.204 38.7386 223.09 38.9233 223.869 39.2926C224.647 39.6562 225.275 40.1676 225.752 40.8267C226.235 41.4858 226.522 42.2557 226.613 43.1364H224.133C223.996 42.5227 223.684 41.9943 223.195 41.5511C222.712 41.108 222.065 40.8864 221.252 40.8864C220.542 40.8864 219.92 41.0739 219.386 41.4489C218.857 41.8182 218.445 42.3466 218.15 43.0341C217.854 43.7159 217.707 44.5227 217.707 45.4545C217.707 46.4091 217.852 47.233 218.141 47.9261C218.431 48.6193 218.84 49.1562 219.369 49.5369C219.903 49.9176 220.531 50.108 221.252 50.108C221.735 50.108 222.173 50.0199 222.565 49.8438C222.962 49.6619 223.295 49.4034 223.562 49.0682C223.835 48.733 224.025 48.3295 224.133 47.858H226.613C226.522 48.7045 226.246 49.4602 225.786 50.125C225.326 50.7898 224.71 51.3125 223.937 51.6932C223.17 52.0739 222.269 52.2642 221.235 52.2642ZM229.338 52V38.9091H231.886V52H229.338ZM230.625 36.8892C230.182 36.8892 229.801 36.7415 229.483 36.446C229.17 36.1449 229.014 35.7869 229.014 35.3722C229.014 34.9517 229.17 34.5937 229.483 34.2983C229.801 33.9972 230.182 33.8466 230.625 33.8466C231.068 33.8466 231.446 33.9972 231.759 34.2983C232.077 34.5937 232.236 34.9517 232.236 35.3722C232.236 35.7869 232.077 36.1449 231.759 36.446C231.446 36.7415 231.068 36.8892 230.625 36.8892ZM239.124 52.2898C238.295 52.2898 237.545 52.1364 236.874 51.8295C236.204 51.517 235.673 51.0653 235.281 50.4744C234.894 49.8835 234.701 49.1591 234.701 48.3011C234.701 47.5625 234.843 46.9545 235.127 46.4773C235.411 46 235.795 45.6222 236.278 45.3438C236.761 45.0653 237.3 44.8551 237.897 44.7131C238.494 44.571 239.102 44.4631 239.721 44.3892C240.505 44.2983 241.141 44.2244 241.63 44.1676C242.119 44.1051 242.474 44.0057 242.695 43.8693C242.917 43.733 243.028 43.5114 243.028 43.2045V43.1449C243.028 42.4006 242.817 41.8239 242.397 41.4148C241.982 41.0057 241.363 40.8011 240.539 40.8011C239.681 40.8011 239.005 40.9915 238.511 41.3722C238.022 41.7472 237.684 42.1648 237.496 42.625L235.102 42.0795C235.386 41.2841 235.8 40.642 236.346 40.1534C236.897 39.6591 237.531 39.3011 238.246 39.0795C238.962 38.8523 239.715 38.7386 240.505 38.7386C241.028 38.7386 241.582 38.8011 242.167 38.9261C242.758 39.0455 243.309 39.267 243.82 39.5909C244.337 39.9148 244.761 40.3778 245.09 40.9801C245.42 41.5767 245.585 42.3523 245.585 43.3068V52H243.096V50.2102H242.994C242.829 50.5398 242.582 50.8636 242.252 51.1818C241.923 51.5 241.499 51.7642 240.982 51.9744C240.465 52.1847 239.846 52.2898 239.124 52.2898ZM239.678 50.2443C240.383 50.2443 240.985 50.1051 241.485 49.8267C241.991 49.5483 242.374 49.1847 242.636 48.7358C242.903 48.2812 243.036 47.7955 243.036 47.2784V45.5909C242.945 45.6818 242.769 45.767 242.508 45.8466C242.252 45.9205 241.96 45.9858 241.63 46.0426C241.3 46.0937 240.979 46.142 240.667 46.1875C240.354 46.2273 240.093 46.2614 239.883 46.2898C239.388 46.3523 238.937 46.4574 238.528 46.6051C238.124 46.7528 237.8 46.9659 237.556 47.2443C237.317 47.517 237.198 47.8807 237.198 48.3352C237.198 48.9659 237.431 49.4432 237.897 49.767C238.363 50.0852 238.957 50.2443 239.678 50.2443ZM251.527 34.5455V52H248.979V34.5455H251.527ZM254.955 52V38.9091H257.504V52H254.955ZM256.242 36.8892C255.799 36.8892 255.418 36.7415 255.1 36.446C254.788 36.1449 254.631 35.7869 254.631 35.3722C254.631 34.9517 254.788 34.5937 255.1 34.2983C255.418 33.9972 255.799 33.8466 256.242 33.8466C256.685 33.8466 257.063 33.9972 257.376 34.2983C257.694 34.5937 257.853 34.9517 257.853 35.3722C257.853 35.7869 257.694 36.1449 257.376 36.446C257.063 36.7415 256.685 36.8892 256.242 36.8892ZM270.741 42.1051L268.432 42.5142C268.335 42.2187 268.182 41.9375 267.972 41.6705C267.767 41.4034 267.489 41.1847 267.136 41.0142C266.784 40.8437 266.344 40.7585 265.815 40.7585C265.094 40.7585 264.491 40.9205 264.009 41.2443C263.526 41.5625 263.284 41.9744 263.284 42.4801C263.284 42.9176 263.446 43.2699 263.77 43.5369C264.094 43.804 264.616 44.0227 265.338 44.1932L267.418 44.6705C268.622 44.9489 269.52 45.3778 270.111 45.9574C270.702 46.5369 270.997 47.2898 270.997 48.2159C270.997 49 270.77 49.6989 270.315 50.3125C269.866 50.9205 269.239 51.3977 268.432 51.7443C267.631 52.0909 266.702 52.2642 265.645 52.2642C264.179 52.2642 262.983 51.9517 262.057 51.3267C261.131 50.696 260.563 49.8011 260.352 48.642L262.815 48.267C262.969 48.9091 263.284 49.3949 263.761 49.7244C264.239 50.0483 264.861 50.2102 265.628 50.2102C266.463 50.2102 267.131 50.0369 267.631 49.6903C268.131 49.3381 268.381 48.9091 268.381 48.4034C268.381 47.9943 268.227 47.6506 267.92 47.3722C267.619 47.0937 267.156 46.8835 266.531 46.7415L264.315 46.2557C263.094 45.9773 262.19 45.5341 261.605 44.9261C261.026 44.3182 260.736 43.5483 260.736 42.6165C260.736 41.8437 260.952 41.1676 261.384 40.5881C261.815 40.0085 262.412 39.5568 263.173 39.233C263.935 38.9034 264.807 38.7386 265.79 38.7386C267.205 38.7386 268.318 39.0455 269.131 39.6591C269.943 40.267 270.48 41.0824 270.741 42.1051ZM279.91 38.9091V40.9545H272.759V38.9091H279.91ZM274.677 35.7727H277.225V48.1562C277.225 48.6506 277.299 49.0227 277.447 49.2727C277.594 49.517 277.785 49.6847 278.018 49.7756C278.256 49.8608 278.515 49.9034 278.793 49.9034C278.998 49.9034 279.177 49.8892 279.33 49.8608C279.484 49.8324 279.603 49.8097 279.688 49.7926L280.148 51.8977C280.001 51.9545 279.79 52.0114 279.518 52.0682C279.245 52.1307 278.904 52.1648 278.495 52.1705C277.825 52.1818 277.2 52.0625 276.62 51.8125C276.04 51.5625 275.572 51.1761 275.214 50.6534C274.856 50.1307 274.677 49.4744 274.677 48.6847V35.7727ZM289.08 52V38.9091H291.629V52H289.08ZM290.367 36.8892C289.924 36.8892 289.543 36.7415 289.225 36.446C288.913 36.1449 288.756 35.7869 288.756 35.3722C288.756 34.9517 288.913 34.5937 289.225 34.2983C289.543 33.9972 289.924 33.8466 290.367 33.8466C290.81 33.8466 291.188 33.9972 291.501 34.2983C291.819 34.5937 291.978 34.9517 291.978 35.3722C291.978 35.7869 291.819 36.1449 291.501 36.446C291.188 36.7415 290.81 36.8892 290.367 36.8892ZM297.605 44.2273V52H295.057V38.9091H297.503V41.0398H297.665C297.966 40.3466 298.438 39.7898 299.08 39.3693C299.727 38.9489 300.543 38.7386 301.526 38.7386C302.418 38.7386 303.199 38.9261 303.869 39.3011C304.54 39.6705 305.06 40.2216 305.429 40.9545C305.798 41.6875 305.983 42.5937 305.983 43.6733V52H303.435V43.9801C303.435 43.0312 303.188 42.2898 302.693 41.7557C302.199 41.2159 301.52 40.946 300.656 40.946C300.065 40.946 299.54 41.0739 299.08 41.3295C298.625 41.5852 298.264 41.9602 297.997 42.4545C297.736 42.9432 297.605 43.5341 297.605 44.2273ZM317.363 56.9091C316.982 56.9091 316.636 56.8778 316.323 56.8153C316.011 56.7585 315.778 56.696 315.624 56.6278L316.238 54.5398C316.704 54.6648 317.119 54.7188 317.482 54.7017C317.846 54.6847 318.167 54.5483 318.445 54.2926C318.729 54.0369 318.979 53.6193 319.195 53.0398L319.511 52.1705L314.721 38.9091H317.448L320.763 49.0682H320.9L324.215 38.9091H326.951L321.556 53.7472C321.306 54.429 320.988 55.0057 320.602 55.4773C320.215 55.9545 319.755 56.3125 319.221 56.5511C318.687 56.7898 318.067 56.9091 317.363 56.9091ZM334.415 52.2642C333.188 52.2642 332.116 51.983 331.202 51.4205C330.287 50.858 329.577 50.071 329.071 49.0597C328.565 48.0483 328.312 46.8665 328.312 45.5142C328.312 44.1562 328.565 42.9687 329.071 41.9517C329.577 40.9347 330.287 40.1449 331.202 39.5824C332.116 39.0199 333.188 38.7386 334.415 38.7386C335.642 38.7386 336.713 39.0199 337.628 39.5824C338.543 40.1449 339.253 40.9347 339.759 41.9517C340.264 42.9687 340.517 44.1562 340.517 45.5142C340.517 46.8665 340.264 48.0483 339.759 49.0597C339.253 50.071 338.543 50.858 337.628 51.4205C336.713 51.983 335.642 52.2642 334.415 52.2642ZM334.423 50.125C335.219 50.125 335.878 49.9148 336.401 49.4943C336.923 49.0739 337.31 48.5142 337.56 47.8153C337.815 47.1165 337.943 46.3466 337.943 45.5057C337.943 44.6705 337.815 43.9034 337.56 43.2045C337.31 42.5 336.923 41.9347 336.401 41.5085C335.878 41.0824 335.219 40.8693 334.423 40.8693C333.622 40.8693 332.957 41.0824 332.429 41.5085C331.906 41.9347 331.517 42.5 331.261 43.2045C331.011 43.9034 330.886 44.6705 330.886 45.5057C330.886 46.3466 331.011 47.1165 331.261 47.8153C331.517 48.5142 331.906 49.0739 332.429 49.4943C332.957 49.9148 333.622 50.125 334.423 50.125ZM351.654 46.571V38.9091H354.211V52H351.705V49.733H351.569C351.268 50.4318 350.785 51.0142 350.12 51.4801C349.461 51.9403 348.64 52.1705 347.657 52.1705C346.816 52.1705 346.072 51.9858 345.424 51.6165C344.782 51.2415 344.276 50.6875 343.907 49.9545C343.543 49.2216 343.362 48.3153 343.362 47.2358V38.9091H345.91V46.929C345.91 47.821 346.157 48.5312 346.651 49.0597C347.146 49.5881 347.788 49.8523 348.577 49.8523C349.055 49.8523 349.529 49.733 350.001 49.4943C350.478 49.2557 350.873 48.8949 351.185 48.4119C351.504 47.929 351.66 47.3153 351.654 46.571ZM357.635 52V38.9091H360.098V40.9886H360.234C360.473 40.2841 360.893 39.7301 361.496 39.3267C362.104 38.9176 362.791 38.7131 363.558 38.7131C363.717 38.7131 363.905 38.7187 364.121 38.7301C364.342 38.7415 364.516 38.7557 364.641 38.7727V41.2102C364.538 41.1818 364.357 41.1506 364.095 41.1165C363.834 41.0767 363.572 41.0568 363.311 41.0568C362.709 41.0568 362.172 41.1847 361.7 41.4403C361.234 41.6903 360.865 42.0398 360.592 42.4886C360.32 42.9318 360.183 43.4375 360.183 44.0057V52H357.635ZM11.5227 71.1051L9.21307 71.5142C9.11648 71.2187 8.96307 70.9375 8.75284 70.6705C8.5483 70.4034 8.26989 70.1847 7.91761 70.0142C7.56534 69.8437 7.125 69.7585 6.59659 69.7585C5.875 69.7585 5.27273 69.9205 4.78977 70.2443C4.30682 70.5625 4.06534 70.9744 4.06534 71.4801C4.06534 71.9176 4.22727 72.2699 4.55114 72.5369C4.875 72.804 5.39773 73.0227 6.11932 73.1932L8.19886 73.6705C9.40341 73.9489 10.3011 74.3778 10.892 74.9574C11.483 75.5369 11.7784 76.2898 11.7784 77.2159C11.7784 78 11.5511 78.6989 11.0966 79.3125C10.6477 79.9205 10.0199 80.3977 9.21307 80.7443C8.41193 81.0909 7.48295 81.2642 6.42614 81.2642C4.96023 81.2642 3.7642 80.9517 2.83807 80.3267C1.91193 79.696 1.34375 78.8011 1.13352 77.642L3.59659 77.267C3.75 77.9091 4.06534 78.3949 4.54261 78.7244C5.01989 79.0483 5.64205 79.2102 6.40909 79.2102C7.24432 79.2102 7.91193 79.0369 8.41193 78.6903C8.91193 78.3381 9.16193 77.9091 9.16193 77.4034C9.16193 76.9943 9.00852 76.6506 8.7017 76.3722C8.40057 76.0937 7.9375 75.8835 7.3125 75.7415L5.09659 75.2557C3.875 74.9773 2.97159 74.5341 2.38636 73.9261C1.80682 73.3182 1.51705 72.5483 1.51705 71.6165C1.51705 70.8437 1.73295 70.1676 2.16477 69.5881C2.59659 69.0085 3.19318 68.5568 3.95455 68.233C4.71591 67.9034 5.58807 67.7386 6.57102 67.7386C7.9858 67.7386 9.09943 68.0455 9.91193 68.6591C10.7244 69.267 11.2614 70.0824 11.5227 71.1051ZM14.5803 85.9091V67.9091H17.0689V70.0312H17.282C17.4297 69.7585 17.6428 69.4432 17.9212 69.0852C18.1996 68.7273 18.5859 68.4148 19.0803 68.1477C19.5746 67.875 20.228 67.7386 21.0405 67.7386C22.0973 67.7386 23.0405 68.0057 23.87 68.5398C24.6996 69.0739 25.3501 69.8437 25.8217 70.8494C26.299 71.8551 26.5376 73.0653 26.5376 74.4801C26.5376 75.8949 26.3018 77.108 25.8303 78.1193C25.3587 79.125 24.7109 79.9006 23.8871 80.446C23.0632 80.9858 22.1229 81.2557 21.0661 81.2557C20.2706 81.2557 19.62 81.1222 19.1143 80.8551C18.6143 80.5881 18.2223 80.2756 17.9382 79.9176C17.6541 79.5597 17.4354 79.2415 17.282 78.9631H17.1286V85.9091H14.5803ZM17.0774 74.4545C17.0774 75.375 17.2109 76.1818 17.478 76.875C17.745 77.5682 18.1314 78.1108 18.6371 78.5028C19.1428 78.8892 19.7621 79.0824 20.495 79.0824C21.2564 79.0824 21.8928 78.8807 22.4041 78.4773C22.9155 78.0682 23.3018 77.5142 23.5632 76.8153C23.8303 76.1165 23.9638 75.3295 23.9638 74.4545C23.9638 73.5909 23.8331 72.8153 23.5717 72.1278C23.3161 71.4403 22.9297 70.8977 22.4126 70.5C21.9013 70.1023 21.2621 69.9034 20.495 69.9034C19.7564 69.9034 19.1314 70.0937 18.62 70.4744C18.1143 70.8551 17.7308 71.3864 17.4695 72.0682C17.2081 72.75 17.0774 73.5455 17.0774 74.4545ZM35.0348 81.2642C33.745 81.2642 32.6342 80.9886 31.7024 80.4375C30.7763 79.8807 30.0604 79.0994 29.5547 78.0938C29.0547 77.0824 28.8047 75.8977 28.8047 74.5398C28.8047 73.1989 29.0547 72.017 29.5547 70.9943C30.0604 69.9716 30.7649 69.1733 31.6683 68.5994C32.5774 68.0256 33.6399 67.7386 34.8558 67.7386C35.5945 67.7386 36.3104 67.8608 37.0036 68.1051C37.6967 68.3494 38.3189 68.733 38.87 69.2557C39.4212 69.7784 39.8558 70.4574 40.174 71.2926C40.4922 72.1222 40.6513 73.1307 40.6513 74.3182V75.2216H30.245V73.3125H38.1541C38.1541 72.642 38.0178 72.0483 37.745 71.5312C37.4723 71.0085 37.0888 70.5966 36.5945 70.2955C36.1058 69.9943 35.532 69.8438 34.8729 69.8438C34.157 69.8438 33.532 70.0199 32.9979 70.3722C32.4695 70.7187 32.0604 71.1733 31.7706 71.7358C31.4865 72.2926 31.3445 72.8977 31.3445 73.5511V75.0426C31.3445 75.9176 31.4979 76.6619 31.8047 77.2756C32.1172 77.8892 32.5518 78.358 33.1087 78.6818C33.6655 79 34.3161 79.1591 35.0604 79.1591C35.5433 79.1591 35.9837 79.0909 36.3814 78.9545C36.7791 78.8125 37.1229 78.6023 37.4126 78.3239C37.7024 78.0455 37.924 77.7017 38.0774 77.2926L40.4893 77.7273C40.2962 78.4375 39.9496 79.0597 39.4496 79.5938C38.9553 80.1222 38.3331 80.5341 37.5831 80.8295C36.8388 81.1193 35.9893 81.2642 35.0348 81.2642ZM48.9929 81.2642C47.7259 81.2642 46.6349 80.9773 45.7202 80.4034C44.8111 79.8239 44.1122 79.0256 43.6236 78.0085C43.1349 76.9915 42.8906 75.8267 42.8906 74.5142C42.8906 73.1847 43.1406 72.0114 43.6406 70.9943C44.1406 69.9716 44.8452 69.1733 45.7543 68.5994C46.6634 68.0256 47.7344 67.7386 48.9673 67.7386C49.9616 67.7386 50.848 67.9233 51.6264 68.2926C52.4048 68.6562 53.0327 69.1676 53.5099 69.8267C53.9929 70.4858 54.2798 71.2557 54.3707 72.1364H51.8906C51.7543 71.5227 51.4418 70.9943 50.9531 70.5511C50.4702 70.108 49.8224 69.8864 49.0099 69.8864C48.2997 69.8864 47.6776 70.0739 47.1435 70.4489C46.6151 70.8182 46.2031 71.3466 45.9077 72.0341C45.6122 72.7159 45.4645 73.5227 45.4645 74.4545C45.4645 75.4091 45.6094 76.233 45.8991 76.9261C46.1889 77.6193 46.598 78.1562 47.1264 78.5369C47.6605 78.9176 48.2884 79.108 49.0099 79.108C49.4929 79.108 49.9304 79.0199 50.3224 78.8438C50.7202 78.6619 51.0526 78.4034 51.3196 78.0682C51.5923 77.733 51.7827 77.3295 51.8906 76.858H54.3707C54.2798 77.7045 54.0043 78.4602 53.544 79.125C53.0838 79.7898 52.4673 80.3125 51.6946 80.6932C50.9276 81.0739 50.027 81.2642 48.9929 81.2642ZM57.0959 81V67.9091H59.6442V81H57.0959ZM58.3828 65.8892C57.9396 65.8892 57.5589 65.7415 57.2408 65.446C56.9283 65.1449 56.772 64.7869 56.772 64.3722C56.772 63.9517 56.9283 63.5937 57.2408 63.2983C57.5589 62.9972 57.9396 62.8466 58.3828 62.8466C58.826 62.8466 59.2038 62.9972 59.5163 63.2983C59.8345 63.5937 59.9936 63.9517 59.9936 64.3722C59.9936 64.7869 59.8345 65.1449 59.5163 65.446C59.2038 65.7415 58.826 65.8892 58.3828 65.8892ZM66.8821 81.2898C66.0526 81.2898 65.3026 81.1364 64.6321 80.8295C63.9616 80.517 63.4304 80.0653 63.0384 79.4744C62.652 78.8835 62.4588 78.1591 62.4588 77.3011C62.4588 76.5625 62.6009 75.9545 62.8849 75.4773C63.169 75 63.5526 74.6222 64.0355 74.3438C64.5185 74.0653 65.0582 73.8551 65.6548 73.7131C66.2514 73.571 66.8594 73.4631 67.4787 73.3892C68.2628 73.2983 68.8991 73.2244 69.3878 73.1676C69.8764 73.1051 70.2315 73.0057 70.4531 72.8693C70.6747 72.733 70.7855 72.5114 70.7855 72.2045V72.1449C70.7855 71.4006 70.5753 70.8239 70.1548 70.4148C69.7401 70.0057 69.1207 69.8011 68.2969 69.8011C67.4389 69.8011 66.7628 69.9915 66.2685 70.3722C65.7798 70.7472 65.4418 71.1648 65.2543 71.625L62.8594 71.0795C63.1435 70.2841 63.5582 69.642 64.1037 69.1534C64.6548 68.6591 65.2884 68.3011 66.0043 68.0795C66.7202 67.8523 67.473 67.7386 68.2628 67.7386C68.7855 67.7386 69.3395 67.8011 69.9247 67.9261C70.5156 68.0455 71.0668 68.267 71.5781 68.5909C72.0952 68.9148 72.5185 69.3778 72.848 69.9801C73.1776 70.5767 73.3423 71.3523 73.3423 72.3068V81H70.8537V79.2102H70.7514C70.5866 79.5398 70.3395 79.8636 70.0099 80.1818C69.6804 80.5 69.2571 80.7642 68.7401 80.9744C68.223 81.1847 67.6037 81.2898 66.8821 81.2898ZM67.4361 79.2443C68.1406 79.2443 68.7429 79.1051 69.2429 78.8267C69.7486 78.5483 70.1321 78.1847 70.3935 77.7358C70.6605 77.2812 70.794 76.7955 70.794 76.2784V74.5909C70.7031 74.6818 70.527 74.767 70.2656 74.8466C70.0099 74.9205 69.7173 74.9858 69.3878 75.0426C69.0582 75.0937 68.7372 75.142 68.4247 75.1875C68.1122 75.2273 67.8509 75.2614 67.6406 75.2898C67.1463 75.3523 66.6946 75.4574 66.2855 75.6051C65.8821 75.7528 65.5582 75.9659 65.3139 76.2443C65.0753 76.517 64.956 76.8807 64.956 77.3352C64.956 77.9659 65.1889 78.4432 65.6548 78.767C66.1207 79.0852 66.7145 79.2443 67.4361 79.2443ZM79.2848 63.5455V81H76.7365V63.5455H79.2848ZM88.8239 67.9091V69.9545H81.6733V67.9091H88.8239ZM83.5909 64.7727H86.1392V77.1562C86.1392 77.6506 86.2131 78.0227 86.3608 78.2727C86.5085 78.517 86.6989 78.6847 86.9318 78.7756C87.1705 78.8608 87.429 78.9034 87.7074 78.9034C87.9119 78.9034 88.0909 78.8892 88.2443 78.8608C88.3977 78.8324 88.517 78.8097 88.6023 78.7926L89.0625 80.8977C88.9148 80.9545 88.7045 81.0114 88.4318 81.0682C88.1591 81.1307 87.8182 81.1648 87.4091 81.1705C86.7386 81.1818 86.1136 81.0625 85.5341 80.8125C84.9545 80.5625 84.4858 80.1761 84.1278 79.6534C83.7699 79.1307 83.5909 78.4744 83.5909 77.6847V64.7727ZM93.2536 85.9091C92.8729 85.9091 92.5263 85.8778 92.2138 85.8153C91.9013 85.7585 91.6683 85.696 91.5149 85.6278L92.1286 83.5398C92.5945 83.6648 93.0092 83.7188 93.3729 83.7017C93.7365 83.6847 94.0575 83.5483 94.3359 83.2926C94.62 83.0369 94.87 82.6193 95.0859 82.0398L95.4013 81.1705L90.6115 67.9091H93.3388L96.6541 78.0682H96.7905L100.106 67.9091H102.842L97.4467 82.7472C97.1967 83.429 96.8786 84.0057 96.4922 84.4773C96.1058 84.9545 95.6456 85.3125 95.1115 85.5511C94.5774 85.7898 93.9581 85.9091 93.2536 85.9091ZM106.095 81.1619C105.629 81.1619 105.229 80.9972 104.893 80.6676C104.558 80.3324 104.391 79.929 104.391 79.4574C104.391 78.9915 104.558 78.5937 104.893 78.2642C105.229 77.929 105.629 77.7614 106.095 77.7614C106.561 77.7614 106.962 77.929 107.297 78.2642C107.632 78.5937 107.8 78.9915 107.8 79.4574C107.8 79.7699 107.72 80.0568 107.561 80.3182C107.408 80.5739 107.203 80.7784 106.947 80.9318C106.692 81.0852 106.408 81.1619 106.095 81.1619Z" fill="#091946"/>
</svg>
