<svg width="28" height="15" viewBox="0 0 28 15" fill="none" xmlns="http://www.w3.org/2000/svg">
<path d="M16.9548 7.21524C16.4429 7.03793 16.4429 6.36074 16.4111 5.88917C16.2831 4.20941 16.9231 1.64498 16.1551 0.554691C15.6114 -0.094198 12.9869 -0.0347794 11.3874 0.053877C10.9389 0.113296 10.3952 0.20101 10.0112 0.378323C9.6272 0.555635 9.2432 0.849898 9.2432 1.11492C9.2432 1.49784 10.2037 1.43937 10.5549 1.94018C10.9389 2.47118 10.9389 3.61994 10.9389 4.56309C10.9389 5.65338 10.7464 7.09829 10.2672 7.15676C9.53094 7.186 9.1152 6.50787 8.73121 6.00706C7.96322 5.03467 7.19523 3.82555 6.61872 2.64661C6.33098 2.0279 6.17022 1.34977 5.75448 1.08474C5.11448 0.671643 3.9625 0.642405 2.84226 0.671643C1.81827 0.700881 0.345777 0.582987 0.0580363 1.14322C-0.166217 1.76193 0.314033 2.3514 0.57003 2.85316C1.88176 5.47607 3.28974 7.77547 5.01823 9.95604C6.61872 11.9895 8.12194 13.6108 11.0659 14.4653C11.8984 14.701 15.5458 15.3792 16.2821 14.4653C16.5381 14.1116 16.4746 13.3156 16.6026 12.7261C16.7306 12.1366 16.8903 11.5471 17.4986 11.5179C18.0106 11.4887 18.2983 11.9008 18.6188 12.196C18.9711 12.5205 19.2588 12.7855 19.5148 13.0807C20.1231 13.6409 20.7631 14.4068 21.531 14.702C22.5868 15.1151 24.219 14.9972 25.755 14.9378C27.0032 14.9085 27.8992 14.6728 27.9955 13.9946C28.06 13.4636 27.419 12.6978 27.035 12.2555C26.0745 11.1652 25.627 10.8407 24.5385 9.83815C24.0582 9.39581 23.45 8.92423 23.45 8.39418C23.4183 8.06974 23.706 7.77547 23.962 7.45103C25.0822 5.9184 26.2025 4.82812 27.2265 3.23608C27.5142 2.7645 28.187 1.67422 27.931 1.14322C27.6432 0.553749 26.0427 0.730118 25.0505 0.730118C23.7705 0.730118 22.1065 0.641462 21.786 0.87725C21.1778 1.26017 20.9218 1.87982 20.634 2.46929C19.994 3.82555 19.1298 5.2101 18.2338 6.24191C17.9133 6.59559 17.3061 7.33219 16.9538 7.2143L16.9548 7.21524Z" fill="#091946"/>
</svg>
