<svg width="395" height="300" viewBox="0 0 395 300" fill="none" xmlns="http://www.w3.org/2000/svg">
<mask id="mask0_90_61" style="mask-type:alpha" maskUnits="userSpaceOnUse" x="0" y="0" width="395" height="300">
<rect width="395" height="300" rx="24" fill="white"/>
</mask>
<g mask="url(#mask0_90_61)">
<path d="M363.297 27.1312L380.765 133.419C381.257 136.411 383.619 138.746 386.617 139.203L493.101 155.435C494.058 155.581 494.27 156.867 493.409 157.312L397.722 206.77C395.028 208.162 393.537 211.131 394.028 214.123L411.496 320.411C411.654 321.367 410.496 321.965 409.807 321.284L333.201 245.563C331.044 243.431 327.76 242.931 325.066 244.323L229.378 293.781C228.518 294.226 227.591 293.309 228.025 292.444L276.368 196.188C277.729 193.478 277.19 190.2 275.033 188.068L198.427 112.347C197.738 111.666 198.323 110.501 199.281 110.647L305.764 126.879C308.762 127.336 311.713 125.81 313.074 123.1L361.416 26.8445C361.851 25.9789 363.14 26.1753 363.297 27.1312Z" stroke="#FFDFF8" stroke-width="6"/>
<path d="M351.626 112.553L359.259 159C359.751 161.993 362.114 164.328 365.112 164.785L411.644 171.878C412.602 172.024 412.813 173.31 411.953 173.755L370.138 195.368C367.444 196.76 365.953 199.729 366.445 202.721L374.078 249.168C374.235 250.124 373.077 250.723 372.388 250.042L338.912 216.952C336.755 214.82 333.471 214.32 330.777 215.712L288.962 237.325C288.101 237.77 287.174 236.853 287.609 235.988L308.734 193.925C310.095 191.215 309.557 187.936 307.4 185.804L273.923 152.715C273.235 152.034 273.819 150.869 274.777 151.015L321.31 158.108C324.308 158.565 327.259 157.04 328.62 154.33L349.745 112.267C350.18 111.401 351.469 111.597 351.626 112.553Z" stroke="#FFDFF8" stroke-opacity="0.5" stroke-width="6"/>
<rect x="171.243" y="140.402" width="85.6848" height="85.6848" rx="11.5" transform="rotate(29.2297 171.243 140.402)" stroke="#FFDFF8" stroke-width="5"/>
</g>
</svg>
