<svg width="395" height="300" viewBox="0 0 395 300" fill="none" xmlns="http://www.w3.org/2000/svg">
<mask id="mask0_91_64" style="mask-type:alpha" maskUnits="userSpaceOnUse" x="0" y="0" width="395" height="300">
<rect width="395" height="300" rx="24" fill="white"/>
</mask>
<g mask="url(#mask0_91_64)">
<path d="M354.386 30.3544C354.826 29.6493 355.884 29.7578 356.172 30.5375L380.094 95.3067C381.212 98.3352 384.257 100.206 387.464 99.8351L456.053 91.905C456.878 91.8095 457.453 92.7045 457.023 93.4157L421.299 152.501C419.629 155.264 420.065 158.811 422.354 161.087L471.319 209.767C471.908 210.353 471.567 211.361 470.743 211.468L402.274 220.377C399.073 220.794 396.572 223.346 396.219 226.555L388.688 295.189C388.598 296.015 387.597 296.377 386.999 295.799L337.345 247.823C335.023 245.58 331.468 245.215 328.739 246.941L270.384 283.845C269.681 284.29 268.775 283.733 268.854 282.905L275.404 214.171C275.71 210.957 273.778 207.951 270.728 206.893L205.491 184.279C204.706 184.006 204.576 182.951 205.272 182.496L263.094 144.762C265.798 142.998 266.944 139.613 265.869 136.569L242.875 71.4645C242.599 70.6808 243.343 69.9211 244.132 70.1821L309.686 91.8624C312.751 92.8762 316.112 91.6621 317.822 88.9235L354.386 30.3544Z" stroke="#E9EEFF" stroke-width="6"/>
<path d="M259.212 172.186L258.229 175.021L259.212 172.186C258.426 171.914 258.297 170.858 258.993 170.404L257.353 167.892L258.993 170.404L291.753 149.025C294.457 147.261 295.603 143.876 294.528 140.832L281.5 103.946C281.223 103.162 281.968 102.402 282.757 102.663L319.898 114.947C322.963 115.96 326.324 114.746 328.033 112.008L348.75 78.8244C349.19 78.1193 350.248 78.2278 350.536 79.0075L364.089 115.704C365.208 118.732 368.252 120.603 371.46 120.232L410.32 115.739C411.145 115.644 411.72 116.539 411.29 117.25L391.05 150.726C389.38 153.489 389.816 157.035 392.105 159.312L419.847 186.892C420.436 187.478 420.095 188.486 419.271 188.593L380.479 193.641C377.277 194.057 374.776 196.61 374.424 199.819L370.157 238.704C370.066 239.531 369.066 239.892 368.468 239.315L340.335 212.133C338.013 209.89 334.459 209.525 331.73 211.251L333.333 213.786L331.73 211.251L298.668 232.16C297.965 232.604 297.059 232.047 297.138 231.22L300.849 192.277C301.155 189.063 299.223 186.057 296.173 184.999L259.212 172.186Z" stroke="#E9EEFF" stroke-opacity="0.5" stroke-width="6"/>
<path d="M182.522 83.7008C182.685 82.5577 184.025 82.0204 184.933 82.7336L247.461 131.84C248.369 132.553 248.165 133.982 247.093 134.412L173.302 164.01C172.23 164.439 171.095 163.548 171.258 162.405L182.522 83.7008Z" stroke="#E9EEFF" stroke-width="5"/>
</g>
</svg>
