<svg width="395" height="300" viewBox="0 0 395 300" fill="none" xmlns="http://www.w3.org/2000/svg">
<mask id="mask0_92_37" style="mask-type:alpha" maskUnits="userSpaceOnUse" x="0" y="0" width="395" height="300">
<rect width="395" height="300" rx="24" fill="white"/>
</mask>
<g mask="url(#mask0_92_37)">
<path d="M303.604 72.0767L350.38 156.515C351.37 158.303 353.091 159.568 355.092 159.98L449.64 179.435C450.549 179.622 450.735 180.84 449.923 181.29L365.484 228.065C363.697 229.055 362.432 230.776 362.02 232.777L342.565 327.325C342.377 328.235 341.16 328.421 340.71 327.608L293.935 243.17C292.945 241.383 291.224 240.117 289.222 239.705L194.674 220.25C193.765 220.063 193.579 218.845 194.391 218.396L278.83 171.62C280.617 170.63 281.883 168.909 282.294 166.908L301.75 72.3597C301.937 71.4504 303.154 71.2646 303.604 72.0767Z" stroke="#FFDFF8" stroke-width="6"/>
<path d="M313.371 145.252L333.091 180.85C334.081 182.638 335.802 183.903 337.804 184.315L377.664 192.517C378.573 192.704 378.759 193.921 377.947 194.371L342.349 214.091C340.561 215.081 339.296 216.803 338.884 218.804L330.682 258.664C330.495 259.573 329.278 259.759 328.828 258.947L309.108 223.349C308.118 221.562 306.396 220.296 304.395 219.884L264.535 211.682C263.626 211.495 263.44 210.278 264.252 209.828L299.85 190.108C301.637 189.118 302.903 187.396 303.315 185.395L311.517 145.535C311.704 144.626 312.921 144.44 313.371 145.252Z" stroke="#FFDFF8" stroke-opacity="0.5" stroke-width="6"/>
<path d="M228.671 78.2582L231.259 110.184C231.412 112.075 232.384 113.804 233.919 114.919L259.839 133.736C260.966 134.554 260.467 136.332 259.079 136.445L227.153 139.033C225.263 139.186 223.533 140.158 222.419 141.693L203.602 167.613C202.783 168.74 201.005 168.241 200.893 166.853L198.305 134.928C198.151 133.037 197.18 131.307 195.644 130.193L169.724 111.376C168.597 110.558 169.096 108.779 170.484 108.667L202.41 106.079C204.301 105.925 206.03 104.954 207.145 103.419L225.962 77.4981C226.78 76.3713 228.558 76.8702 228.671 78.2582Z" stroke="#FFDFF8" stroke-width="5"/>
</g>
</svg>
