<svg width="810" height="300" viewBox="0 0 810 300" fill="none" xmlns="http://www.w3.org/2000/svg">
<mask id="mask0_63_21" style="mask-type:alpha" maskUnits="userSpaceOnUse" x="0" y="0" width="810" height="300">
<rect width="810" height="300" rx="14" fill="#F9CEEE"/>
</mask>
<g mask="url(#mask0_63_21)">
<path d="M630.188 -70.4822C630.623 -71.3479 631.912 -71.1515 632.069 -70.1956L660.228 101.143L663.188 100.657L660.228 101.143C660.72 104.136 663.082 106.471 666.08 106.928L837.735 133.094C838.692 133.24 838.904 134.526 838.043 134.971L683.792 214.698C681.098 216.09 679.607 219.059 680.099 222.052L708.258 393.39C708.415 394.346 707.257 394.945 706.568 394.264L583.077 272.199C580.92 270.068 577.636 269.567 574.942 270.959L420.69 350.687C419.83 351.132 418.903 350.215 419.338 349.35L497.267 194.182C498.628 191.472 498.089 188.194 495.932 186.062L372.441 63.9977C371.752 63.3167 372.337 62.1519 373.294 62.2979L544.949 88.4636C547.947 88.9206 550.898 87.3952 552.259 84.6852L630.188 -70.4822Z" stroke="#FFDFF8" stroke-width="6"/>
<path d="M612.259 60.7492C612.693 59.8835 613.982 60.0799 614.139 61.0358L627.19 140.443C627.681 143.436 630.044 145.771 633.042 146.228L712.596 158.355C713.554 158.501 713.765 159.787 712.904 160.232L641.416 197.182C638.722 198.574 637.231 201.543 637.723 204.535L650.773 283.943C650.93 284.899 649.773 285.497 649.084 284.816L591.851 228.245C589.694 226.113 586.41 225.613 583.716 227.005L512.228 263.955C511.367 264.4 510.44 263.483 510.875 262.618L546.991 190.705C548.353 187.995 547.814 184.717 545.657 182.585L488.424 126.014C487.735 125.333 488.32 124.168 489.278 124.314L568.832 136.44C571.83 136.897 574.781 135.372 576.142 132.662L612.259 60.7492Z" stroke="#FFDFF8" stroke-opacity="0.5" stroke-width="6"/>
<rect x="335.991" y="108.771" width="134.316" height="134.316" rx="11.5" transform="rotate(29.2297 335.991 108.771)" stroke="#FFDFF8" stroke-width="5"/>
<rect x="347.078" y="151.402" width="73.0593" height="73.0593" rx="11.5" transform="rotate(29.2297 347.078 151.402)" stroke="#FFDFF8" stroke-opacity="0.5" stroke-width="5"/>
</g>
</svg>
