<svg width="810" height="300" viewBox="0 0 810 300" fill="none" xmlns="http://www.w3.org/2000/svg">
<mask id="mask0_108_177" style="mask-type:alpha" maskUnits="userSpaceOnUse" x="0" y="0" width="810" height="300">
<rect width="810" height="300" rx="14" fill="#F9CEEE"/>
</mask>
<g mask="url(#mask0_108_177)">
<path d="M661.834 -48.715L702.157 60.4609C703.275 63.4895 706.32 65.3602 709.527 64.9894L825.141 51.6222C825.967 51.5268 826.542 52.4217 826.112 53.133L765.895 152.728C764.225 155.491 764.66 159.038 766.95 161.314L849.485 243.371C850.074 243.957 849.733 244.964 848.909 245.071L733.498 260.089C730.296 260.505 727.795 263.058 727.443 266.267L714.748 381.957C714.658 382.783 713.657 383.144 713.059 382.567L629.361 301.698C627.039 299.455 623.484 299.09 620.755 300.816L522.39 363.022C521.688 363.466 520.782 362.91 520.86 362.082L531.901 246.223C532.207 243.009 530.276 240.002 527.225 238.945L417.261 200.825C416.475 200.553 416.346 199.497 417.042 199.043L514.508 135.438C517.211 133.673 518.358 130.289 517.283 127.244L478.524 17.5036C478.247 16.7198 478.992 15.9601 479.781 16.2211L590.279 52.7659C593.344 53.7796 596.705 52.5655 598.415 49.8269L660.048 -48.8981C660.488 -49.6031 661.546 -49.4946 661.834 -48.715Z" stroke="#E9EEFF" stroke-width="6"/>
<path d="M652.878 28.313L676.723 92.8756C677.842 95.9041 680.887 97.7748 684.094 97.404L752.463 89.4992C753.289 89.4037 753.864 90.2987 753.434 91.0099L717.824 149.907C716.154 152.67 716.59 156.217 718.879 158.493L767.687 207.018C768.277 207.604 767.935 208.611 767.111 208.719L698.861 217.599C695.66 218.016 693.158 220.568 692.806 223.777L685.299 292.192C685.209 293.018 684.208 293.38 683.61 292.802L634.114 244.979C631.792 242.736 628.237 242.372 625.509 244.097L567.339 280.884C566.637 281.328 565.731 280.771 565.809 279.944L572.338 211.429C572.645 208.215 570.713 205.208 567.663 204.151L502.634 181.608C501.848 181.336 501.719 180.28 502.415 179.826L560.053 142.212C562.756 140.448 563.903 137.063 562.827 134.019L539.907 69.1224C539.63 68.3387 540.375 67.579 541.164 67.8399L606.508 89.4511C609.573 90.4649 612.934 89.2508 614.644 86.5122L651.092 28.1299C651.532 27.4249 652.59 27.5333 652.878 28.313Z" stroke="#E9EEFF" stroke-opacity="0.5" stroke-width="6"/>
<path d="M350.409 207.134L456.199 290.217C457.107 290.93 456.903 292.359 455.831 292.788L330.985 342.864C329.913 343.294 328.778 342.402 328.942 341.259L347.998 208.102C348.162 206.959 349.501 206.421 350.409 207.134Z" stroke="#E9EEFF" stroke-width="5"/>
<path d="M462.875 126.58L375.504 117.051C374.356 116.926 373.774 115.605 374.456 114.674L426.394 43.7721C427.076 42.8406 428.511 42.9971 428.977 44.0538L464.41 124.484C464.876 125.54 464.023 126.705 462.875 126.58Z" stroke="#E9EEFF" stroke-width="5"/>
</g>
</svg>
