<svg width="810" height="300" viewBox="0 0 810 300" fill="none" xmlns="http://www.w3.org/2000/svg">
<mask id="mask0_108_499" style="mask-type:alpha" maskUnits="userSpaceOnUse" x="0" y="0" width="810" height="300">
<rect width="810" height="300" rx="14" fill="#F9CEEE"/>
</mask>
<g mask="url(#mask0_108_499)">
<path d="M662.361 1.60553L745.45 151.598C746.44 153.385 748.161 154.65 750.162 155.062L918.112 189.622C919.021 189.809 919.207 191.026 918.395 191.476L768.403 274.565C766.616 275.555 765.35 277.277 764.939 279.278L730.379 447.227C730.192 448.137 728.975 448.322 728.525 447.51L645.435 297.518C644.445 295.731 642.724 294.466 640.723 294.054L472.773 259.494C471.864 259.307 471.678 258.09 472.49 257.64L622.482 174.551C624.27 173.561 625.535 171.839 625.947 169.838L660.507 1.88855C660.694 0.9793 661.911 0.793488 662.361 1.60553Z" stroke="#FFDFF8" stroke-width="6"/>
<path d="M678.833 125.008L716.296 192.636C717.286 194.423 719.007 195.689 721.008 196.101L796.733 211.683C797.642 211.87 797.828 213.087 797.016 213.537L729.388 251C727.601 251.99 726.335 253.711 725.923 255.712L710.341 331.437C710.154 332.346 708.937 332.532 708.487 331.72L671.024 264.092C670.034 262.305 668.313 261.04 666.312 260.628L590.587 245.046C589.678 244.858 589.492 243.641 590.304 243.191L657.932 205.728C659.719 204.738 660.984 203.017 661.396 201.016L676.978 125.291C677.165 124.382 678.383 124.196 678.833 125.008Z" stroke="#FFDFF8" stroke-opacity="0.5" stroke-width="6"/>
<path d="M538.899 11.9841L543.965 74.4776C544.118 76.3685 545.09 78.098 546.625 79.2125L597.364 116.046C598.49 116.864 597.992 118.643 596.604 118.755L534.11 123.821C532.219 123.974 530.49 124.946 529.375 126.481L492.542 177.219C491.724 178.346 489.945 177.847 489.833 176.459L484.767 113.966C484.614 112.075 483.642 110.346 482.107 109.231L431.368 72.3973C430.242 71.5793 430.74 69.8009 432.128 69.6884L494.622 64.6226C496.513 64.4693 498.242 63.4976 499.357 61.9624L536.19 11.2241C537.008 10.0973 538.787 10.5962 538.899 11.9841Z" stroke="#FFDFF8" stroke-width="5"/>
<path d="M372.008 198.819L397.981 220.084C399.448 221.286 401.368 221.787 403.236 221.455L436.286 215.581C437.657 215.337 438.591 216.931 437.709 218.008L416.443 243.981C415.242 245.448 414.741 247.368 415.073 249.236L420.947 282.286C421.191 283.657 419.597 284.591 418.52 283.709L392.547 262.443C391.079 261.242 389.16 260.741 387.292 261.073L354.242 266.947C352.871 267.191 351.937 265.597 352.819 264.52L374.084 238.547C375.286 237.079 375.787 235.16 375.455 233.292L369.581 200.242C369.337 198.871 370.93 197.937 372.008 198.819Z" stroke="#FFDFF8" stroke-width="5"/>
</g>
</svg>
