<svg width="810" height="300" viewBox="0 0 810 300" fill="none" xmlns="http://www.w3.org/2000/svg">
<mask id="mask0_108_579" style="mask-type:alpha" maskUnits="userSpaceOnUse" x="0" y="0" width="810" height="300">
<rect width="810" height="300" rx="14" fill="#F9CEEE"/>
</mask>
<g mask="url(#mask0_108_579)">
<mask id="path-2-inside-1_108_579" fill="white">
<rect x="435.674" y="89.9618" width="314.518" height="314.518" rx="4" transform="rotate(-26.0175 435.674 89.9618)"/>
</mask>
<rect x="435.674" y="89.9618" width="314.518" height="314.518" rx="4" transform="rotate(-26.0175 435.674 89.9618)" stroke="#BBC2F2" stroke-width="10" mask="url(#path-2-inside-1_108_579)"/>
<mask id="path-3-inside-2_108_579" fill="white">
<rect x="527.521" y="119.55" width="170.644" height="170.644" rx="4" transform="rotate(-26.0175 527.521 119.55)"/>
</mask>
<rect x="527.521" y="119.55" width="170.644" height="170.644" rx="4" transform="rotate(-26.0175 527.521 119.55)" stroke="#BBC2F2" stroke-opacity="0.5" stroke-width="10" mask="url(#path-3-inside-2_108_579)"/>
<path d="M411.965 166.467L415.945 215.575C416.099 217.466 417.07 219.196 418.606 220.31L458.476 249.255C459.603 250.073 459.104 251.851 457.716 251.964L408.608 255.945C406.717 256.098 404.988 257.07 403.873 258.605L374.929 298.476C374.111 299.602 372.332 299.103 372.22 297.716L368.239 248.607C368.086 246.716 367.114 244.987 365.579 243.872L325.708 214.928C324.581 214.11 325.08 212.332 326.468 212.219L375.576 208.238C377.467 208.085 379.197 207.113 380.311 205.578L409.256 165.707C410.074 164.58 411.852 165.079 411.965 166.467Z" stroke="#BBC2F2" stroke-width="5"/>
<path d="M308.277 41.3827L339.998 51.0733C341.813 51.6275 343.778 51.3615 345.38 50.345L373.385 32.5725C374.561 31.8264 376.03 32.9455 375.623 34.2772L365.933 65.9983C365.379 67.8126 365.645 69.7785 366.661 71.3802L384.434 99.385C385.18 100.561 384.06 102.03 382.729 101.623L351.008 91.9328C349.193 91.3785 347.228 91.6445 345.626 92.661L317.621 110.434C316.445 111.18 314.976 110.06 315.383 108.729L325.073 77.0078C325.628 75.1935 325.361 73.2276 324.345 71.6258L306.573 43.621C305.826 42.4453 306.946 40.9759 308.277 41.3827Z" stroke="#BBC2F2" stroke-width="5"/>
</g>
</svg>
