<svg width="810" height="300" viewBox="0 0 810 300" fill="none" xmlns="http://www.w3.org/2000/svg">
<mask id="mask0_127_36" style="mask-type:alpha" maskUnits="userSpaceOnUse" x="0" y="0" width="810" height="300">
<rect width="810" height="300" rx="14" fill="#F9CEEE"/>
</mask>
<g mask="url(#mask0_127_36)">
<circle cx="88" cy="30" r="44" fill="#B9F3E4"/>
<path d="M-61.6133 155.239C-27.3533 149.692 4.07746 131.608 34.3589 115.386C94.0431 83.4125 149.548 44.4978 205.157 6.0522C225.103 -7.73756 245.268 -21.272 264.878 -35.5435C268.136 -37.9147 276.901 -45.9248 274.754 -42.5149C253.507 -8.76909 234.298 26.2246 212.477 59.6154C194.354 87.3477 174.838 114.05 154.731 140.367C143.028 155.685 119.969 176.577 114.413 196.021C110.778 208.744 141.656 198.259 154.034 193.581C189.825 180.057 224.338 162.972 259.65 148.268C295.941 133.156 332.716 118.531 370.378 107.137C390.697 100.989 416.483 92.1963 438.349 94.2397C472.441 97.4259 423.778 171.565 417.086 182.66C407.486 198.575 402.007 206.303 391.524 221.002C386.452 228.114 370.293 243.055 378.976 244.008C391.944 245.431 418.712 229.183 428.124 224.72C458.979 210.091 488.94 193.92 518.635 177.083C523.723 174.198 607.369 121.81 606.474 144.317C605.665 164.656 593.412 187.777 585.793 205.781C574.095 233.419 560.45 260.781 551.633 289.554C549.242 297.355 539.992 323.313 559.069 319.53C585.667 314.257 612.501 289.577 633.895 275.146C709.587 224.089 790.517 173.89 882.54 159.887C901.891 156.942 935.287 152.336 950.162 170.46C963.282 186.445 955.184 212.077 949.465 228.903C936.98 265.632 915.322 299.365 900.433 335.1" stroke="#D1DBFF" stroke-width="70" stroke-linecap="round"/>
<mask id="mask1_127_36" style="mask-type:alpha" maskUnits="userSpaceOnUse" x="527" y="12" width="252" height="252">
<rect x="520.76" y="108.718" width="191.311" height="191.311" rx="18" transform="rotate(-32.5593 520.76 108.718)" fill="#D9D9D9"/>
</mask>
<g mask="url(#mask1_127_36)">
<circle cx="636.204" cy="215.458" r="56.4368" transform="rotate(-32.5593 636.204 215.458)" fill="#F9CEEE"/>
<circle cx="572.033" cy="118.597" r="56.4368" transform="rotate(-32.5593 572.033 118.597)" fill="#F9CEEE"/>
<ellipse cx="670.324" cy="59.7501" rx="56.118" ry="56.4368" transform="rotate(-32.5593 670.324 59.7501)" fill="#F9CEEE"/>
<ellipse cx="731.069" cy="154.884" rx="56.118" ry="56.4368" transform="rotate(-32.5593 731.069 154.884)" fill="#F9CEEE"/>
</g>
<path d="M286.245 189.706L313.415 136.126L310.156 196.113C310.015 198.702 312.64 200.539 315.025 199.522L370.279 175.943L329.223 219.8C327.452 221.693 328.281 224.788 330.762 225.541L388.245 242.995L328.604 250.201C326.03 250.512 324.676 253.416 326.092 255.588L358.908 305.908L308.588 273.092C306.416 271.676 303.512 273.03 303.201 275.604L295.995 335.245L278.541 277.762C277.787 275.281 274.693 274.452 272.8 276.223L228.943 317.279L252.522 262.025C253.539 259.64 251.702 257.015 249.113 257.156L189.126 260.415L242.706 233.245C245.018 232.072 245.297 228.88 243.224 227.324L195.176 191.262L253.686 204.888C256.211 205.476 258.476 203.211 257.888 200.686L244.262 142.176L280.324 190.224C281.88 192.297 285.072 192.018 286.245 189.706Z" stroke="#FFD9C0" stroke-width="5"/>
<ellipse cx="150.75" cy="217.834" rx="115.121" ry="42.5567" transform="rotate(9.96714 150.75 217.834)" fill="#F9CEEE"/>
<path d="M100.942 215.077L103.459 200.751L108.832 201.695C109.932 201.889 110.819 202.256 111.493 202.798C112.172 203.34 112.64 204.004 112.896 204.789C113.157 205.571 113.208 206.416 113.049 207.325C112.887 208.244 112.55 209.026 112.038 209.672C111.525 210.317 110.855 210.779 110.028 211.056C109.201 211.329 108.235 211.369 107.13 211.174L103.569 210.549L103.944 208.415L107.155 208.979C107.798 209.092 108.345 209.073 108.795 208.921C109.244 208.77 109.602 208.515 109.866 208.158C110.136 207.801 110.315 207.369 110.404 206.861C110.494 206.352 110.472 205.887 110.34 205.465C110.212 205.043 109.959 204.689 109.582 204.401C109.21 204.11 108.7 203.907 108.052 203.794L105.673 203.376L103.537 215.533L100.942 215.077ZM113.507 217.285L115.395 206.541L117.85 206.972L117.535 208.763L117.647 208.783C117.952 208.197 118.372 207.778 118.907 207.526C119.447 207.27 120.025 207.196 120.64 207.304C120.78 207.328 120.935 207.363 121.105 207.407C121.281 207.448 121.425 207.49 121.537 207.534L121.128 209.863C121.027 209.807 120.863 209.744 120.634 209.675C120.412 209.602 120.193 209.547 119.979 209.51C119.517 209.428 119.084 209.456 118.681 209.591C118.282 209.723 117.948 209.946 117.676 210.259C117.405 210.572 117.229 210.957 117.149 211.414L116.039 217.73L113.507 217.285ZM125.524 219.613C124.475 219.429 123.606 219.038 122.918 218.441C122.229 217.844 121.746 217.094 121.467 216.189C121.194 215.285 121.154 214.278 121.349 213.168C121.544 212.059 121.925 211.123 122.491 210.362C123.062 209.602 123.773 209.059 124.624 208.732C125.474 208.406 126.424 208.335 127.474 208.519C128.523 208.704 129.392 209.094 130.08 209.691C130.768 210.288 131.249 211.041 131.522 211.949C131.8 212.858 131.841 213.868 131.646 214.978C131.451 216.088 131.068 217.021 130.498 217.776C129.932 218.532 129.224 219.074 128.374 219.4C127.523 219.727 126.573 219.798 125.524 219.613ZM125.895 217.587C126.463 217.687 126.967 217.615 127.404 217.369C127.842 217.119 128.201 216.745 128.481 216.246C128.766 215.748 128.965 215.173 129.08 214.52C129.196 213.862 129.204 213.251 129.107 212.686C129.014 212.117 128.805 211.64 128.478 211.256C128.152 210.871 127.704 210.629 127.135 210.529C126.552 210.427 126.039 210.5 125.596 210.749C125.158 210.999 124.796 211.375 124.511 211.878C124.231 212.377 124.033 212.955 123.918 213.613C123.803 214.265 123.792 214.874 123.885 215.439C123.983 216.004 124.195 216.479 124.522 216.863C124.854 217.243 125.312 217.485 125.895 217.587ZM140.189 210.898L139.845 212.856L133.493 211.74L133.837 209.782L140.189 210.898ZM133.537 220.805L135.603 209.046C135.73 208.324 135.985 207.748 136.368 207.32C136.756 206.893 137.225 206.606 137.775 206.457C138.325 206.309 138.91 206.289 139.53 206.398C139.969 206.475 140.352 206.578 140.68 206.708C141.008 206.838 141.249 206.945 141.402 207.03L140.554 208.9C140.453 208.848 140.323 208.792 140.166 208.73C140.009 208.664 139.831 208.614 139.63 208.579C139.159 208.496 138.806 208.552 138.57 208.746C138.339 208.936 138.187 209.241 138.113 209.661L136.076 221.251L133.537 220.805ZM144.6 222.966C143.522 222.776 142.631 222.389 141.927 221.804C141.227 221.214 140.74 220.47 140.466 219.571C140.192 218.667 140.154 217.653 140.351 216.529C140.545 215.424 140.926 214.491 141.492 213.73C142.064 212.965 142.771 212.416 143.613 212.084C144.456 211.746 145.39 211.668 146.416 211.848C147.079 211.964 147.685 212.181 148.234 212.499C148.79 212.813 149.255 213.231 149.629 213.754C150.008 214.277 150.268 214.905 150.409 215.636C150.551 216.363 150.539 217.197 150.373 218.139L150.237 218.916L141.43 217.368L141.73 215.661L148.109 216.782C148.19 216.296 148.161 215.847 148.022 215.433C147.884 215.014 147.65 214.663 147.32 214.379C146.995 214.096 146.59 213.912 146.105 213.827C145.587 213.736 145.11 213.782 144.674 213.965C144.239 214.143 143.876 214.416 143.586 214.783C143.301 215.146 143.114 215.568 143.025 216.047L142.763 217.537C142.653 218.162 142.673 218.719 142.823 219.206C142.974 219.69 143.233 220.086 143.602 220.396C143.971 220.701 144.431 220.902 144.981 220.999C145.35 221.064 145.692 221.071 146.009 221.021C146.326 220.966 146.612 220.855 146.867 220.689C147.123 220.522 147.333 220.297 147.498 220.014L149.816 220.695C149.557 221.294 149.176 221.789 148.675 222.182C148.178 222.571 147.584 222.836 146.89 222.979C146.198 223.117 145.434 223.112 144.6 222.966ZM161.437 217.56L159.085 217.406C159.061 217.161 158.985 216.922 158.858 216.688C158.735 216.455 158.55 216.252 158.301 216.078C158.053 215.905 157.733 215.784 157.341 215.715C156.814 215.622 156.351 215.659 155.952 215.824C155.557 215.99 155.33 216.256 155.271 216.62C155.212 216.932 155.281 217.206 155.48 217.443C155.683 217.681 156.047 217.91 156.57 218.132L158.334 218.846C159.312 219.244 160.007 219.724 160.417 220.287C160.833 220.85 160.975 221.517 160.845 222.287C160.721 222.962 160.418 223.524 159.935 223.973C159.458 224.418 158.849 224.725 158.108 224.892C157.367 225.06 156.549 225.065 155.654 224.908C154.339 224.677 153.328 224.216 152.623 223.525C151.918 222.829 151.576 221.973 151.596 220.957L154.107 221.153C154.134 221.658 154.307 222.066 154.627 222.377C154.948 222.688 155.399 222.895 155.982 222.997C156.584 223.103 157.088 223.064 157.495 222.881C157.907 222.699 158.145 222.425 158.209 222.062C158.263 221.754 158.189 221.479 157.986 221.237C157.788 220.995 157.452 220.777 156.976 220.583L155.211 219.876C154.218 219.481 153.519 218.985 153.114 218.39C152.71 217.79 152.579 217.099 152.721 216.316C152.833 215.653 153.113 215.111 153.562 214.69C154.017 214.265 154.594 213.977 155.294 213.826C155.999 213.671 156.78 213.669 157.638 213.82C158.897 214.041 159.841 214.484 160.47 215.147C161.103 215.811 161.426 216.615 161.437 217.56ZM172.248 219.46L169.896 219.306C169.871 219.061 169.796 218.822 169.669 218.588C169.546 218.355 169.361 218.152 169.112 217.978C168.864 217.805 168.544 217.684 168.152 217.615C167.625 217.522 167.162 217.559 166.763 217.724C166.368 217.89 166.141 218.156 166.082 218.52C166.023 218.832 166.092 219.106 166.291 219.343C166.494 219.581 166.858 219.81 167.381 220.032L169.145 220.746C170.123 221.144 170.818 221.624 171.228 222.186C171.644 222.75 171.786 223.417 171.656 224.187C171.532 224.862 171.229 225.424 170.746 225.873C170.269 226.318 169.66 226.624 168.919 226.792C168.178 226.96 167.36 226.965 166.464 226.808C165.149 226.577 164.139 226.116 163.434 225.424C162.729 224.729 162.387 223.873 162.407 222.857L164.918 223.053C164.944 223.558 165.118 223.966 165.438 224.277C165.759 224.588 166.21 224.795 166.793 224.897C167.395 225.003 167.899 224.964 168.306 224.781C168.718 224.598 168.956 224.325 169.02 223.962C169.074 223.654 169 223.379 168.797 223.136C168.599 222.895 168.262 222.677 167.787 222.483L166.022 221.776C165.029 221.381 164.33 220.885 163.925 220.29C163.521 219.69 163.39 218.999 163.532 218.216C163.644 217.553 163.924 217.011 164.373 216.59C164.828 216.165 165.405 215.877 166.104 215.726C166.809 215.571 167.591 215.569 168.449 215.72C169.708 215.941 170.652 216.384 171.281 217.047C171.914 217.711 172.236 218.515 172.248 219.46ZM173.178 227.772L175.066 217.027L177.599 217.472L175.71 228.217L173.178 227.772ZM176.607 215.726C176.206 215.655 175.885 215.462 175.642 215.145C175.401 214.824 175.313 214.474 175.379 214.097C175.447 213.714 175.648 213.416 175.984 213.201C176.321 212.981 176.689 212.906 177.091 212.977C177.496 213.048 177.818 213.244 178.055 213.564C178.297 213.881 178.385 214.231 178.317 214.613C178.251 214.991 178.049 215.289 177.713 215.509C177.382 215.725 177.013 215.797 176.607 215.726ZM182.964 229.708C181.915 229.523 181.046 229.133 180.358 228.536C179.669 227.939 179.186 227.188 178.908 226.283C178.634 225.379 178.594 224.373 178.789 223.263C178.984 222.153 179.365 221.217 179.932 220.456C180.503 219.696 181.213 219.153 182.064 218.826C182.915 218.5 183.865 218.429 184.914 218.613C185.963 218.798 186.832 219.188 187.52 219.785C188.208 220.382 188.689 221.135 188.962 222.043C189.24 222.953 189.281 223.962 189.086 225.072C188.891 226.182 188.508 227.115 187.938 227.87C187.373 228.627 186.664 229.168 185.814 229.494C184.963 229.821 184.013 229.892 182.964 229.708ZM183.335 227.681C183.904 227.781 184.407 227.709 184.844 227.464C185.282 227.214 185.641 226.839 185.921 226.34C186.206 225.842 186.405 225.267 186.52 224.614C186.636 223.957 186.645 223.345 186.547 222.78C186.455 222.211 186.245 221.734 185.918 221.35C185.592 220.966 185.144 220.723 184.575 220.623C183.992 220.521 183.479 220.594 183.036 220.843C182.598 221.093 182.236 221.47 181.951 221.972C181.671 222.471 181.473 223.049 181.358 223.707C181.243 224.36 181.232 224.968 181.325 225.533C181.423 226.098 181.635 226.573 181.962 226.957C182.294 227.338 182.752 227.579 183.335 227.681ZM193.937 224.93L192.831 231.225L190.299 230.78L192.187 220.036L194.607 220.461L194.286 222.287L194.412 222.309C194.765 221.751 195.243 221.342 195.846 221.083C196.454 220.824 197.159 220.765 197.961 220.906C198.703 221.037 199.321 221.309 199.815 221.722C200.315 222.137 200.663 222.672 200.86 223.327C201.062 223.982 201.086 224.739 200.93 225.596L199.728 232.437L197.196 231.992L198.329 225.543C198.455 224.825 198.368 224.23 198.066 223.759C197.769 223.288 197.294 222.996 196.641 222.881C196.198 222.803 195.787 222.832 195.407 222.967C195.033 223.098 194.716 223.329 194.456 223.658C194.201 223.988 194.028 224.412 193.937 224.93Z" fill="#091946"/>
</g>
</svg>
